%TF.GenerationSoftware,KiCad,Pcbnew,(5.1.6)-1*%
%TF.CreationDate,2021-05-08T17:44:37+05:30*%
%TF.ProjectId,CC CV Power Supply Rev 3,43432043-5620-4506-9f77-657220537570,rev?*%
%TF.SameCoordinates,Original*%
%TF.FileFunction,Copper,L2,Bot*%
%TF.FilePolarity,Positive*%
%FSLAX46Y46*%
G04 Gerber Fmt 4.6, Leading zero omitted, Abs format (unit mm)*
G04 Created by KiCad (PCBNEW (5.1.6)-1) date 2021-05-08 17:44:37*
%MOMM*%
%LPD*%
G01*
G04 APERTURE LIST*
%TA.AperFunction,ComponentPad*%
%ADD10O,2.800000X2.800000*%
%TD*%
%TA.AperFunction,ComponentPad*%
%ADD11C,2.800000*%
%TD*%
%TA.AperFunction,ComponentPad*%
%ADD12C,1.600000*%
%TD*%
%TA.AperFunction,ComponentPad*%
%ADD13R,1.600000X1.600000*%
%TD*%
%TA.AperFunction,ComponentPad*%
%ADD14O,1.700000X1.700000*%
%TD*%
%TA.AperFunction,ComponentPad*%
%ADD15R,1.700000X1.700000*%
%TD*%
%TA.AperFunction,ComponentPad*%
%ADD16O,2.200000X2.200000*%
%TD*%
%TA.AperFunction,ComponentPad*%
%ADD17R,2.200000X2.200000*%
%TD*%
%TA.AperFunction,ComponentPad*%
%ADD18C,0.800000*%
%TD*%
%TA.AperFunction,ComponentPad*%
%ADD19C,6.400000*%
%TD*%
%TA.AperFunction,ComponentPad*%
%ADD20O,1.905000X2.000000*%
%TD*%
%TA.AperFunction,ComponentPad*%
%ADD21R,1.905000X2.000000*%
%TD*%
%TA.AperFunction,ComponentPad*%
%ADD22C,3.000000*%
%TD*%
%TA.AperFunction,ViaPad*%
%ADD23C,0.609600*%
%TD*%
%TA.AperFunction,Conductor*%
%ADD24C,0.050800*%
%TD*%
G04 APERTURE END LIST*
D10*
%TO.P,R27,2*%
%TO.N,Net-(C21-Pad2)*%
X175750000Y-115250000D03*
D11*
%TO.P,R27,1*%
%TO.N,Net-(Q4-Pad2)*%
X150350000Y-115250000D03*
%TD*%
D10*
%TO.P,R26,2*%
%TO.N,Net-(C20-Pad2)*%
X175750000Y-104750000D03*
D11*
%TO.P,R26,1*%
%TO.N,Net-(R12-Pad1)*%
X150350000Y-104750000D03*
%TD*%
D12*
%TO.P,C29,2*%
%TO.N,Net-(C10-Pad2)*%
X133500000Y-129500000D03*
D13*
%TO.P,C29,1*%
%TO.N,GND*%
X133500000Y-126000000D03*
%TD*%
D12*
%TO.P,C28,2*%
%TO.N,GND*%
X133500000Y-94000000D03*
D13*
%TO.P,C28,1*%
%TO.N,Net-(C12-Pad2)*%
X133500000Y-90500000D03*
%TD*%
D14*
%TO.P,CV1,3*%
%TO.N,GND*%
X127790000Y-121250000D03*
%TO.P,CV1,2*%
%TO.N,Net-(C26-Pad2)*%
X125250000Y-121250000D03*
D15*
%TO.P,CV1,1*%
%TO.N,+5V*%
X122710000Y-121250000D03*
%TD*%
D14*
%TO.P,CC1,3*%
%TO.N,GND*%
X127790000Y-107500000D03*
%TO.P,CC1,2*%
%TO.N,Net-(C27-Pad1)*%
X125250000Y-107500000D03*
D15*
%TO.P,CC1,1*%
%TO.N,+5V*%
X122710000Y-107500000D03*
%TD*%
D16*
%TO.P,D4,2*%
%TO.N,Net-(C21-Pad2)*%
X181500000Y-122160000D03*
D17*
%TO.P,D4,1*%
%TO.N,GND*%
X181500000Y-112000000D03*
%TD*%
D16*
%TO.P,D3,2*%
%TO.N,GND*%
X181500000Y-108000000D03*
D17*
%TO.P,D3,1*%
%TO.N,Net-(C20-Pad2)*%
X181500000Y-97840000D03*
%TD*%
D16*
%TO.P,D2,2*%
%TO.N,Net-(C10-Pad2)*%
X118500000Y-122160000D03*
D17*
%TO.P,D2,1*%
%TO.N,GND*%
X118500000Y-112000000D03*
%TD*%
D16*
%TO.P,D1,2*%
%TO.N,GND*%
X118500000Y-108000000D03*
D17*
%TO.P,D1,1*%
%TO.N,Net-(C12-Pad2)*%
X118500000Y-97840000D03*
%TD*%
D12*
%TO.P,C4,2*%
%TO.N,GND*%
X124000000Y-94000000D03*
D13*
%TO.P,C4,1*%
%TO.N,Net-(C12-Pad2)*%
X124000000Y-90500000D03*
%TD*%
D12*
%TO.P,C5,2*%
%TO.N,Net-(C10-Pad2)*%
X124000000Y-129500000D03*
D13*
%TO.P,C5,1*%
%TO.N,GND*%
X124000000Y-126000000D03*
%TD*%
D18*
%TO.P,H5,1*%
%TO.N,N/C*%
X115697056Y-88802944D03*
X114000000Y-88100000D03*
X112302944Y-88802944D03*
X111600000Y-90500000D03*
X112302944Y-92197056D03*
X114000000Y-92900000D03*
X115697056Y-92197056D03*
X116400000Y-90500000D03*
D19*
X114000000Y-90500000D03*
%TD*%
%TO.P,H6,1*%
%TO.N,N/C*%
X186000000Y-90500000D03*
D18*
X188400000Y-90500000D03*
X187697056Y-92197056D03*
X186000000Y-92900000D03*
X184302944Y-92197056D03*
X183600000Y-90500000D03*
X184302944Y-88802944D03*
X186000000Y-88100000D03*
X187697056Y-88802944D03*
%TD*%
%TO.P,H7,1*%
%TO.N,N/C*%
X115697056Y-127802944D03*
X114000000Y-127100000D03*
X112302944Y-127802944D03*
X111600000Y-129500000D03*
X112302944Y-131197056D03*
X114000000Y-131900000D03*
X115697056Y-131197056D03*
X116400000Y-129500000D03*
D19*
X114000000Y-129500000D03*
%TD*%
%TO.P,H8,1*%
%TO.N,N/C*%
X186000000Y-129500000D03*
D18*
X188400000Y-129500000D03*
X187697056Y-131197056D03*
X186000000Y-131900000D03*
X184302944Y-131197056D03*
X183600000Y-129500000D03*
X184302944Y-127802944D03*
X186000000Y-127100000D03*
X187697056Y-127802944D03*
%TD*%
D20*
%TO.P,Q4,3*%
%TO.N,Net-(Q4-Pad3)*%
X167540000Y-127000000D03*
%TO.P,Q4,2*%
%TO.N,Net-(Q4-Pad2)*%
X165000000Y-127000000D03*
D21*
%TO.P,Q4,1*%
%TO.N,Net-(Q4-Pad1)*%
X162460000Y-127000000D03*
%TD*%
%TO.P,Q5,1*%
%TO.N,Net-(Q4-Pad1)*%
X150460000Y-127000000D03*
D20*
%TO.P,Q5,2*%
%TO.N,Net-(Q4-Pad2)*%
X153000000Y-127000000D03*
%TO.P,Q5,3*%
%TO.N,Net-(Q5-Pad3)*%
X155540000Y-127000000D03*
%TD*%
D21*
%TO.P,Q6,1*%
%TO.N,Net-(Q6-Pad1)*%
X167540000Y-93000000D03*
D20*
%TO.P,Q6,2*%
%TO.N,Net-(C12-Pad2)*%
X165000000Y-93000000D03*
%TO.P,Q6,3*%
%TO.N,Net-(Q6-Pad3)*%
X162460000Y-93000000D03*
%TD*%
%TO.P,Q7,3*%
%TO.N,Net-(Q7-Pad3)*%
X150460000Y-93000000D03*
%TO.P,Q7,2*%
%TO.N,Net-(C12-Pad2)*%
X153000000Y-93000000D03*
D21*
%TO.P,Q7,1*%
%TO.N,Net-(Q6-Pad1)*%
X155540000Y-93000000D03*
%TD*%
D22*
%TO.P,H1,1*%
%TO.N,Net-(C12-Pad2)*%
X114000000Y-98000000D03*
%TD*%
%TO.P,H2,1*%
%TO.N,GND*%
X114000000Y-110000000D03*
%TD*%
%TO.P,H4,1*%
%TO.N,Net-(C10-Pad2)*%
X114000000Y-122000000D03*
%TD*%
%TO.P,H9,1*%
%TO.N,Net-(C20-Pad2)*%
X186000000Y-98000000D03*
%TD*%
%TO.P,H10,1*%
%TO.N,GND*%
X186000000Y-110000000D03*
%TD*%
%TO.P,H11,1*%
%TO.N,Net-(C21-Pad2)*%
X186000000Y-122000000D03*
%TD*%
D23*
%TO.N,GND*%
X148000000Y-106750000D03*
X172750000Y-130500000D03*
X173750000Y-130500000D03*
X175250000Y-130500000D03*
X176250000Y-130500000D03*
X177750000Y-130500000D03*
X178750000Y-130500000D03*
X172750000Y-89500000D03*
X173750000Y-89500000D03*
X175250000Y-89500000D03*
X176250000Y-89500000D03*
X177750000Y-89500000D03*
X178750000Y-89500000D03*
X123250000Y-114500000D03*
X129500000Y-109750000D03*
X139750000Y-112250000D03*
X138250000Y-114750000D03*
X128750000Y-115000000D03*
X129750000Y-119000000D03*
X135000000Y-119750000D03*
X133000000Y-120500000D03*
X144750000Y-118750000D03*
X145000000Y-95000000D03*
X144000000Y-95000000D03*
X142750000Y-95000000D03*
X141750000Y-95000000D03*
X131750000Y-107250000D03*
X146000000Y-126250000D03*
X140000000Y-127500000D03*
X142250000Y-127500000D03*
X144500000Y-127500000D03*
X139000000Y-120000000D03*
X140379997Y-105999995D03*
X131596000Y-102846000D03*
X136676000Y-102824000D03*
X129750000Y-101500000D03*
X124250000Y-105500000D03*
X127250000Y-105500000D03*
X129750000Y-105500000D03*
%TD*%
D24*
%TO.N,GND*%
G36*
X186742316Y-86751035D02*
G01*
X187456354Y-86966616D01*
X188114924Y-87316784D01*
X188692935Y-87788198D01*
X189168372Y-88362903D01*
X189523131Y-89019016D01*
X189743692Y-89731533D01*
X189822535Y-90481678D01*
X189822600Y-90500328D01*
X189822601Y-115991279D01*
X189822600Y-115991289D01*
X189822601Y-129491317D01*
X189748966Y-130242311D01*
X189533385Y-130956351D01*
X189183216Y-131614924D01*
X188711802Y-132192935D01*
X188137097Y-132668372D01*
X187480984Y-133023131D01*
X186768470Y-133243691D01*
X186018323Y-133322535D01*
X185999672Y-133322600D01*
X114008673Y-133322600D01*
X113257689Y-133248966D01*
X112543649Y-133033385D01*
X111885076Y-132683216D01*
X111307065Y-132211802D01*
X110831628Y-131637097D01*
X110476869Y-130980984D01*
X110256309Y-130268470D01*
X110177465Y-129518323D01*
X110177400Y-129499672D01*
X110177400Y-129162628D01*
X110574600Y-129162628D01*
X110574600Y-129837372D01*
X110706236Y-130499152D01*
X110964450Y-131122535D01*
X111339318Y-131683565D01*
X111816435Y-132160682D01*
X112377465Y-132535550D01*
X113000848Y-132793764D01*
X113662628Y-132925400D01*
X114337372Y-132925400D01*
X114999152Y-132793764D01*
X115622535Y-132535550D01*
X116183565Y-132160682D01*
X116660682Y-131683565D01*
X117035550Y-131122535D01*
X117293764Y-130499152D01*
X117425400Y-129837372D01*
X117425400Y-129399007D01*
X122974600Y-129399007D01*
X122974600Y-129600993D01*
X123014006Y-129799098D01*
X123091303Y-129985709D01*
X123203520Y-130153654D01*
X123346346Y-130296480D01*
X123514291Y-130408697D01*
X123700902Y-130485994D01*
X123899007Y-130525400D01*
X124100993Y-130525400D01*
X124299098Y-130485994D01*
X124485709Y-130408697D01*
X124653654Y-130296480D01*
X124796480Y-130153654D01*
X124908697Y-129985709D01*
X124985994Y-129799098D01*
X125025400Y-129600993D01*
X125025400Y-129399007D01*
X132474600Y-129399007D01*
X132474600Y-129600993D01*
X132514006Y-129799098D01*
X132591303Y-129985709D01*
X132703520Y-130153654D01*
X132846346Y-130296480D01*
X133014291Y-130408697D01*
X133200902Y-130485994D01*
X133399007Y-130525400D01*
X133600993Y-130525400D01*
X133799098Y-130485994D01*
X133985709Y-130408697D01*
X134153654Y-130296480D01*
X134296480Y-130153654D01*
X134408697Y-129985709D01*
X134485994Y-129799098D01*
X134525400Y-129600993D01*
X134525400Y-129399007D01*
X134485994Y-129200902D01*
X134470141Y-129162628D01*
X182574600Y-129162628D01*
X182574600Y-129837372D01*
X182706236Y-130499152D01*
X182964450Y-131122535D01*
X183339318Y-131683565D01*
X183816435Y-132160682D01*
X184377465Y-132535550D01*
X185000848Y-132793764D01*
X185662628Y-132925400D01*
X186337372Y-132925400D01*
X186999152Y-132793764D01*
X187622535Y-132535550D01*
X188183565Y-132160682D01*
X188660682Y-131683565D01*
X189035550Y-131122535D01*
X189293764Y-130499152D01*
X189425400Y-129837372D01*
X189425400Y-129162628D01*
X189293764Y-128500848D01*
X189035550Y-127877465D01*
X188660682Y-127316435D01*
X188183565Y-126839318D01*
X187622535Y-126464450D01*
X186999152Y-126206236D01*
X186337372Y-126074600D01*
X185662628Y-126074600D01*
X185000848Y-126206236D01*
X184377465Y-126464450D01*
X183816435Y-126839318D01*
X183339318Y-127316435D01*
X182964450Y-127877465D01*
X182706236Y-128500848D01*
X182574600Y-129162628D01*
X134470141Y-129162628D01*
X134408697Y-129014291D01*
X134296480Y-128846346D01*
X134153654Y-128703520D01*
X133985709Y-128591303D01*
X133799098Y-128514006D01*
X133600993Y-128474600D01*
X133399007Y-128474600D01*
X133200902Y-128514006D01*
X133014291Y-128591303D01*
X132846346Y-128703520D01*
X132703520Y-128846346D01*
X132591303Y-129014291D01*
X132514006Y-129200902D01*
X132474600Y-129399007D01*
X125025400Y-129399007D01*
X124985994Y-129200902D01*
X124908697Y-129014291D01*
X124796480Y-128846346D01*
X124653654Y-128703520D01*
X124485709Y-128591303D01*
X124299098Y-128514006D01*
X124100993Y-128474600D01*
X123899007Y-128474600D01*
X123700902Y-128514006D01*
X123514291Y-128591303D01*
X123346346Y-128703520D01*
X123203520Y-128846346D01*
X123091303Y-129014291D01*
X123014006Y-129200902D01*
X122974600Y-129399007D01*
X117425400Y-129399007D01*
X117425400Y-129162628D01*
X117293764Y-128500848D01*
X117035550Y-127877465D01*
X116660682Y-127316435D01*
X116183565Y-126839318D01*
X116124722Y-126800000D01*
X122919248Y-126800000D01*
X122924643Y-126854772D01*
X122940619Y-126907439D01*
X122966563Y-126955977D01*
X123001478Y-126998522D01*
X123044023Y-127033437D01*
X123092561Y-127059381D01*
X123145228Y-127075357D01*
X123200000Y-127080752D01*
X123701550Y-127079400D01*
X123771400Y-127009550D01*
X123771400Y-126228600D01*
X124228600Y-126228600D01*
X124228600Y-127009550D01*
X124298450Y-127079400D01*
X124800000Y-127080752D01*
X124854772Y-127075357D01*
X124907439Y-127059381D01*
X124955977Y-127033437D01*
X124998522Y-126998522D01*
X125033437Y-126955977D01*
X125059381Y-126907439D01*
X125075357Y-126854772D01*
X125080752Y-126800000D01*
X132419248Y-126800000D01*
X132424643Y-126854772D01*
X132440619Y-126907439D01*
X132466563Y-126955977D01*
X132501478Y-126998522D01*
X132544023Y-127033437D01*
X132592561Y-127059381D01*
X132645228Y-127075357D01*
X132700000Y-127080752D01*
X133201550Y-127079400D01*
X133271400Y-127009550D01*
X133271400Y-126228600D01*
X133728600Y-126228600D01*
X133728600Y-127009550D01*
X133798450Y-127079400D01*
X134300000Y-127080752D01*
X134354772Y-127075357D01*
X134407439Y-127059381D01*
X134455977Y-127033437D01*
X134498522Y-126998522D01*
X134533437Y-126955977D01*
X134559381Y-126907439D01*
X134575357Y-126854772D01*
X134580752Y-126800000D01*
X134579400Y-126298450D01*
X134509550Y-126228600D01*
X133728600Y-126228600D01*
X133271400Y-126228600D01*
X132490450Y-126228600D01*
X132420600Y-126298450D01*
X132419248Y-126800000D01*
X125080752Y-126800000D01*
X125079400Y-126298450D01*
X125009550Y-126228600D01*
X124228600Y-126228600D01*
X123771400Y-126228600D01*
X122990450Y-126228600D01*
X122920600Y-126298450D01*
X122919248Y-126800000D01*
X116124722Y-126800000D01*
X115622535Y-126464450D01*
X114999152Y-126206236D01*
X114337372Y-126074600D01*
X113662628Y-126074600D01*
X113000848Y-126206236D01*
X112377465Y-126464450D01*
X111816435Y-126839318D01*
X111339318Y-127316435D01*
X110964450Y-127877465D01*
X110706236Y-128500848D01*
X110574600Y-129162628D01*
X110177400Y-129162628D01*
X110177400Y-126000000D01*
X149281010Y-126000000D01*
X149281010Y-128000000D01*
X149285362Y-128044186D01*
X149298251Y-128086674D01*
X149319180Y-128125831D01*
X149347347Y-128160153D01*
X149381669Y-128188320D01*
X149420826Y-128209249D01*
X149463314Y-128222138D01*
X149507500Y-128226490D01*
X151412500Y-128226490D01*
X151456686Y-128222138D01*
X151499174Y-128209249D01*
X151538331Y-128188320D01*
X151572653Y-128160153D01*
X151600820Y-128125831D01*
X151621749Y-128086674D01*
X151634638Y-128044186D01*
X151638990Y-128000000D01*
X151638990Y-126894639D01*
X151822100Y-126894639D01*
X151822100Y-127105362D01*
X151839144Y-127278409D01*
X151906497Y-127500444D01*
X152015873Y-127705072D01*
X152163069Y-127884431D01*
X152342429Y-128031627D01*
X152547057Y-128141003D01*
X152769092Y-128208356D01*
X153000000Y-128231099D01*
X153230909Y-128208356D01*
X153452944Y-128141003D01*
X153657572Y-128031627D01*
X153836931Y-127884431D01*
X153984127Y-127705071D01*
X154093503Y-127500443D01*
X154160856Y-127278408D01*
X154177900Y-127105361D01*
X154177900Y-126894639D01*
X154362100Y-126894639D01*
X154362100Y-127105362D01*
X154379144Y-127278409D01*
X154446497Y-127500444D01*
X154555873Y-127705072D01*
X154703069Y-127884431D01*
X154882429Y-128031627D01*
X155087057Y-128141003D01*
X155309092Y-128208356D01*
X155540000Y-128231099D01*
X155770909Y-128208356D01*
X155992944Y-128141003D01*
X156197572Y-128031627D01*
X156376931Y-127884431D01*
X156524127Y-127705071D01*
X156633503Y-127500443D01*
X156700856Y-127278408D01*
X156717900Y-127105361D01*
X156717900Y-126894638D01*
X156700856Y-126721591D01*
X156633503Y-126499556D01*
X156524127Y-126294928D01*
X156376931Y-126115569D01*
X156236109Y-126000000D01*
X161281010Y-126000000D01*
X161281010Y-128000000D01*
X161285362Y-128044186D01*
X161298251Y-128086674D01*
X161319180Y-128125831D01*
X161347347Y-128160153D01*
X161381669Y-128188320D01*
X161420826Y-128209249D01*
X161463314Y-128222138D01*
X161507500Y-128226490D01*
X163412500Y-128226490D01*
X163456686Y-128222138D01*
X163499174Y-128209249D01*
X163538331Y-128188320D01*
X163572653Y-128160153D01*
X163600820Y-128125831D01*
X163621749Y-128086674D01*
X163634638Y-128044186D01*
X163638990Y-128000000D01*
X163638990Y-126894639D01*
X163822100Y-126894639D01*
X163822100Y-127105362D01*
X163839144Y-127278409D01*
X163906497Y-127500444D01*
X164015873Y-127705072D01*
X164163069Y-127884431D01*
X164342429Y-128031627D01*
X164547057Y-128141003D01*
X164769092Y-128208356D01*
X165000000Y-128231099D01*
X165230909Y-128208356D01*
X165452944Y-128141003D01*
X165657572Y-128031627D01*
X165836931Y-127884431D01*
X165984127Y-127705071D01*
X166093503Y-127500443D01*
X166160856Y-127278408D01*
X166177900Y-127105361D01*
X166177900Y-126894639D01*
X166362100Y-126894639D01*
X166362100Y-127105362D01*
X166379144Y-127278409D01*
X166446497Y-127500444D01*
X166555873Y-127705072D01*
X166703069Y-127884431D01*
X166882429Y-128031627D01*
X167087057Y-128141003D01*
X167309092Y-128208356D01*
X167540000Y-128231099D01*
X167770909Y-128208356D01*
X167992944Y-128141003D01*
X168197572Y-128031627D01*
X168376931Y-127884431D01*
X168524127Y-127705071D01*
X168633503Y-127500443D01*
X168700856Y-127278408D01*
X168717900Y-127105361D01*
X168717900Y-126894638D01*
X168700856Y-126721591D01*
X168633503Y-126499556D01*
X168524127Y-126294928D01*
X168376931Y-126115569D01*
X168197571Y-125968373D01*
X167992943Y-125858997D01*
X167770908Y-125791644D01*
X167540000Y-125768901D01*
X167309091Y-125791644D01*
X167087056Y-125858997D01*
X166882428Y-125968373D01*
X166703069Y-126115569D01*
X166555873Y-126294929D01*
X166446497Y-126499557D01*
X166379144Y-126721592D01*
X166362100Y-126894639D01*
X166177900Y-126894639D01*
X166177900Y-126894638D01*
X166160856Y-126721591D01*
X166093503Y-126499556D01*
X165984127Y-126294928D01*
X165836931Y-126115569D01*
X165657571Y-125968373D01*
X165452943Y-125858997D01*
X165230908Y-125791644D01*
X165000000Y-125768901D01*
X164769091Y-125791644D01*
X164547056Y-125858997D01*
X164342428Y-125968373D01*
X164163069Y-126115569D01*
X164015873Y-126294929D01*
X163906497Y-126499557D01*
X163839144Y-126721592D01*
X163822100Y-126894639D01*
X163638990Y-126894639D01*
X163638990Y-126000000D01*
X163634638Y-125955814D01*
X163621749Y-125913326D01*
X163600820Y-125874169D01*
X163572653Y-125839847D01*
X163538331Y-125811680D01*
X163499174Y-125790751D01*
X163456686Y-125777862D01*
X163412500Y-125773510D01*
X161507500Y-125773510D01*
X161463314Y-125777862D01*
X161420826Y-125790751D01*
X161381669Y-125811680D01*
X161347347Y-125839847D01*
X161319180Y-125874169D01*
X161298251Y-125913326D01*
X161285362Y-125955814D01*
X161281010Y-126000000D01*
X156236109Y-126000000D01*
X156197571Y-125968373D01*
X155992943Y-125858997D01*
X155770908Y-125791644D01*
X155540000Y-125768901D01*
X155309091Y-125791644D01*
X155087056Y-125858997D01*
X154882428Y-125968373D01*
X154703069Y-126115569D01*
X154555873Y-126294929D01*
X154446497Y-126499557D01*
X154379144Y-126721592D01*
X154362100Y-126894639D01*
X154177900Y-126894639D01*
X154177900Y-126894638D01*
X154160856Y-126721591D01*
X154093503Y-126499556D01*
X153984127Y-126294928D01*
X153836931Y-126115569D01*
X153657571Y-125968373D01*
X153452943Y-125858997D01*
X153230908Y-125791644D01*
X153000000Y-125768901D01*
X152769091Y-125791644D01*
X152547056Y-125858997D01*
X152342428Y-125968373D01*
X152163069Y-126115569D01*
X152015873Y-126294929D01*
X151906497Y-126499557D01*
X151839144Y-126721592D01*
X151822100Y-126894639D01*
X151638990Y-126894639D01*
X151638990Y-126000000D01*
X151634638Y-125955814D01*
X151621749Y-125913326D01*
X151600820Y-125874169D01*
X151572653Y-125839847D01*
X151538331Y-125811680D01*
X151499174Y-125790751D01*
X151456686Y-125777862D01*
X151412500Y-125773510D01*
X149507500Y-125773510D01*
X149463314Y-125777862D01*
X149420826Y-125790751D01*
X149381669Y-125811680D01*
X149347347Y-125839847D01*
X149319180Y-125874169D01*
X149298251Y-125913326D01*
X149285362Y-125955814D01*
X149281010Y-126000000D01*
X110177400Y-126000000D01*
X110177400Y-125200000D01*
X122919248Y-125200000D01*
X122920600Y-125701550D01*
X122990450Y-125771400D01*
X123771400Y-125771400D01*
X123771400Y-124990450D01*
X124228600Y-124990450D01*
X124228600Y-125771400D01*
X125009550Y-125771400D01*
X125079400Y-125701550D01*
X125080752Y-125200000D01*
X132419248Y-125200000D01*
X132420600Y-125701550D01*
X132490450Y-125771400D01*
X133271400Y-125771400D01*
X133271400Y-124990450D01*
X133728600Y-124990450D01*
X133728600Y-125771400D01*
X134509550Y-125771400D01*
X134579400Y-125701550D01*
X134580752Y-125200000D01*
X134575357Y-125145228D01*
X134559381Y-125092561D01*
X134533437Y-125044023D01*
X134498522Y-125001478D01*
X134455977Y-124966563D01*
X134407439Y-124940619D01*
X134354772Y-124924643D01*
X134300000Y-124919248D01*
X133798450Y-124920600D01*
X133728600Y-124990450D01*
X133271400Y-124990450D01*
X133201550Y-124920600D01*
X132700000Y-124919248D01*
X132645228Y-124924643D01*
X132592561Y-124940619D01*
X132544023Y-124966563D01*
X132501478Y-125001478D01*
X132466563Y-125044023D01*
X132440619Y-125092561D01*
X132424643Y-125145228D01*
X132419248Y-125200000D01*
X125080752Y-125200000D01*
X125075357Y-125145228D01*
X125059381Y-125092561D01*
X125033437Y-125044023D01*
X124998522Y-125001478D01*
X124955977Y-124966563D01*
X124907439Y-124940619D01*
X124854772Y-124924643D01*
X124800000Y-124919248D01*
X124298450Y-124920600D01*
X124228600Y-124990450D01*
X123771400Y-124990450D01*
X123701550Y-124920600D01*
X123200000Y-124919248D01*
X123145228Y-124924643D01*
X123092561Y-124940619D01*
X123044023Y-124966563D01*
X123001478Y-125001478D01*
X122966563Y-125044023D01*
X122940619Y-125092561D01*
X122924643Y-125145228D01*
X122919248Y-125200000D01*
X110177400Y-125200000D01*
X110177400Y-121830063D01*
X112274600Y-121830063D01*
X112274600Y-122169937D01*
X112340907Y-122503280D01*
X112470971Y-122817283D01*
X112659795Y-123099878D01*
X112900122Y-123340205D01*
X113182717Y-123529029D01*
X113496720Y-123659093D01*
X113830063Y-123725400D01*
X114169937Y-123725400D01*
X114503280Y-123659093D01*
X114817283Y-123529029D01*
X115099878Y-123340205D01*
X115340205Y-123099878D01*
X115529029Y-122817283D01*
X115659093Y-122503280D01*
X115725400Y-122169937D01*
X115725400Y-122029459D01*
X117174600Y-122029459D01*
X117174600Y-122290541D01*
X117225534Y-122546605D01*
X117325446Y-122787812D01*
X117470495Y-123004893D01*
X117655107Y-123189505D01*
X117872188Y-123334554D01*
X118113395Y-123434466D01*
X118369459Y-123485400D01*
X118630541Y-123485400D01*
X118886605Y-123434466D01*
X119127812Y-123334554D01*
X119344893Y-123189505D01*
X119529505Y-123004893D01*
X119674554Y-122787812D01*
X119774466Y-122546605D01*
X119825400Y-122290541D01*
X119825400Y-122029459D01*
X119774466Y-121773395D01*
X119674554Y-121532188D01*
X119529505Y-121315107D01*
X119344893Y-121130495D01*
X119127812Y-120985446D01*
X118886605Y-120885534D01*
X118630541Y-120834600D01*
X118369459Y-120834600D01*
X118113395Y-120885534D01*
X117872188Y-120985446D01*
X117655107Y-121130495D01*
X117470495Y-121315107D01*
X117325446Y-121532188D01*
X117225534Y-121773395D01*
X117174600Y-122029459D01*
X115725400Y-122029459D01*
X115725400Y-121830063D01*
X115659093Y-121496720D01*
X115529029Y-121182717D01*
X115340205Y-120900122D01*
X115099878Y-120659795D01*
X114817283Y-120470971D01*
X114645944Y-120400000D01*
X121633510Y-120400000D01*
X121633510Y-122100000D01*
X121637862Y-122144186D01*
X121650751Y-122186674D01*
X121671680Y-122225831D01*
X121699847Y-122260153D01*
X121734169Y-122288320D01*
X121773326Y-122309249D01*
X121815814Y-122322138D01*
X121860000Y-122326490D01*
X123560000Y-122326490D01*
X123604186Y-122322138D01*
X123646674Y-122309249D01*
X123685831Y-122288320D01*
X123720153Y-122260153D01*
X123748320Y-122225831D01*
X123769249Y-122186674D01*
X123782138Y-122144186D01*
X123786490Y-122100000D01*
X123786490Y-121144082D01*
X124174600Y-121144082D01*
X124174600Y-121355918D01*
X124215927Y-121563682D01*
X124296993Y-121759393D01*
X124414683Y-121935527D01*
X124564473Y-122085317D01*
X124740607Y-122203007D01*
X124936318Y-122284073D01*
X125144082Y-122325400D01*
X125355918Y-122325400D01*
X125563682Y-122284073D01*
X125759393Y-122203007D01*
X125935527Y-122085317D01*
X126085317Y-121935527D01*
X126203007Y-121759393D01*
X126248813Y-121648807D01*
X126733344Y-121648807D01*
X126831451Y-121847287D01*
X126966394Y-122022814D01*
X127132988Y-122168642D01*
X127324830Y-122279167D01*
X127391194Y-122306645D01*
X127561400Y-122284596D01*
X127561400Y-121478600D01*
X128018600Y-121478600D01*
X128018600Y-122284596D01*
X128188806Y-122306645D01*
X128255170Y-122279167D01*
X128447012Y-122168642D01*
X128606014Y-122029459D01*
X180174600Y-122029459D01*
X180174600Y-122290541D01*
X180225534Y-122546605D01*
X180325446Y-122787812D01*
X180470495Y-123004893D01*
X180655107Y-123189505D01*
X180872188Y-123334554D01*
X181113395Y-123434466D01*
X181369459Y-123485400D01*
X181630541Y-123485400D01*
X181886605Y-123434466D01*
X182127812Y-123334554D01*
X182344893Y-123189505D01*
X182529505Y-123004893D01*
X182674554Y-122787812D01*
X182774466Y-122546605D01*
X182825400Y-122290541D01*
X182825400Y-122029459D01*
X182785738Y-121830063D01*
X184274600Y-121830063D01*
X184274600Y-122169937D01*
X184340907Y-122503280D01*
X184470971Y-122817283D01*
X184659795Y-123099878D01*
X184900122Y-123340205D01*
X185182717Y-123529029D01*
X185496720Y-123659093D01*
X185830063Y-123725400D01*
X186169937Y-123725400D01*
X186503280Y-123659093D01*
X186817283Y-123529029D01*
X187099878Y-123340205D01*
X187340205Y-123099878D01*
X187529029Y-122817283D01*
X187659093Y-122503280D01*
X187725400Y-122169937D01*
X187725400Y-121830063D01*
X187659093Y-121496720D01*
X187529029Y-121182717D01*
X187340205Y-120900122D01*
X187099878Y-120659795D01*
X186817283Y-120470971D01*
X186503280Y-120340907D01*
X186169937Y-120274600D01*
X185830063Y-120274600D01*
X185496720Y-120340907D01*
X185182717Y-120470971D01*
X184900122Y-120659795D01*
X184659795Y-120900122D01*
X184470971Y-121182717D01*
X184340907Y-121496720D01*
X184274600Y-121830063D01*
X182785738Y-121830063D01*
X182774466Y-121773395D01*
X182674554Y-121532188D01*
X182529505Y-121315107D01*
X182344893Y-121130495D01*
X182127812Y-120985446D01*
X181886605Y-120885534D01*
X181630541Y-120834600D01*
X181369459Y-120834600D01*
X181113395Y-120885534D01*
X180872188Y-120985446D01*
X180655107Y-121130495D01*
X180470495Y-121315107D01*
X180325446Y-121532188D01*
X180225534Y-121773395D01*
X180174600Y-122029459D01*
X128606014Y-122029459D01*
X128613606Y-122022814D01*
X128748549Y-121847287D01*
X128846656Y-121648807D01*
X128826184Y-121478600D01*
X128018600Y-121478600D01*
X127561400Y-121478600D01*
X126753816Y-121478600D01*
X126733344Y-121648807D01*
X126248813Y-121648807D01*
X126284073Y-121563682D01*
X126325400Y-121355918D01*
X126325400Y-121144082D01*
X126284073Y-120936318D01*
X126248814Y-120851193D01*
X126733344Y-120851193D01*
X126753816Y-121021400D01*
X127561400Y-121021400D01*
X127561400Y-120215404D01*
X128018600Y-120215404D01*
X128018600Y-121021400D01*
X128826184Y-121021400D01*
X128846656Y-120851193D01*
X128748549Y-120652713D01*
X128613606Y-120477186D01*
X128447012Y-120331358D01*
X128255170Y-120220833D01*
X128188806Y-120193355D01*
X128018600Y-120215404D01*
X127561400Y-120215404D01*
X127391194Y-120193355D01*
X127324830Y-120220833D01*
X127132988Y-120331358D01*
X126966394Y-120477186D01*
X126831451Y-120652713D01*
X126733344Y-120851193D01*
X126248814Y-120851193D01*
X126203007Y-120740607D01*
X126085317Y-120564473D01*
X125935527Y-120414683D01*
X125759393Y-120296993D01*
X125563682Y-120215927D01*
X125355918Y-120174600D01*
X125144082Y-120174600D01*
X124936318Y-120215927D01*
X124740607Y-120296993D01*
X124564473Y-120414683D01*
X124414683Y-120564473D01*
X124296993Y-120740607D01*
X124215927Y-120936318D01*
X124174600Y-121144082D01*
X123786490Y-121144082D01*
X123786490Y-120400000D01*
X123782138Y-120355814D01*
X123769249Y-120313326D01*
X123748320Y-120274169D01*
X123720153Y-120239847D01*
X123685831Y-120211680D01*
X123646674Y-120190751D01*
X123604186Y-120177862D01*
X123560000Y-120173510D01*
X121860000Y-120173510D01*
X121815814Y-120177862D01*
X121773326Y-120190751D01*
X121734169Y-120211680D01*
X121699847Y-120239847D01*
X121671680Y-120274169D01*
X121650751Y-120313326D01*
X121637862Y-120355814D01*
X121633510Y-120400000D01*
X114645944Y-120400000D01*
X114503280Y-120340907D01*
X114169937Y-120274600D01*
X113830063Y-120274600D01*
X113496720Y-120340907D01*
X113182717Y-120470971D01*
X112900122Y-120659795D01*
X112659795Y-120900122D01*
X112470971Y-121182717D01*
X112340907Y-121496720D01*
X112274600Y-121830063D01*
X110177400Y-121830063D01*
X110177400Y-115089912D01*
X148724600Y-115089912D01*
X148724600Y-115410088D01*
X148787063Y-115724112D01*
X148909589Y-116019916D01*
X149087469Y-116286132D01*
X149313868Y-116512531D01*
X149580084Y-116690411D01*
X149875888Y-116812937D01*
X150189912Y-116875400D01*
X150510088Y-116875400D01*
X150824112Y-116812937D01*
X151119916Y-116690411D01*
X151386132Y-116512531D01*
X151612531Y-116286132D01*
X151790411Y-116019916D01*
X151912937Y-115724112D01*
X151975400Y-115410088D01*
X151975400Y-115089912D01*
X174124600Y-115089912D01*
X174124600Y-115410088D01*
X174187063Y-115724112D01*
X174309589Y-116019916D01*
X174487469Y-116286132D01*
X174713868Y-116512531D01*
X174980084Y-116690411D01*
X175275888Y-116812937D01*
X175589912Y-116875400D01*
X175910088Y-116875400D01*
X176224112Y-116812937D01*
X176519916Y-116690411D01*
X176786132Y-116512531D01*
X177012531Y-116286132D01*
X177190411Y-116019916D01*
X177312937Y-115724112D01*
X177375400Y-115410088D01*
X177375400Y-115089912D01*
X177312937Y-114775888D01*
X177190411Y-114480084D01*
X177012531Y-114213868D01*
X176786132Y-113987469D01*
X176519916Y-113809589D01*
X176224112Y-113687063D01*
X175910088Y-113624600D01*
X175589912Y-113624600D01*
X175275888Y-113687063D01*
X174980084Y-113809589D01*
X174713868Y-113987469D01*
X174487469Y-114213868D01*
X174309589Y-114480084D01*
X174187063Y-114775888D01*
X174124600Y-115089912D01*
X151975400Y-115089912D01*
X151912937Y-114775888D01*
X151790411Y-114480084D01*
X151612531Y-114213868D01*
X151386132Y-113987469D01*
X151119916Y-113809589D01*
X150824112Y-113687063D01*
X150510088Y-113624600D01*
X150189912Y-113624600D01*
X149875888Y-113687063D01*
X149580084Y-113809589D01*
X149313868Y-113987469D01*
X149087469Y-114213868D01*
X148909589Y-114480084D01*
X148787063Y-114775888D01*
X148724600Y-115089912D01*
X110177400Y-115089912D01*
X110177400Y-113100000D01*
X117119248Y-113100000D01*
X117124643Y-113154772D01*
X117140619Y-113207439D01*
X117166563Y-113255977D01*
X117201478Y-113298522D01*
X117244023Y-113333437D01*
X117292561Y-113359381D01*
X117345228Y-113375357D01*
X117400000Y-113380752D01*
X118201550Y-113379400D01*
X118271400Y-113309550D01*
X118271400Y-112228600D01*
X118728600Y-112228600D01*
X118728600Y-113309550D01*
X118798450Y-113379400D01*
X119600000Y-113380752D01*
X119654772Y-113375357D01*
X119707439Y-113359381D01*
X119755977Y-113333437D01*
X119798522Y-113298522D01*
X119833437Y-113255977D01*
X119859381Y-113207439D01*
X119875357Y-113154772D01*
X119880752Y-113100000D01*
X180119248Y-113100000D01*
X180124643Y-113154772D01*
X180140619Y-113207439D01*
X180166563Y-113255977D01*
X180201478Y-113298522D01*
X180244023Y-113333437D01*
X180292561Y-113359381D01*
X180345228Y-113375357D01*
X180400000Y-113380752D01*
X181201550Y-113379400D01*
X181271400Y-113309550D01*
X181271400Y-112228600D01*
X181728600Y-112228600D01*
X181728600Y-113309550D01*
X181798450Y-113379400D01*
X182600000Y-113380752D01*
X182654772Y-113375357D01*
X182707439Y-113359381D01*
X182755977Y-113333437D01*
X182798522Y-113298522D01*
X182833437Y-113255977D01*
X182859381Y-113207439D01*
X182875357Y-113154772D01*
X182880752Y-113100000D01*
X182879400Y-112298450D01*
X182809550Y-112228600D01*
X181728600Y-112228600D01*
X181271400Y-112228600D01*
X180190450Y-112228600D01*
X180120600Y-112298450D01*
X180119248Y-113100000D01*
X119880752Y-113100000D01*
X119879400Y-112298450D01*
X119809550Y-112228600D01*
X118728600Y-112228600D01*
X118271400Y-112228600D01*
X117190450Y-112228600D01*
X117120600Y-112298450D01*
X117119248Y-113100000D01*
X110177400Y-113100000D01*
X110177400Y-111365766D01*
X112957523Y-111365766D01*
X113142601Y-111569026D01*
X113465177Y-111706148D01*
X113808307Y-111777704D01*
X114158803Y-111780943D01*
X114503197Y-111715742D01*
X114828253Y-111584606D01*
X114857399Y-111569026D01*
X115042477Y-111365766D01*
X114000000Y-110323289D01*
X112957523Y-111365766D01*
X110177400Y-111365766D01*
X110177400Y-110158803D01*
X112219057Y-110158803D01*
X112284258Y-110503197D01*
X112415394Y-110828253D01*
X112430974Y-110857399D01*
X112634234Y-111042477D01*
X113676711Y-110000000D01*
X114323289Y-110000000D01*
X115365766Y-111042477D01*
X115522239Y-110900000D01*
X117119248Y-110900000D01*
X117120600Y-111701550D01*
X117190450Y-111771400D01*
X118271400Y-111771400D01*
X118271400Y-110690450D01*
X118728600Y-110690450D01*
X118728600Y-111771400D01*
X119809550Y-111771400D01*
X119879400Y-111701550D01*
X119880752Y-110900000D01*
X180119248Y-110900000D01*
X180120600Y-111701550D01*
X180190450Y-111771400D01*
X181271400Y-111771400D01*
X181271400Y-110690450D01*
X181728600Y-110690450D01*
X181728600Y-111771400D01*
X182809550Y-111771400D01*
X182879400Y-111701550D01*
X182879966Y-111365766D01*
X184957523Y-111365766D01*
X185142601Y-111569026D01*
X185465177Y-111706148D01*
X185808307Y-111777704D01*
X186158803Y-111780943D01*
X186503197Y-111715742D01*
X186828253Y-111584606D01*
X186857399Y-111569026D01*
X187042477Y-111365766D01*
X186000000Y-110323289D01*
X184957523Y-111365766D01*
X182879966Y-111365766D01*
X182880752Y-110900000D01*
X182875357Y-110845228D01*
X182859381Y-110792561D01*
X182833437Y-110744023D01*
X182798522Y-110701478D01*
X182755977Y-110666563D01*
X182707439Y-110640619D01*
X182654772Y-110624643D01*
X182600000Y-110619248D01*
X181798450Y-110620600D01*
X181728600Y-110690450D01*
X181271400Y-110690450D01*
X181201550Y-110620600D01*
X180400000Y-110619248D01*
X180345228Y-110624643D01*
X180292561Y-110640619D01*
X180244023Y-110666563D01*
X180201478Y-110701478D01*
X180166563Y-110744023D01*
X180140619Y-110792561D01*
X180124643Y-110845228D01*
X180119248Y-110900000D01*
X119880752Y-110900000D01*
X119875357Y-110845228D01*
X119859381Y-110792561D01*
X119833437Y-110744023D01*
X119798522Y-110701478D01*
X119755977Y-110666563D01*
X119707439Y-110640619D01*
X119654772Y-110624643D01*
X119600000Y-110619248D01*
X118798450Y-110620600D01*
X118728600Y-110690450D01*
X118271400Y-110690450D01*
X118201550Y-110620600D01*
X117400000Y-110619248D01*
X117345228Y-110624643D01*
X117292561Y-110640619D01*
X117244023Y-110666563D01*
X117201478Y-110701478D01*
X117166563Y-110744023D01*
X117140619Y-110792561D01*
X117124643Y-110845228D01*
X117119248Y-110900000D01*
X115522239Y-110900000D01*
X115569026Y-110857399D01*
X115706148Y-110534823D01*
X115777704Y-110191693D01*
X115778007Y-110158803D01*
X184219057Y-110158803D01*
X184284258Y-110503197D01*
X184415394Y-110828253D01*
X184430974Y-110857399D01*
X184634234Y-111042477D01*
X185676711Y-110000000D01*
X186323289Y-110000000D01*
X187365766Y-111042477D01*
X187569026Y-110857399D01*
X187706148Y-110534823D01*
X187777704Y-110191693D01*
X187780943Y-109841197D01*
X187715742Y-109496803D01*
X187584606Y-109171747D01*
X187569026Y-109142601D01*
X187365766Y-108957523D01*
X186323289Y-110000000D01*
X185676711Y-110000000D01*
X184634234Y-108957523D01*
X184430974Y-109142601D01*
X184293852Y-109465177D01*
X184222296Y-109808307D01*
X184219057Y-110158803D01*
X115778007Y-110158803D01*
X115780943Y-109841197D01*
X115715742Y-109496803D01*
X115584606Y-109171747D01*
X115569026Y-109142601D01*
X115365766Y-108957523D01*
X114323289Y-110000000D01*
X113676711Y-110000000D01*
X112634234Y-108957523D01*
X112430974Y-109142601D01*
X112293852Y-109465177D01*
X112222296Y-109808307D01*
X112219057Y-110158803D01*
X110177400Y-110158803D01*
X110177400Y-108634234D01*
X112957523Y-108634234D01*
X114000000Y-109676711D01*
X115042477Y-108634234D01*
X114864333Y-108438589D01*
X117192174Y-108438589D01*
X117302868Y-108685306D01*
X117459567Y-108905687D01*
X117656249Y-109091263D01*
X117885356Y-109234902D01*
X118061413Y-109307817D01*
X118271400Y-109289443D01*
X118271400Y-108228600D01*
X118728600Y-108228600D01*
X118728600Y-109289443D01*
X118938587Y-109307817D01*
X119114644Y-109234902D01*
X119343751Y-109091263D01*
X119540433Y-108905687D01*
X119697132Y-108685306D01*
X119807826Y-108438589D01*
X119790485Y-108228600D01*
X118728600Y-108228600D01*
X118271400Y-108228600D01*
X117209515Y-108228600D01*
X117192174Y-108438589D01*
X114864333Y-108438589D01*
X114857399Y-108430974D01*
X114534823Y-108293852D01*
X114191693Y-108222296D01*
X113841197Y-108219057D01*
X113496803Y-108284258D01*
X113171747Y-108415394D01*
X113142601Y-108430974D01*
X112957523Y-108634234D01*
X110177400Y-108634234D01*
X110177400Y-107561411D01*
X117192174Y-107561411D01*
X117209515Y-107771400D01*
X118271400Y-107771400D01*
X118271400Y-106710557D01*
X118728600Y-106710557D01*
X118728600Y-107771400D01*
X119790485Y-107771400D01*
X119807826Y-107561411D01*
X119697132Y-107314694D01*
X119540433Y-107094313D01*
X119343751Y-106908737D01*
X119114644Y-106765098D01*
X118938587Y-106692183D01*
X118728600Y-106710557D01*
X118271400Y-106710557D01*
X118061413Y-106692183D01*
X117885356Y-106765098D01*
X117656249Y-106908737D01*
X117459567Y-107094313D01*
X117302868Y-107314694D01*
X117192174Y-107561411D01*
X110177400Y-107561411D01*
X110177400Y-106650000D01*
X121633510Y-106650000D01*
X121633510Y-108350000D01*
X121637862Y-108394186D01*
X121650751Y-108436674D01*
X121671680Y-108475831D01*
X121699847Y-108510153D01*
X121734169Y-108538320D01*
X121773326Y-108559249D01*
X121815814Y-108572138D01*
X121860000Y-108576490D01*
X123560000Y-108576490D01*
X123604186Y-108572138D01*
X123646674Y-108559249D01*
X123685831Y-108538320D01*
X123720153Y-108510153D01*
X123748320Y-108475831D01*
X123769249Y-108436674D01*
X123782138Y-108394186D01*
X123786490Y-108350000D01*
X123786490Y-107394082D01*
X124174600Y-107394082D01*
X124174600Y-107605918D01*
X124215927Y-107813682D01*
X124296993Y-108009393D01*
X124414683Y-108185527D01*
X124564473Y-108335317D01*
X124740607Y-108453007D01*
X124936318Y-108534073D01*
X125144082Y-108575400D01*
X125355918Y-108575400D01*
X125563682Y-108534073D01*
X125759393Y-108453007D01*
X125935527Y-108335317D01*
X126085317Y-108185527D01*
X126203007Y-108009393D01*
X126248813Y-107898807D01*
X126733344Y-107898807D01*
X126831451Y-108097287D01*
X126966394Y-108272814D01*
X127132988Y-108418642D01*
X127324830Y-108529167D01*
X127391194Y-108556645D01*
X127561400Y-108534596D01*
X127561400Y-107728600D01*
X128018600Y-107728600D01*
X128018600Y-108534596D01*
X128188806Y-108556645D01*
X128255170Y-108529167D01*
X128412389Y-108438589D01*
X180192174Y-108438589D01*
X180302868Y-108685306D01*
X180459567Y-108905687D01*
X180656249Y-109091263D01*
X180885356Y-109234902D01*
X181061413Y-109307817D01*
X181271400Y-109289443D01*
X181271400Y-108228600D01*
X181728600Y-108228600D01*
X181728600Y-109289443D01*
X181938587Y-109307817D01*
X182114644Y-109234902D01*
X182343751Y-109091263D01*
X182540433Y-108905687D01*
X182697132Y-108685306D01*
X182720046Y-108634234D01*
X184957523Y-108634234D01*
X186000000Y-109676711D01*
X187042477Y-108634234D01*
X186857399Y-108430974D01*
X186534823Y-108293852D01*
X186191693Y-108222296D01*
X185841197Y-108219057D01*
X185496803Y-108284258D01*
X185171747Y-108415394D01*
X185142601Y-108430974D01*
X184957523Y-108634234D01*
X182720046Y-108634234D01*
X182807826Y-108438589D01*
X182790485Y-108228600D01*
X181728600Y-108228600D01*
X181271400Y-108228600D01*
X180209515Y-108228600D01*
X180192174Y-108438589D01*
X128412389Y-108438589D01*
X128447012Y-108418642D01*
X128613606Y-108272814D01*
X128748549Y-108097287D01*
X128846656Y-107898807D01*
X128826184Y-107728600D01*
X128018600Y-107728600D01*
X127561400Y-107728600D01*
X126753816Y-107728600D01*
X126733344Y-107898807D01*
X126248813Y-107898807D01*
X126284073Y-107813682D01*
X126325400Y-107605918D01*
X126325400Y-107561411D01*
X180192174Y-107561411D01*
X180209515Y-107771400D01*
X181271400Y-107771400D01*
X181271400Y-106710557D01*
X181728600Y-106710557D01*
X181728600Y-107771400D01*
X182790485Y-107771400D01*
X182807826Y-107561411D01*
X182697132Y-107314694D01*
X182540433Y-107094313D01*
X182343751Y-106908737D01*
X182114644Y-106765098D01*
X181938587Y-106692183D01*
X181728600Y-106710557D01*
X181271400Y-106710557D01*
X181061413Y-106692183D01*
X180885356Y-106765098D01*
X180656249Y-106908737D01*
X180459567Y-107094313D01*
X180302868Y-107314694D01*
X180192174Y-107561411D01*
X126325400Y-107561411D01*
X126325400Y-107394082D01*
X126284073Y-107186318D01*
X126248814Y-107101193D01*
X126733344Y-107101193D01*
X126753816Y-107271400D01*
X127561400Y-107271400D01*
X127561400Y-106465404D01*
X128018600Y-106465404D01*
X128018600Y-107271400D01*
X128826184Y-107271400D01*
X128846656Y-107101193D01*
X128748549Y-106902713D01*
X128613606Y-106727186D01*
X128447012Y-106581358D01*
X128255170Y-106470833D01*
X128188806Y-106443355D01*
X128018600Y-106465404D01*
X127561400Y-106465404D01*
X127391194Y-106443355D01*
X127324830Y-106470833D01*
X127132988Y-106581358D01*
X126966394Y-106727186D01*
X126831451Y-106902713D01*
X126733344Y-107101193D01*
X126248814Y-107101193D01*
X126203007Y-106990607D01*
X126085317Y-106814473D01*
X125935527Y-106664683D01*
X125759393Y-106546993D01*
X125563682Y-106465927D01*
X125355918Y-106424600D01*
X125144082Y-106424600D01*
X124936318Y-106465927D01*
X124740607Y-106546993D01*
X124564473Y-106664683D01*
X124414683Y-106814473D01*
X124296993Y-106990607D01*
X124215927Y-107186318D01*
X124174600Y-107394082D01*
X123786490Y-107394082D01*
X123786490Y-106650000D01*
X123782138Y-106605814D01*
X123769249Y-106563326D01*
X123748320Y-106524169D01*
X123720153Y-106489847D01*
X123685831Y-106461680D01*
X123646674Y-106440751D01*
X123604186Y-106427862D01*
X123560000Y-106423510D01*
X121860000Y-106423510D01*
X121815814Y-106427862D01*
X121773326Y-106440751D01*
X121734169Y-106461680D01*
X121699847Y-106489847D01*
X121671680Y-106524169D01*
X121650751Y-106563326D01*
X121637862Y-106605814D01*
X121633510Y-106650000D01*
X110177400Y-106650000D01*
X110177400Y-104589912D01*
X148724600Y-104589912D01*
X148724600Y-104910088D01*
X148787063Y-105224112D01*
X148909589Y-105519916D01*
X149087469Y-105786132D01*
X149313868Y-106012531D01*
X149580084Y-106190411D01*
X149875888Y-106312937D01*
X150189912Y-106375400D01*
X150510088Y-106375400D01*
X150824112Y-106312937D01*
X151119916Y-106190411D01*
X151386132Y-106012531D01*
X151612531Y-105786132D01*
X151790411Y-105519916D01*
X151912937Y-105224112D01*
X151975400Y-104910088D01*
X151975400Y-104589912D01*
X174124600Y-104589912D01*
X174124600Y-104910088D01*
X174187063Y-105224112D01*
X174309589Y-105519916D01*
X174487469Y-105786132D01*
X174713868Y-106012531D01*
X174980084Y-106190411D01*
X175275888Y-106312937D01*
X175589912Y-106375400D01*
X175910088Y-106375400D01*
X176224112Y-106312937D01*
X176519916Y-106190411D01*
X176786132Y-106012531D01*
X177012531Y-105786132D01*
X177190411Y-105519916D01*
X177312937Y-105224112D01*
X177375400Y-104910088D01*
X177375400Y-104589912D01*
X177312937Y-104275888D01*
X177190411Y-103980084D01*
X177012531Y-103713868D01*
X176786132Y-103487469D01*
X176519916Y-103309589D01*
X176224112Y-103187063D01*
X175910088Y-103124600D01*
X175589912Y-103124600D01*
X175275888Y-103187063D01*
X174980084Y-103309589D01*
X174713868Y-103487469D01*
X174487469Y-103713868D01*
X174309589Y-103980084D01*
X174187063Y-104275888D01*
X174124600Y-104589912D01*
X151975400Y-104589912D01*
X151912937Y-104275888D01*
X151790411Y-103980084D01*
X151612531Y-103713868D01*
X151386132Y-103487469D01*
X151119916Y-103309589D01*
X150824112Y-103187063D01*
X150510088Y-103124600D01*
X150189912Y-103124600D01*
X149875888Y-103187063D01*
X149580084Y-103309589D01*
X149313868Y-103487469D01*
X149087469Y-103713868D01*
X148909589Y-103980084D01*
X148787063Y-104275888D01*
X148724600Y-104589912D01*
X110177400Y-104589912D01*
X110177400Y-97830063D01*
X112274600Y-97830063D01*
X112274600Y-98169937D01*
X112340907Y-98503280D01*
X112470971Y-98817283D01*
X112659795Y-99099878D01*
X112900122Y-99340205D01*
X113182717Y-99529029D01*
X113496720Y-99659093D01*
X113830063Y-99725400D01*
X114169937Y-99725400D01*
X114503280Y-99659093D01*
X114817283Y-99529029D01*
X115099878Y-99340205D01*
X115340205Y-99099878D01*
X115529029Y-98817283D01*
X115659093Y-98503280D01*
X115725400Y-98169937D01*
X115725400Y-97830063D01*
X115659093Y-97496720D01*
X115529029Y-97182717D01*
X115340205Y-96900122D01*
X115180083Y-96740000D01*
X117173510Y-96740000D01*
X117173510Y-98940000D01*
X117177862Y-98984186D01*
X117190751Y-99026674D01*
X117211680Y-99065831D01*
X117239847Y-99100153D01*
X117274169Y-99128320D01*
X117313326Y-99149249D01*
X117355814Y-99162138D01*
X117400000Y-99166490D01*
X119600000Y-99166490D01*
X119644186Y-99162138D01*
X119686674Y-99149249D01*
X119725831Y-99128320D01*
X119760153Y-99100153D01*
X119788320Y-99065831D01*
X119809249Y-99026674D01*
X119822138Y-98984186D01*
X119826490Y-98940000D01*
X119826490Y-96740000D01*
X180173510Y-96740000D01*
X180173510Y-98940000D01*
X180177862Y-98984186D01*
X180190751Y-99026674D01*
X180211680Y-99065831D01*
X180239847Y-99100153D01*
X180274169Y-99128320D01*
X180313326Y-99149249D01*
X180355814Y-99162138D01*
X180400000Y-99166490D01*
X182600000Y-99166490D01*
X182644186Y-99162138D01*
X182686674Y-99149249D01*
X182725831Y-99128320D01*
X182760153Y-99100153D01*
X182788320Y-99065831D01*
X182809249Y-99026674D01*
X182822138Y-98984186D01*
X182826490Y-98940000D01*
X182826490Y-97830063D01*
X184274600Y-97830063D01*
X184274600Y-98169937D01*
X184340907Y-98503280D01*
X184470971Y-98817283D01*
X184659795Y-99099878D01*
X184900122Y-99340205D01*
X185182717Y-99529029D01*
X185496720Y-99659093D01*
X185830063Y-99725400D01*
X186169937Y-99725400D01*
X186503280Y-99659093D01*
X186817283Y-99529029D01*
X187099878Y-99340205D01*
X187340205Y-99099878D01*
X187529029Y-98817283D01*
X187659093Y-98503280D01*
X187725400Y-98169937D01*
X187725400Y-97830063D01*
X187659093Y-97496720D01*
X187529029Y-97182717D01*
X187340205Y-96900122D01*
X187099878Y-96659795D01*
X186817283Y-96470971D01*
X186503280Y-96340907D01*
X186169937Y-96274600D01*
X185830063Y-96274600D01*
X185496720Y-96340907D01*
X185182717Y-96470971D01*
X184900122Y-96659795D01*
X184659795Y-96900122D01*
X184470971Y-97182717D01*
X184340907Y-97496720D01*
X184274600Y-97830063D01*
X182826490Y-97830063D01*
X182826490Y-96740000D01*
X182822138Y-96695814D01*
X182809249Y-96653326D01*
X182788320Y-96614169D01*
X182760153Y-96579847D01*
X182725831Y-96551680D01*
X182686674Y-96530751D01*
X182644186Y-96517862D01*
X182600000Y-96513510D01*
X180400000Y-96513510D01*
X180355814Y-96517862D01*
X180313326Y-96530751D01*
X180274169Y-96551680D01*
X180239847Y-96579847D01*
X180211680Y-96614169D01*
X180190751Y-96653326D01*
X180177862Y-96695814D01*
X180173510Y-96740000D01*
X119826490Y-96740000D01*
X119822138Y-96695814D01*
X119809249Y-96653326D01*
X119788320Y-96614169D01*
X119760153Y-96579847D01*
X119725831Y-96551680D01*
X119686674Y-96530751D01*
X119644186Y-96517862D01*
X119600000Y-96513510D01*
X117400000Y-96513510D01*
X117355814Y-96517862D01*
X117313326Y-96530751D01*
X117274169Y-96551680D01*
X117239847Y-96579847D01*
X117211680Y-96614169D01*
X117190751Y-96653326D01*
X117177862Y-96695814D01*
X117173510Y-96740000D01*
X115180083Y-96740000D01*
X115099878Y-96659795D01*
X114817283Y-96470971D01*
X114503280Y-96340907D01*
X114169937Y-96274600D01*
X113830063Y-96274600D01*
X113496720Y-96340907D01*
X113182717Y-96470971D01*
X112900122Y-96659795D01*
X112659795Y-96900122D01*
X112470971Y-97182717D01*
X112340907Y-97496720D01*
X112274600Y-97830063D01*
X110177400Y-97830063D01*
X110177400Y-94860753D01*
X123462536Y-94860753D01*
X123561737Y-94992136D01*
X123763714Y-95058573D01*
X123974771Y-95084331D01*
X124186799Y-95068418D01*
X124391647Y-95011446D01*
X124438263Y-94992136D01*
X124537464Y-94860753D01*
X132962536Y-94860753D01*
X133061737Y-94992136D01*
X133263714Y-95058573D01*
X133474771Y-95084331D01*
X133686799Y-95068418D01*
X133891647Y-95011446D01*
X133938263Y-94992136D01*
X134037464Y-94860753D01*
X133500000Y-94323289D01*
X132962536Y-94860753D01*
X124537464Y-94860753D01*
X124000000Y-94323289D01*
X123462536Y-94860753D01*
X110177400Y-94860753D01*
X110177400Y-93974771D01*
X122915669Y-93974771D01*
X122931582Y-94186799D01*
X122988554Y-94391647D01*
X123007864Y-94438263D01*
X123139247Y-94537464D01*
X123676711Y-94000000D01*
X124323289Y-94000000D01*
X124860753Y-94537464D01*
X124992136Y-94438263D01*
X125058573Y-94236286D01*
X125084331Y-94025229D01*
X125080545Y-93974771D01*
X132415669Y-93974771D01*
X132431582Y-94186799D01*
X132488554Y-94391647D01*
X132507864Y-94438263D01*
X132639247Y-94537464D01*
X133176711Y-94000000D01*
X133823289Y-94000000D01*
X134360753Y-94537464D01*
X134492136Y-94438263D01*
X134558573Y-94236286D01*
X134584331Y-94025229D01*
X134568418Y-93813201D01*
X134511446Y-93608353D01*
X134492136Y-93561737D01*
X134360753Y-93462536D01*
X133823289Y-94000000D01*
X133176711Y-94000000D01*
X132639247Y-93462536D01*
X132507864Y-93561737D01*
X132441427Y-93763714D01*
X132415669Y-93974771D01*
X125080545Y-93974771D01*
X125068418Y-93813201D01*
X125011446Y-93608353D01*
X124992136Y-93561737D01*
X124860753Y-93462536D01*
X124323289Y-94000000D01*
X123676711Y-94000000D01*
X123139247Y-93462536D01*
X123007864Y-93561737D01*
X122941427Y-93763714D01*
X122915669Y-93974771D01*
X110177400Y-93974771D01*
X110177400Y-90508673D01*
X110211329Y-90162628D01*
X110574600Y-90162628D01*
X110574600Y-90837372D01*
X110706236Y-91499152D01*
X110964450Y-92122535D01*
X111339318Y-92683565D01*
X111816435Y-93160682D01*
X112377465Y-93535550D01*
X113000848Y-93793764D01*
X113662628Y-93925400D01*
X114337372Y-93925400D01*
X114999152Y-93793764D01*
X115622535Y-93535550D01*
X116183565Y-93160682D01*
X116205000Y-93139247D01*
X123462536Y-93139247D01*
X124000000Y-93676711D01*
X124537464Y-93139247D01*
X132962536Y-93139247D01*
X133500000Y-93676711D01*
X134037464Y-93139247D01*
X133938263Y-93007864D01*
X133736286Y-92941427D01*
X133525229Y-92915669D01*
X133313201Y-92931582D01*
X133108353Y-92988554D01*
X133061737Y-93007864D01*
X132962536Y-93139247D01*
X124537464Y-93139247D01*
X124438263Y-93007864D01*
X124236286Y-92941427D01*
X124025229Y-92915669D01*
X123813201Y-92931582D01*
X123608353Y-92988554D01*
X123561737Y-93007864D01*
X123462536Y-93139247D01*
X116205000Y-93139247D01*
X116449609Y-92894638D01*
X149282100Y-92894638D01*
X149282100Y-93105361D01*
X149299144Y-93278408D01*
X149366497Y-93500443D01*
X149475873Y-93705071D01*
X149623069Y-93884431D01*
X149802428Y-94031627D01*
X150007056Y-94141003D01*
X150229091Y-94208356D01*
X150460000Y-94231099D01*
X150690908Y-94208356D01*
X150912943Y-94141003D01*
X151117571Y-94031627D01*
X151296931Y-93884431D01*
X151444127Y-93705072D01*
X151553503Y-93500444D01*
X151620856Y-93278409D01*
X151637900Y-93105362D01*
X151637900Y-92894639D01*
X151637900Y-92894638D01*
X151822100Y-92894638D01*
X151822100Y-93105361D01*
X151839144Y-93278408D01*
X151906497Y-93500443D01*
X152015873Y-93705071D01*
X152163069Y-93884431D01*
X152342428Y-94031627D01*
X152547056Y-94141003D01*
X152769091Y-94208356D01*
X153000000Y-94231099D01*
X153230908Y-94208356D01*
X153452943Y-94141003D01*
X153657571Y-94031627D01*
X153836931Y-93884431D01*
X153984127Y-93705072D01*
X154093503Y-93500444D01*
X154160856Y-93278409D01*
X154177900Y-93105362D01*
X154177900Y-92894639D01*
X154160856Y-92721592D01*
X154093503Y-92499557D01*
X153984127Y-92294929D01*
X153836931Y-92115569D01*
X153696110Y-92000000D01*
X154361010Y-92000000D01*
X154361010Y-94000000D01*
X154365362Y-94044186D01*
X154378251Y-94086674D01*
X154399180Y-94125831D01*
X154427347Y-94160153D01*
X154461669Y-94188320D01*
X154500826Y-94209249D01*
X154543314Y-94222138D01*
X154587500Y-94226490D01*
X156492500Y-94226490D01*
X156536686Y-94222138D01*
X156579174Y-94209249D01*
X156618331Y-94188320D01*
X156652653Y-94160153D01*
X156680820Y-94125831D01*
X156701749Y-94086674D01*
X156714638Y-94044186D01*
X156718990Y-94000000D01*
X156718990Y-92894638D01*
X161282100Y-92894638D01*
X161282100Y-93105361D01*
X161299144Y-93278408D01*
X161366497Y-93500443D01*
X161475873Y-93705071D01*
X161623069Y-93884431D01*
X161802428Y-94031627D01*
X162007056Y-94141003D01*
X162229091Y-94208356D01*
X162460000Y-94231099D01*
X162690908Y-94208356D01*
X162912943Y-94141003D01*
X163117571Y-94031627D01*
X163296931Y-93884431D01*
X163444127Y-93705072D01*
X163553503Y-93500444D01*
X163620856Y-93278409D01*
X163637900Y-93105362D01*
X163637900Y-92894639D01*
X163637900Y-92894638D01*
X163822100Y-92894638D01*
X163822100Y-93105361D01*
X163839144Y-93278408D01*
X163906497Y-93500443D01*
X164015873Y-93705071D01*
X164163069Y-93884431D01*
X164342428Y-94031627D01*
X164547056Y-94141003D01*
X164769091Y-94208356D01*
X165000000Y-94231099D01*
X165230908Y-94208356D01*
X165452943Y-94141003D01*
X165657571Y-94031627D01*
X165836931Y-93884431D01*
X165984127Y-93705072D01*
X166093503Y-93500444D01*
X166160856Y-93278409D01*
X166177900Y-93105362D01*
X166177900Y-92894639D01*
X166160856Y-92721592D01*
X166093503Y-92499557D01*
X165984127Y-92294929D01*
X165836931Y-92115569D01*
X165696110Y-92000000D01*
X166361010Y-92000000D01*
X166361010Y-94000000D01*
X166365362Y-94044186D01*
X166378251Y-94086674D01*
X166399180Y-94125831D01*
X166427347Y-94160153D01*
X166461669Y-94188320D01*
X166500826Y-94209249D01*
X166543314Y-94222138D01*
X166587500Y-94226490D01*
X168492500Y-94226490D01*
X168536686Y-94222138D01*
X168579174Y-94209249D01*
X168618331Y-94188320D01*
X168652653Y-94160153D01*
X168680820Y-94125831D01*
X168701749Y-94086674D01*
X168714638Y-94044186D01*
X168718990Y-94000000D01*
X168718990Y-92000000D01*
X168714638Y-91955814D01*
X168701749Y-91913326D01*
X168680820Y-91874169D01*
X168652653Y-91839847D01*
X168618331Y-91811680D01*
X168579174Y-91790751D01*
X168536686Y-91777862D01*
X168492500Y-91773510D01*
X166587500Y-91773510D01*
X166543314Y-91777862D01*
X166500826Y-91790751D01*
X166461669Y-91811680D01*
X166427347Y-91839847D01*
X166399180Y-91874169D01*
X166378251Y-91913326D01*
X166365362Y-91955814D01*
X166361010Y-92000000D01*
X165696110Y-92000000D01*
X165657572Y-91968373D01*
X165452944Y-91858997D01*
X165230909Y-91791644D01*
X165000000Y-91768901D01*
X164769092Y-91791644D01*
X164547057Y-91858997D01*
X164342429Y-91968373D01*
X164163069Y-92115569D01*
X164015873Y-92294928D01*
X163906497Y-92499556D01*
X163839144Y-92721591D01*
X163822100Y-92894638D01*
X163637900Y-92894638D01*
X163620856Y-92721592D01*
X163553503Y-92499557D01*
X163444127Y-92294929D01*
X163296931Y-92115569D01*
X163117572Y-91968373D01*
X162912944Y-91858997D01*
X162690909Y-91791644D01*
X162460000Y-91768901D01*
X162229092Y-91791644D01*
X162007057Y-91858997D01*
X161802429Y-91968373D01*
X161623069Y-92115569D01*
X161475873Y-92294928D01*
X161366497Y-92499556D01*
X161299144Y-92721591D01*
X161282100Y-92894638D01*
X156718990Y-92894638D01*
X156718990Y-92000000D01*
X156714638Y-91955814D01*
X156701749Y-91913326D01*
X156680820Y-91874169D01*
X156652653Y-91839847D01*
X156618331Y-91811680D01*
X156579174Y-91790751D01*
X156536686Y-91777862D01*
X156492500Y-91773510D01*
X154587500Y-91773510D01*
X154543314Y-91777862D01*
X154500826Y-91790751D01*
X154461669Y-91811680D01*
X154427347Y-91839847D01*
X154399180Y-91874169D01*
X154378251Y-91913326D01*
X154365362Y-91955814D01*
X154361010Y-92000000D01*
X153696110Y-92000000D01*
X153657572Y-91968373D01*
X153452944Y-91858997D01*
X153230909Y-91791644D01*
X153000000Y-91768901D01*
X152769092Y-91791644D01*
X152547057Y-91858997D01*
X152342429Y-91968373D01*
X152163069Y-92115569D01*
X152015873Y-92294928D01*
X151906497Y-92499556D01*
X151839144Y-92721591D01*
X151822100Y-92894638D01*
X151637900Y-92894638D01*
X151620856Y-92721592D01*
X151553503Y-92499557D01*
X151444127Y-92294929D01*
X151296931Y-92115569D01*
X151117572Y-91968373D01*
X150912944Y-91858997D01*
X150690909Y-91791644D01*
X150460000Y-91768901D01*
X150229092Y-91791644D01*
X150007057Y-91858997D01*
X149802429Y-91968373D01*
X149623069Y-92115569D01*
X149475873Y-92294928D01*
X149366497Y-92499556D01*
X149299144Y-92721591D01*
X149282100Y-92894638D01*
X116449609Y-92894638D01*
X116660682Y-92683565D01*
X117035550Y-92122535D01*
X117293764Y-91499152D01*
X117425400Y-90837372D01*
X117425400Y-90162628D01*
X117333378Y-89700000D01*
X122973510Y-89700000D01*
X122973510Y-91300000D01*
X122977862Y-91344186D01*
X122990751Y-91386674D01*
X123011680Y-91425831D01*
X123039847Y-91460153D01*
X123074169Y-91488320D01*
X123113326Y-91509249D01*
X123155814Y-91522138D01*
X123200000Y-91526490D01*
X124800000Y-91526490D01*
X124844186Y-91522138D01*
X124886674Y-91509249D01*
X124925831Y-91488320D01*
X124960153Y-91460153D01*
X124988320Y-91425831D01*
X125009249Y-91386674D01*
X125022138Y-91344186D01*
X125026490Y-91300000D01*
X125026490Y-89700000D01*
X132473510Y-89700000D01*
X132473510Y-91300000D01*
X132477862Y-91344186D01*
X132490751Y-91386674D01*
X132511680Y-91425831D01*
X132539847Y-91460153D01*
X132574169Y-91488320D01*
X132613326Y-91509249D01*
X132655814Y-91522138D01*
X132700000Y-91526490D01*
X134300000Y-91526490D01*
X134344186Y-91522138D01*
X134386674Y-91509249D01*
X134425831Y-91488320D01*
X134460153Y-91460153D01*
X134488320Y-91425831D01*
X134509249Y-91386674D01*
X134522138Y-91344186D01*
X134526490Y-91300000D01*
X134526490Y-90162628D01*
X182574600Y-90162628D01*
X182574600Y-90837372D01*
X182706236Y-91499152D01*
X182964450Y-92122535D01*
X183339318Y-92683565D01*
X183816435Y-93160682D01*
X184377465Y-93535550D01*
X185000848Y-93793764D01*
X185662628Y-93925400D01*
X186337372Y-93925400D01*
X186999152Y-93793764D01*
X187622535Y-93535550D01*
X188183565Y-93160682D01*
X188660682Y-92683565D01*
X189035550Y-92122535D01*
X189293764Y-91499152D01*
X189425400Y-90837372D01*
X189425400Y-90162628D01*
X189293764Y-89500848D01*
X189035550Y-88877465D01*
X188660682Y-88316435D01*
X188183565Y-87839318D01*
X187622535Y-87464450D01*
X186999152Y-87206236D01*
X186337372Y-87074600D01*
X185662628Y-87074600D01*
X185000848Y-87206236D01*
X184377465Y-87464450D01*
X183816435Y-87839318D01*
X183339318Y-88316435D01*
X182964450Y-88877465D01*
X182706236Y-89500848D01*
X182574600Y-90162628D01*
X134526490Y-90162628D01*
X134526490Y-89700000D01*
X134522138Y-89655814D01*
X134509249Y-89613326D01*
X134488320Y-89574169D01*
X134460153Y-89539847D01*
X134425831Y-89511680D01*
X134386674Y-89490751D01*
X134344186Y-89477862D01*
X134300000Y-89473510D01*
X132700000Y-89473510D01*
X132655814Y-89477862D01*
X132613326Y-89490751D01*
X132574169Y-89511680D01*
X132539847Y-89539847D01*
X132511680Y-89574169D01*
X132490751Y-89613326D01*
X132477862Y-89655814D01*
X132473510Y-89700000D01*
X125026490Y-89700000D01*
X125022138Y-89655814D01*
X125009249Y-89613326D01*
X124988320Y-89574169D01*
X124960153Y-89539847D01*
X124925831Y-89511680D01*
X124886674Y-89490751D01*
X124844186Y-89477862D01*
X124800000Y-89473510D01*
X123200000Y-89473510D01*
X123155814Y-89477862D01*
X123113326Y-89490751D01*
X123074169Y-89511680D01*
X123039847Y-89539847D01*
X123011680Y-89574169D01*
X122990751Y-89613326D01*
X122977862Y-89655814D01*
X122973510Y-89700000D01*
X117333378Y-89700000D01*
X117293764Y-89500848D01*
X117035550Y-88877465D01*
X116660682Y-88316435D01*
X116183565Y-87839318D01*
X115622535Y-87464450D01*
X114999152Y-87206236D01*
X114337372Y-87074600D01*
X113662628Y-87074600D01*
X113000848Y-87206236D01*
X112377465Y-87464450D01*
X111816435Y-87839318D01*
X111339318Y-88316435D01*
X110964450Y-88877465D01*
X110706236Y-89500848D01*
X110574600Y-90162628D01*
X110211329Y-90162628D01*
X110251035Y-89757684D01*
X110466616Y-89043646D01*
X110816784Y-88385076D01*
X111288198Y-87807065D01*
X111862903Y-87331628D01*
X112519016Y-86976869D01*
X113231533Y-86756308D01*
X113981678Y-86677465D01*
X114000328Y-86677400D01*
X185991327Y-86677400D01*
X186742316Y-86751035D01*
G37*
X186742316Y-86751035D02*
X187456354Y-86966616D01*
X188114924Y-87316784D01*
X188692935Y-87788198D01*
X189168372Y-88362903D01*
X189523131Y-89019016D01*
X189743692Y-89731533D01*
X189822535Y-90481678D01*
X189822600Y-90500328D01*
X189822601Y-115991279D01*
X189822600Y-115991289D01*
X189822601Y-129491317D01*
X189748966Y-130242311D01*
X189533385Y-130956351D01*
X189183216Y-131614924D01*
X188711802Y-132192935D01*
X188137097Y-132668372D01*
X187480984Y-133023131D01*
X186768470Y-133243691D01*
X186018323Y-133322535D01*
X185999672Y-133322600D01*
X114008673Y-133322600D01*
X113257689Y-133248966D01*
X112543649Y-133033385D01*
X111885076Y-132683216D01*
X111307065Y-132211802D01*
X110831628Y-131637097D01*
X110476869Y-130980984D01*
X110256309Y-130268470D01*
X110177465Y-129518323D01*
X110177400Y-129499672D01*
X110177400Y-129162628D01*
X110574600Y-129162628D01*
X110574600Y-129837372D01*
X110706236Y-130499152D01*
X110964450Y-131122535D01*
X111339318Y-131683565D01*
X111816435Y-132160682D01*
X112377465Y-132535550D01*
X113000848Y-132793764D01*
X113662628Y-132925400D01*
X114337372Y-132925400D01*
X114999152Y-132793764D01*
X115622535Y-132535550D01*
X116183565Y-132160682D01*
X116660682Y-131683565D01*
X117035550Y-131122535D01*
X117293764Y-130499152D01*
X117425400Y-129837372D01*
X117425400Y-129399007D01*
X122974600Y-129399007D01*
X122974600Y-129600993D01*
X123014006Y-129799098D01*
X123091303Y-129985709D01*
X123203520Y-130153654D01*
X123346346Y-130296480D01*
X123514291Y-130408697D01*
X123700902Y-130485994D01*
X123899007Y-130525400D01*
X124100993Y-130525400D01*
X124299098Y-130485994D01*
X124485709Y-130408697D01*
X124653654Y-130296480D01*
X124796480Y-130153654D01*
X124908697Y-129985709D01*
X124985994Y-129799098D01*
X125025400Y-129600993D01*
X125025400Y-129399007D01*
X132474600Y-129399007D01*
X132474600Y-129600993D01*
X132514006Y-129799098D01*
X132591303Y-129985709D01*
X132703520Y-130153654D01*
X132846346Y-130296480D01*
X133014291Y-130408697D01*
X133200902Y-130485994D01*
X133399007Y-130525400D01*
X133600993Y-130525400D01*
X133799098Y-130485994D01*
X133985709Y-130408697D01*
X134153654Y-130296480D01*
X134296480Y-130153654D01*
X134408697Y-129985709D01*
X134485994Y-129799098D01*
X134525400Y-129600993D01*
X134525400Y-129399007D01*
X134485994Y-129200902D01*
X134470141Y-129162628D01*
X182574600Y-129162628D01*
X182574600Y-129837372D01*
X182706236Y-130499152D01*
X182964450Y-131122535D01*
X183339318Y-131683565D01*
X183816435Y-132160682D01*
X184377465Y-132535550D01*
X185000848Y-132793764D01*
X185662628Y-132925400D01*
X186337372Y-132925400D01*
X186999152Y-132793764D01*
X187622535Y-132535550D01*
X188183565Y-132160682D01*
X188660682Y-131683565D01*
X189035550Y-131122535D01*
X189293764Y-130499152D01*
X189425400Y-129837372D01*
X189425400Y-129162628D01*
X189293764Y-128500848D01*
X189035550Y-127877465D01*
X188660682Y-127316435D01*
X188183565Y-126839318D01*
X187622535Y-126464450D01*
X186999152Y-126206236D01*
X186337372Y-126074600D01*
X185662628Y-126074600D01*
X185000848Y-126206236D01*
X184377465Y-126464450D01*
X183816435Y-126839318D01*
X183339318Y-127316435D01*
X182964450Y-127877465D01*
X182706236Y-128500848D01*
X182574600Y-129162628D01*
X134470141Y-129162628D01*
X134408697Y-129014291D01*
X134296480Y-128846346D01*
X134153654Y-128703520D01*
X133985709Y-128591303D01*
X133799098Y-128514006D01*
X133600993Y-128474600D01*
X133399007Y-128474600D01*
X133200902Y-128514006D01*
X133014291Y-128591303D01*
X132846346Y-128703520D01*
X132703520Y-128846346D01*
X132591303Y-129014291D01*
X132514006Y-129200902D01*
X132474600Y-129399007D01*
X125025400Y-129399007D01*
X124985994Y-129200902D01*
X124908697Y-129014291D01*
X124796480Y-128846346D01*
X124653654Y-128703520D01*
X124485709Y-128591303D01*
X124299098Y-128514006D01*
X124100993Y-128474600D01*
X123899007Y-128474600D01*
X123700902Y-128514006D01*
X123514291Y-128591303D01*
X123346346Y-128703520D01*
X123203520Y-128846346D01*
X123091303Y-129014291D01*
X123014006Y-129200902D01*
X122974600Y-129399007D01*
X117425400Y-129399007D01*
X117425400Y-129162628D01*
X117293764Y-128500848D01*
X117035550Y-127877465D01*
X116660682Y-127316435D01*
X116183565Y-126839318D01*
X116124722Y-126800000D01*
X122919248Y-126800000D01*
X122924643Y-126854772D01*
X122940619Y-126907439D01*
X122966563Y-126955977D01*
X123001478Y-126998522D01*
X123044023Y-127033437D01*
X123092561Y-127059381D01*
X123145228Y-127075357D01*
X123200000Y-127080752D01*
X123701550Y-127079400D01*
X123771400Y-127009550D01*
X123771400Y-126228600D01*
X124228600Y-126228600D01*
X124228600Y-127009550D01*
X124298450Y-127079400D01*
X124800000Y-127080752D01*
X124854772Y-127075357D01*
X124907439Y-127059381D01*
X124955977Y-127033437D01*
X124998522Y-126998522D01*
X125033437Y-126955977D01*
X125059381Y-126907439D01*
X125075357Y-126854772D01*
X125080752Y-126800000D01*
X132419248Y-126800000D01*
X132424643Y-126854772D01*
X132440619Y-126907439D01*
X132466563Y-126955977D01*
X132501478Y-126998522D01*
X132544023Y-127033437D01*
X132592561Y-127059381D01*
X132645228Y-127075357D01*
X132700000Y-127080752D01*
X133201550Y-127079400D01*
X133271400Y-127009550D01*
X133271400Y-126228600D01*
X133728600Y-126228600D01*
X133728600Y-127009550D01*
X133798450Y-127079400D01*
X134300000Y-127080752D01*
X134354772Y-127075357D01*
X134407439Y-127059381D01*
X134455977Y-127033437D01*
X134498522Y-126998522D01*
X134533437Y-126955977D01*
X134559381Y-126907439D01*
X134575357Y-126854772D01*
X134580752Y-126800000D01*
X134579400Y-126298450D01*
X134509550Y-126228600D01*
X133728600Y-126228600D01*
X133271400Y-126228600D01*
X132490450Y-126228600D01*
X132420600Y-126298450D01*
X132419248Y-126800000D01*
X125080752Y-126800000D01*
X125079400Y-126298450D01*
X125009550Y-126228600D01*
X124228600Y-126228600D01*
X123771400Y-126228600D01*
X122990450Y-126228600D01*
X122920600Y-126298450D01*
X122919248Y-126800000D01*
X116124722Y-126800000D01*
X115622535Y-126464450D01*
X114999152Y-126206236D01*
X114337372Y-126074600D01*
X113662628Y-126074600D01*
X113000848Y-126206236D01*
X112377465Y-126464450D01*
X111816435Y-126839318D01*
X111339318Y-127316435D01*
X110964450Y-127877465D01*
X110706236Y-128500848D01*
X110574600Y-129162628D01*
X110177400Y-129162628D01*
X110177400Y-126000000D01*
X149281010Y-126000000D01*
X149281010Y-128000000D01*
X149285362Y-128044186D01*
X149298251Y-128086674D01*
X149319180Y-128125831D01*
X149347347Y-128160153D01*
X149381669Y-128188320D01*
X149420826Y-128209249D01*
X149463314Y-128222138D01*
X149507500Y-128226490D01*
X151412500Y-128226490D01*
X151456686Y-128222138D01*
X151499174Y-128209249D01*
X151538331Y-128188320D01*
X151572653Y-128160153D01*
X151600820Y-128125831D01*
X151621749Y-128086674D01*
X151634638Y-128044186D01*
X151638990Y-128000000D01*
X151638990Y-126894639D01*
X151822100Y-126894639D01*
X151822100Y-127105362D01*
X151839144Y-127278409D01*
X151906497Y-127500444D01*
X152015873Y-127705072D01*
X152163069Y-127884431D01*
X152342429Y-128031627D01*
X152547057Y-128141003D01*
X152769092Y-128208356D01*
X153000000Y-128231099D01*
X153230909Y-128208356D01*
X153452944Y-128141003D01*
X153657572Y-128031627D01*
X153836931Y-127884431D01*
X153984127Y-127705071D01*
X154093503Y-127500443D01*
X154160856Y-127278408D01*
X154177900Y-127105361D01*
X154177900Y-126894639D01*
X154362100Y-126894639D01*
X154362100Y-127105362D01*
X154379144Y-127278409D01*
X154446497Y-127500444D01*
X154555873Y-127705072D01*
X154703069Y-127884431D01*
X154882429Y-128031627D01*
X155087057Y-128141003D01*
X155309092Y-128208356D01*
X155540000Y-128231099D01*
X155770909Y-128208356D01*
X155992944Y-128141003D01*
X156197572Y-128031627D01*
X156376931Y-127884431D01*
X156524127Y-127705071D01*
X156633503Y-127500443D01*
X156700856Y-127278408D01*
X156717900Y-127105361D01*
X156717900Y-126894638D01*
X156700856Y-126721591D01*
X156633503Y-126499556D01*
X156524127Y-126294928D01*
X156376931Y-126115569D01*
X156236109Y-126000000D01*
X161281010Y-126000000D01*
X161281010Y-128000000D01*
X161285362Y-128044186D01*
X161298251Y-128086674D01*
X161319180Y-128125831D01*
X161347347Y-128160153D01*
X161381669Y-128188320D01*
X161420826Y-128209249D01*
X161463314Y-128222138D01*
X161507500Y-128226490D01*
X163412500Y-128226490D01*
X163456686Y-128222138D01*
X163499174Y-128209249D01*
X163538331Y-128188320D01*
X163572653Y-128160153D01*
X163600820Y-128125831D01*
X163621749Y-128086674D01*
X163634638Y-128044186D01*
X163638990Y-128000000D01*
X163638990Y-126894639D01*
X163822100Y-126894639D01*
X163822100Y-127105362D01*
X163839144Y-127278409D01*
X163906497Y-127500444D01*
X164015873Y-127705072D01*
X164163069Y-127884431D01*
X164342429Y-128031627D01*
X164547057Y-128141003D01*
X164769092Y-128208356D01*
X165000000Y-128231099D01*
X165230909Y-128208356D01*
X165452944Y-128141003D01*
X165657572Y-128031627D01*
X165836931Y-127884431D01*
X165984127Y-127705071D01*
X166093503Y-127500443D01*
X166160856Y-127278408D01*
X166177900Y-127105361D01*
X166177900Y-126894639D01*
X166362100Y-126894639D01*
X166362100Y-127105362D01*
X166379144Y-127278409D01*
X166446497Y-127500444D01*
X166555873Y-127705072D01*
X166703069Y-127884431D01*
X166882429Y-128031627D01*
X167087057Y-128141003D01*
X167309092Y-128208356D01*
X167540000Y-128231099D01*
X167770909Y-128208356D01*
X167992944Y-128141003D01*
X168197572Y-128031627D01*
X168376931Y-127884431D01*
X168524127Y-127705071D01*
X168633503Y-127500443D01*
X168700856Y-127278408D01*
X168717900Y-127105361D01*
X168717900Y-126894638D01*
X168700856Y-126721591D01*
X168633503Y-126499556D01*
X168524127Y-126294928D01*
X168376931Y-126115569D01*
X168197571Y-125968373D01*
X167992943Y-125858997D01*
X167770908Y-125791644D01*
X167540000Y-125768901D01*
X167309091Y-125791644D01*
X167087056Y-125858997D01*
X166882428Y-125968373D01*
X166703069Y-126115569D01*
X166555873Y-126294929D01*
X166446497Y-126499557D01*
X166379144Y-126721592D01*
X166362100Y-126894639D01*
X166177900Y-126894639D01*
X166177900Y-126894638D01*
X166160856Y-126721591D01*
X166093503Y-126499556D01*
X165984127Y-126294928D01*
X165836931Y-126115569D01*
X165657571Y-125968373D01*
X165452943Y-125858997D01*
X165230908Y-125791644D01*
X165000000Y-125768901D01*
X164769091Y-125791644D01*
X164547056Y-125858997D01*
X164342428Y-125968373D01*
X164163069Y-126115569D01*
X164015873Y-126294929D01*
X163906497Y-126499557D01*
X163839144Y-126721592D01*
X163822100Y-126894639D01*
X163638990Y-126894639D01*
X163638990Y-126000000D01*
X163634638Y-125955814D01*
X163621749Y-125913326D01*
X163600820Y-125874169D01*
X163572653Y-125839847D01*
X163538331Y-125811680D01*
X163499174Y-125790751D01*
X163456686Y-125777862D01*
X163412500Y-125773510D01*
X161507500Y-125773510D01*
X161463314Y-125777862D01*
X161420826Y-125790751D01*
X161381669Y-125811680D01*
X161347347Y-125839847D01*
X161319180Y-125874169D01*
X161298251Y-125913326D01*
X161285362Y-125955814D01*
X161281010Y-126000000D01*
X156236109Y-126000000D01*
X156197571Y-125968373D01*
X155992943Y-125858997D01*
X155770908Y-125791644D01*
X155540000Y-125768901D01*
X155309091Y-125791644D01*
X155087056Y-125858997D01*
X154882428Y-125968373D01*
X154703069Y-126115569D01*
X154555873Y-126294929D01*
X154446497Y-126499557D01*
X154379144Y-126721592D01*
X154362100Y-126894639D01*
X154177900Y-126894639D01*
X154177900Y-126894638D01*
X154160856Y-126721591D01*
X154093503Y-126499556D01*
X153984127Y-126294928D01*
X153836931Y-126115569D01*
X153657571Y-125968373D01*
X153452943Y-125858997D01*
X153230908Y-125791644D01*
X153000000Y-125768901D01*
X152769091Y-125791644D01*
X152547056Y-125858997D01*
X152342428Y-125968373D01*
X152163069Y-126115569D01*
X152015873Y-126294929D01*
X151906497Y-126499557D01*
X151839144Y-126721592D01*
X151822100Y-126894639D01*
X151638990Y-126894639D01*
X151638990Y-126000000D01*
X151634638Y-125955814D01*
X151621749Y-125913326D01*
X151600820Y-125874169D01*
X151572653Y-125839847D01*
X151538331Y-125811680D01*
X151499174Y-125790751D01*
X151456686Y-125777862D01*
X151412500Y-125773510D01*
X149507500Y-125773510D01*
X149463314Y-125777862D01*
X149420826Y-125790751D01*
X149381669Y-125811680D01*
X149347347Y-125839847D01*
X149319180Y-125874169D01*
X149298251Y-125913326D01*
X149285362Y-125955814D01*
X149281010Y-126000000D01*
X110177400Y-126000000D01*
X110177400Y-125200000D01*
X122919248Y-125200000D01*
X122920600Y-125701550D01*
X122990450Y-125771400D01*
X123771400Y-125771400D01*
X123771400Y-124990450D01*
X124228600Y-124990450D01*
X124228600Y-125771400D01*
X125009550Y-125771400D01*
X125079400Y-125701550D01*
X125080752Y-125200000D01*
X132419248Y-125200000D01*
X132420600Y-125701550D01*
X132490450Y-125771400D01*
X133271400Y-125771400D01*
X133271400Y-124990450D01*
X133728600Y-124990450D01*
X133728600Y-125771400D01*
X134509550Y-125771400D01*
X134579400Y-125701550D01*
X134580752Y-125200000D01*
X134575357Y-125145228D01*
X134559381Y-125092561D01*
X134533437Y-125044023D01*
X134498522Y-125001478D01*
X134455977Y-124966563D01*
X134407439Y-124940619D01*
X134354772Y-124924643D01*
X134300000Y-124919248D01*
X133798450Y-124920600D01*
X133728600Y-124990450D01*
X133271400Y-124990450D01*
X133201550Y-124920600D01*
X132700000Y-124919248D01*
X132645228Y-124924643D01*
X132592561Y-124940619D01*
X132544023Y-124966563D01*
X132501478Y-125001478D01*
X132466563Y-125044023D01*
X132440619Y-125092561D01*
X132424643Y-125145228D01*
X132419248Y-125200000D01*
X125080752Y-125200000D01*
X125075357Y-125145228D01*
X125059381Y-125092561D01*
X125033437Y-125044023D01*
X124998522Y-125001478D01*
X124955977Y-124966563D01*
X124907439Y-124940619D01*
X124854772Y-124924643D01*
X124800000Y-124919248D01*
X124298450Y-124920600D01*
X124228600Y-124990450D01*
X123771400Y-124990450D01*
X123701550Y-124920600D01*
X123200000Y-124919248D01*
X123145228Y-124924643D01*
X123092561Y-124940619D01*
X123044023Y-124966563D01*
X123001478Y-125001478D01*
X122966563Y-125044023D01*
X122940619Y-125092561D01*
X122924643Y-125145228D01*
X122919248Y-125200000D01*
X110177400Y-125200000D01*
X110177400Y-121830063D01*
X112274600Y-121830063D01*
X112274600Y-122169937D01*
X112340907Y-122503280D01*
X112470971Y-122817283D01*
X112659795Y-123099878D01*
X112900122Y-123340205D01*
X113182717Y-123529029D01*
X113496720Y-123659093D01*
X113830063Y-123725400D01*
X114169937Y-123725400D01*
X114503280Y-123659093D01*
X114817283Y-123529029D01*
X115099878Y-123340205D01*
X115340205Y-123099878D01*
X115529029Y-122817283D01*
X115659093Y-122503280D01*
X115725400Y-122169937D01*
X115725400Y-122029459D01*
X117174600Y-122029459D01*
X117174600Y-122290541D01*
X117225534Y-122546605D01*
X117325446Y-122787812D01*
X117470495Y-123004893D01*
X117655107Y-123189505D01*
X117872188Y-123334554D01*
X118113395Y-123434466D01*
X118369459Y-123485400D01*
X118630541Y-123485400D01*
X118886605Y-123434466D01*
X119127812Y-123334554D01*
X119344893Y-123189505D01*
X119529505Y-123004893D01*
X119674554Y-122787812D01*
X119774466Y-122546605D01*
X119825400Y-122290541D01*
X119825400Y-122029459D01*
X119774466Y-121773395D01*
X119674554Y-121532188D01*
X119529505Y-121315107D01*
X119344893Y-121130495D01*
X119127812Y-120985446D01*
X118886605Y-120885534D01*
X118630541Y-120834600D01*
X118369459Y-120834600D01*
X118113395Y-120885534D01*
X117872188Y-120985446D01*
X117655107Y-121130495D01*
X117470495Y-121315107D01*
X117325446Y-121532188D01*
X117225534Y-121773395D01*
X117174600Y-122029459D01*
X115725400Y-122029459D01*
X115725400Y-121830063D01*
X115659093Y-121496720D01*
X115529029Y-121182717D01*
X115340205Y-120900122D01*
X115099878Y-120659795D01*
X114817283Y-120470971D01*
X114645944Y-120400000D01*
X121633510Y-120400000D01*
X121633510Y-122100000D01*
X121637862Y-122144186D01*
X121650751Y-122186674D01*
X121671680Y-122225831D01*
X121699847Y-122260153D01*
X121734169Y-122288320D01*
X121773326Y-122309249D01*
X121815814Y-122322138D01*
X121860000Y-122326490D01*
X123560000Y-122326490D01*
X123604186Y-122322138D01*
X123646674Y-122309249D01*
X123685831Y-122288320D01*
X123720153Y-122260153D01*
X123748320Y-122225831D01*
X123769249Y-122186674D01*
X123782138Y-122144186D01*
X123786490Y-122100000D01*
X123786490Y-121144082D01*
X124174600Y-121144082D01*
X124174600Y-121355918D01*
X124215927Y-121563682D01*
X124296993Y-121759393D01*
X124414683Y-121935527D01*
X124564473Y-122085317D01*
X124740607Y-122203007D01*
X124936318Y-122284073D01*
X125144082Y-122325400D01*
X125355918Y-122325400D01*
X125563682Y-122284073D01*
X125759393Y-122203007D01*
X125935527Y-122085317D01*
X126085317Y-121935527D01*
X126203007Y-121759393D01*
X126248813Y-121648807D01*
X126733344Y-121648807D01*
X126831451Y-121847287D01*
X126966394Y-122022814D01*
X127132988Y-122168642D01*
X127324830Y-122279167D01*
X127391194Y-122306645D01*
X127561400Y-122284596D01*
X127561400Y-121478600D01*
X128018600Y-121478600D01*
X128018600Y-122284596D01*
X128188806Y-122306645D01*
X128255170Y-122279167D01*
X128447012Y-122168642D01*
X128606014Y-122029459D01*
X180174600Y-122029459D01*
X180174600Y-122290541D01*
X180225534Y-122546605D01*
X180325446Y-122787812D01*
X180470495Y-123004893D01*
X180655107Y-123189505D01*
X180872188Y-123334554D01*
X181113395Y-123434466D01*
X181369459Y-123485400D01*
X181630541Y-123485400D01*
X181886605Y-123434466D01*
X182127812Y-123334554D01*
X182344893Y-123189505D01*
X182529505Y-123004893D01*
X182674554Y-122787812D01*
X182774466Y-122546605D01*
X182825400Y-122290541D01*
X182825400Y-122029459D01*
X182785738Y-121830063D01*
X184274600Y-121830063D01*
X184274600Y-122169937D01*
X184340907Y-122503280D01*
X184470971Y-122817283D01*
X184659795Y-123099878D01*
X184900122Y-123340205D01*
X185182717Y-123529029D01*
X185496720Y-123659093D01*
X185830063Y-123725400D01*
X186169937Y-123725400D01*
X186503280Y-123659093D01*
X186817283Y-123529029D01*
X187099878Y-123340205D01*
X187340205Y-123099878D01*
X187529029Y-122817283D01*
X187659093Y-122503280D01*
X187725400Y-122169937D01*
X187725400Y-121830063D01*
X187659093Y-121496720D01*
X187529029Y-121182717D01*
X187340205Y-120900122D01*
X187099878Y-120659795D01*
X186817283Y-120470971D01*
X186503280Y-120340907D01*
X186169937Y-120274600D01*
X185830063Y-120274600D01*
X185496720Y-120340907D01*
X185182717Y-120470971D01*
X184900122Y-120659795D01*
X184659795Y-120900122D01*
X184470971Y-121182717D01*
X184340907Y-121496720D01*
X184274600Y-121830063D01*
X182785738Y-121830063D01*
X182774466Y-121773395D01*
X182674554Y-121532188D01*
X182529505Y-121315107D01*
X182344893Y-121130495D01*
X182127812Y-120985446D01*
X181886605Y-120885534D01*
X181630541Y-120834600D01*
X181369459Y-120834600D01*
X181113395Y-120885534D01*
X180872188Y-120985446D01*
X180655107Y-121130495D01*
X180470495Y-121315107D01*
X180325446Y-121532188D01*
X180225534Y-121773395D01*
X180174600Y-122029459D01*
X128606014Y-122029459D01*
X128613606Y-122022814D01*
X128748549Y-121847287D01*
X128846656Y-121648807D01*
X128826184Y-121478600D01*
X128018600Y-121478600D01*
X127561400Y-121478600D01*
X126753816Y-121478600D01*
X126733344Y-121648807D01*
X126248813Y-121648807D01*
X126284073Y-121563682D01*
X126325400Y-121355918D01*
X126325400Y-121144082D01*
X126284073Y-120936318D01*
X126248814Y-120851193D01*
X126733344Y-120851193D01*
X126753816Y-121021400D01*
X127561400Y-121021400D01*
X127561400Y-120215404D01*
X128018600Y-120215404D01*
X128018600Y-121021400D01*
X128826184Y-121021400D01*
X128846656Y-120851193D01*
X128748549Y-120652713D01*
X128613606Y-120477186D01*
X128447012Y-120331358D01*
X128255170Y-120220833D01*
X128188806Y-120193355D01*
X128018600Y-120215404D01*
X127561400Y-120215404D01*
X127391194Y-120193355D01*
X127324830Y-120220833D01*
X127132988Y-120331358D01*
X126966394Y-120477186D01*
X126831451Y-120652713D01*
X126733344Y-120851193D01*
X126248814Y-120851193D01*
X126203007Y-120740607D01*
X126085317Y-120564473D01*
X125935527Y-120414683D01*
X125759393Y-120296993D01*
X125563682Y-120215927D01*
X125355918Y-120174600D01*
X125144082Y-120174600D01*
X124936318Y-120215927D01*
X124740607Y-120296993D01*
X124564473Y-120414683D01*
X124414683Y-120564473D01*
X124296993Y-120740607D01*
X124215927Y-120936318D01*
X124174600Y-121144082D01*
X123786490Y-121144082D01*
X123786490Y-120400000D01*
X123782138Y-120355814D01*
X123769249Y-120313326D01*
X123748320Y-120274169D01*
X123720153Y-120239847D01*
X123685831Y-120211680D01*
X123646674Y-120190751D01*
X123604186Y-120177862D01*
X123560000Y-120173510D01*
X121860000Y-120173510D01*
X121815814Y-120177862D01*
X121773326Y-120190751D01*
X121734169Y-120211680D01*
X121699847Y-120239847D01*
X121671680Y-120274169D01*
X121650751Y-120313326D01*
X121637862Y-120355814D01*
X121633510Y-120400000D01*
X114645944Y-120400000D01*
X114503280Y-120340907D01*
X114169937Y-120274600D01*
X113830063Y-120274600D01*
X113496720Y-120340907D01*
X113182717Y-120470971D01*
X112900122Y-120659795D01*
X112659795Y-120900122D01*
X112470971Y-121182717D01*
X112340907Y-121496720D01*
X112274600Y-121830063D01*
X110177400Y-121830063D01*
X110177400Y-115089912D01*
X148724600Y-115089912D01*
X148724600Y-115410088D01*
X148787063Y-115724112D01*
X148909589Y-116019916D01*
X149087469Y-116286132D01*
X149313868Y-116512531D01*
X149580084Y-116690411D01*
X149875888Y-116812937D01*
X150189912Y-116875400D01*
X150510088Y-116875400D01*
X150824112Y-116812937D01*
X151119916Y-116690411D01*
X151386132Y-116512531D01*
X151612531Y-116286132D01*
X151790411Y-116019916D01*
X151912937Y-115724112D01*
X151975400Y-115410088D01*
X151975400Y-115089912D01*
X174124600Y-115089912D01*
X174124600Y-115410088D01*
X174187063Y-115724112D01*
X174309589Y-116019916D01*
X174487469Y-116286132D01*
X174713868Y-116512531D01*
X174980084Y-116690411D01*
X175275888Y-116812937D01*
X175589912Y-116875400D01*
X175910088Y-116875400D01*
X176224112Y-116812937D01*
X176519916Y-116690411D01*
X176786132Y-116512531D01*
X177012531Y-116286132D01*
X177190411Y-116019916D01*
X177312937Y-115724112D01*
X177375400Y-115410088D01*
X177375400Y-115089912D01*
X177312937Y-114775888D01*
X177190411Y-114480084D01*
X177012531Y-114213868D01*
X176786132Y-113987469D01*
X176519916Y-113809589D01*
X176224112Y-113687063D01*
X175910088Y-113624600D01*
X175589912Y-113624600D01*
X175275888Y-113687063D01*
X174980084Y-113809589D01*
X174713868Y-113987469D01*
X174487469Y-114213868D01*
X174309589Y-114480084D01*
X174187063Y-114775888D01*
X174124600Y-115089912D01*
X151975400Y-115089912D01*
X151912937Y-114775888D01*
X151790411Y-114480084D01*
X151612531Y-114213868D01*
X151386132Y-113987469D01*
X151119916Y-113809589D01*
X150824112Y-113687063D01*
X150510088Y-113624600D01*
X150189912Y-113624600D01*
X149875888Y-113687063D01*
X149580084Y-113809589D01*
X149313868Y-113987469D01*
X149087469Y-114213868D01*
X148909589Y-114480084D01*
X148787063Y-114775888D01*
X148724600Y-115089912D01*
X110177400Y-115089912D01*
X110177400Y-113100000D01*
X117119248Y-113100000D01*
X117124643Y-113154772D01*
X117140619Y-113207439D01*
X117166563Y-113255977D01*
X117201478Y-113298522D01*
X117244023Y-113333437D01*
X117292561Y-113359381D01*
X117345228Y-113375357D01*
X117400000Y-113380752D01*
X118201550Y-113379400D01*
X118271400Y-113309550D01*
X118271400Y-112228600D01*
X118728600Y-112228600D01*
X118728600Y-113309550D01*
X118798450Y-113379400D01*
X119600000Y-113380752D01*
X119654772Y-113375357D01*
X119707439Y-113359381D01*
X119755977Y-113333437D01*
X119798522Y-113298522D01*
X119833437Y-113255977D01*
X119859381Y-113207439D01*
X119875357Y-113154772D01*
X119880752Y-113100000D01*
X180119248Y-113100000D01*
X180124643Y-113154772D01*
X180140619Y-113207439D01*
X180166563Y-113255977D01*
X180201478Y-113298522D01*
X180244023Y-113333437D01*
X180292561Y-113359381D01*
X180345228Y-113375357D01*
X180400000Y-113380752D01*
X181201550Y-113379400D01*
X181271400Y-113309550D01*
X181271400Y-112228600D01*
X181728600Y-112228600D01*
X181728600Y-113309550D01*
X181798450Y-113379400D01*
X182600000Y-113380752D01*
X182654772Y-113375357D01*
X182707439Y-113359381D01*
X182755977Y-113333437D01*
X182798522Y-113298522D01*
X182833437Y-113255977D01*
X182859381Y-113207439D01*
X182875357Y-113154772D01*
X182880752Y-113100000D01*
X182879400Y-112298450D01*
X182809550Y-112228600D01*
X181728600Y-112228600D01*
X181271400Y-112228600D01*
X180190450Y-112228600D01*
X180120600Y-112298450D01*
X180119248Y-113100000D01*
X119880752Y-113100000D01*
X119879400Y-112298450D01*
X119809550Y-112228600D01*
X118728600Y-112228600D01*
X118271400Y-112228600D01*
X117190450Y-112228600D01*
X117120600Y-112298450D01*
X117119248Y-113100000D01*
X110177400Y-113100000D01*
X110177400Y-111365766D01*
X112957523Y-111365766D01*
X113142601Y-111569026D01*
X113465177Y-111706148D01*
X113808307Y-111777704D01*
X114158803Y-111780943D01*
X114503197Y-111715742D01*
X114828253Y-111584606D01*
X114857399Y-111569026D01*
X115042477Y-111365766D01*
X114000000Y-110323289D01*
X112957523Y-111365766D01*
X110177400Y-111365766D01*
X110177400Y-110158803D01*
X112219057Y-110158803D01*
X112284258Y-110503197D01*
X112415394Y-110828253D01*
X112430974Y-110857399D01*
X112634234Y-111042477D01*
X113676711Y-110000000D01*
X114323289Y-110000000D01*
X115365766Y-111042477D01*
X115522239Y-110900000D01*
X117119248Y-110900000D01*
X117120600Y-111701550D01*
X117190450Y-111771400D01*
X118271400Y-111771400D01*
X118271400Y-110690450D01*
X118728600Y-110690450D01*
X118728600Y-111771400D01*
X119809550Y-111771400D01*
X119879400Y-111701550D01*
X119880752Y-110900000D01*
X180119248Y-110900000D01*
X180120600Y-111701550D01*
X180190450Y-111771400D01*
X181271400Y-111771400D01*
X181271400Y-110690450D01*
X181728600Y-110690450D01*
X181728600Y-111771400D01*
X182809550Y-111771400D01*
X182879400Y-111701550D01*
X182879966Y-111365766D01*
X184957523Y-111365766D01*
X185142601Y-111569026D01*
X185465177Y-111706148D01*
X185808307Y-111777704D01*
X186158803Y-111780943D01*
X186503197Y-111715742D01*
X186828253Y-111584606D01*
X186857399Y-111569026D01*
X187042477Y-111365766D01*
X186000000Y-110323289D01*
X184957523Y-111365766D01*
X182879966Y-111365766D01*
X182880752Y-110900000D01*
X182875357Y-110845228D01*
X182859381Y-110792561D01*
X182833437Y-110744023D01*
X182798522Y-110701478D01*
X182755977Y-110666563D01*
X182707439Y-110640619D01*
X182654772Y-110624643D01*
X182600000Y-110619248D01*
X181798450Y-110620600D01*
X181728600Y-110690450D01*
X181271400Y-110690450D01*
X181201550Y-110620600D01*
X180400000Y-110619248D01*
X180345228Y-110624643D01*
X180292561Y-110640619D01*
X180244023Y-110666563D01*
X180201478Y-110701478D01*
X180166563Y-110744023D01*
X180140619Y-110792561D01*
X180124643Y-110845228D01*
X180119248Y-110900000D01*
X119880752Y-110900000D01*
X119875357Y-110845228D01*
X119859381Y-110792561D01*
X119833437Y-110744023D01*
X119798522Y-110701478D01*
X119755977Y-110666563D01*
X119707439Y-110640619D01*
X119654772Y-110624643D01*
X119600000Y-110619248D01*
X118798450Y-110620600D01*
X118728600Y-110690450D01*
X118271400Y-110690450D01*
X118201550Y-110620600D01*
X117400000Y-110619248D01*
X117345228Y-110624643D01*
X117292561Y-110640619D01*
X117244023Y-110666563D01*
X117201478Y-110701478D01*
X117166563Y-110744023D01*
X117140619Y-110792561D01*
X117124643Y-110845228D01*
X117119248Y-110900000D01*
X115522239Y-110900000D01*
X115569026Y-110857399D01*
X115706148Y-110534823D01*
X115777704Y-110191693D01*
X115778007Y-110158803D01*
X184219057Y-110158803D01*
X184284258Y-110503197D01*
X184415394Y-110828253D01*
X184430974Y-110857399D01*
X184634234Y-111042477D01*
X185676711Y-110000000D01*
X186323289Y-110000000D01*
X187365766Y-111042477D01*
X187569026Y-110857399D01*
X187706148Y-110534823D01*
X187777704Y-110191693D01*
X187780943Y-109841197D01*
X187715742Y-109496803D01*
X187584606Y-109171747D01*
X187569026Y-109142601D01*
X187365766Y-108957523D01*
X186323289Y-110000000D01*
X185676711Y-110000000D01*
X184634234Y-108957523D01*
X184430974Y-109142601D01*
X184293852Y-109465177D01*
X184222296Y-109808307D01*
X184219057Y-110158803D01*
X115778007Y-110158803D01*
X115780943Y-109841197D01*
X115715742Y-109496803D01*
X115584606Y-109171747D01*
X115569026Y-109142601D01*
X115365766Y-108957523D01*
X114323289Y-110000000D01*
X113676711Y-110000000D01*
X112634234Y-108957523D01*
X112430974Y-109142601D01*
X112293852Y-109465177D01*
X112222296Y-109808307D01*
X112219057Y-110158803D01*
X110177400Y-110158803D01*
X110177400Y-108634234D01*
X112957523Y-108634234D01*
X114000000Y-109676711D01*
X115042477Y-108634234D01*
X114864333Y-108438589D01*
X117192174Y-108438589D01*
X117302868Y-108685306D01*
X117459567Y-108905687D01*
X117656249Y-109091263D01*
X117885356Y-109234902D01*
X118061413Y-109307817D01*
X118271400Y-109289443D01*
X118271400Y-108228600D01*
X118728600Y-108228600D01*
X118728600Y-109289443D01*
X118938587Y-109307817D01*
X119114644Y-109234902D01*
X119343751Y-109091263D01*
X119540433Y-108905687D01*
X119697132Y-108685306D01*
X119807826Y-108438589D01*
X119790485Y-108228600D01*
X118728600Y-108228600D01*
X118271400Y-108228600D01*
X117209515Y-108228600D01*
X117192174Y-108438589D01*
X114864333Y-108438589D01*
X114857399Y-108430974D01*
X114534823Y-108293852D01*
X114191693Y-108222296D01*
X113841197Y-108219057D01*
X113496803Y-108284258D01*
X113171747Y-108415394D01*
X113142601Y-108430974D01*
X112957523Y-108634234D01*
X110177400Y-108634234D01*
X110177400Y-107561411D01*
X117192174Y-107561411D01*
X117209515Y-107771400D01*
X118271400Y-107771400D01*
X118271400Y-106710557D01*
X118728600Y-106710557D01*
X118728600Y-107771400D01*
X119790485Y-107771400D01*
X119807826Y-107561411D01*
X119697132Y-107314694D01*
X119540433Y-107094313D01*
X119343751Y-106908737D01*
X119114644Y-106765098D01*
X118938587Y-106692183D01*
X118728600Y-106710557D01*
X118271400Y-106710557D01*
X118061413Y-106692183D01*
X117885356Y-106765098D01*
X117656249Y-106908737D01*
X117459567Y-107094313D01*
X117302868Y-107314694D01*
X117192174Y-107561411D01*
X110177400Y-107561411D01*
X110177400Y-106650000D01*
X121633510Y-106650000D01*
X121633510Y-108350000D01*
X121637862Y-108394186D01*
X121650751Y-108436674D01*
X121671680Y-108475831D01*
X121699847Y-108510153D01*
X121734169Y-108538320D01*
X121773326Y-108559249D01*
X121815814Y-108572138D01*
X121860000Y-108576490D01*
X123560000Y-108576490D01*
X123604186Y-108572138D01*
X123646674Y-108559249D01*
X123685831Y-108538320D01*
X123720153Y-108510153D01*
X123748320Y-108475831D01*
X123769249Y-108436674D01*
X123782138Y-108394186D01*
X123786490Y-108350000D01*
X123786490Y-107394082D01*
X124174600Y-107394082D01*
X124174600Y-107605918D01*
X124215927Y-107813682D01*
X124296993Y-108009393D01*
X124414683Y-108185527D01*
X124564473Y-108335317D01*
X124740607Y-108453007D01*
X124936318Y-108534073D01*
X125144082Y-108575400D01*
X125355918Y-108575400D01*
X125563682Y-108534073D01*
X125759393Y-108453007D01*
X125935527Y-108335317D01*
X126085317Y-108185527D01*
X126203007Y-108009393D01*
X126248813Y-107898807D01*
X126733344Y-107898807D01*
X126831451Y-108097287D01*
X126966394Y-108272814D01*
X127132988Y-108418642D01*
X127324830Y-108529167D01*
X127391194Y-108556645D01*
X127561400Y-108534596D01*
X127561400Y-107728600D01*
X128018600Y-107728600D01*
X128018600Y-108534596D01*
X128188806Y-108556645D01*
X128255170Y-108529167D01*
X128412389Y-108438589D01*
X180192174Y-108438589D01*
X180302868Y-108685306D01*
X180459567Y-108905687D01*
X180656249Y-109091263D01*
X180885356Y-109234902D01*
X181061413Y-109307817D01*
X181271400Y-109289443D01*
X181271400Y-108228600D01*
X181728600Y-108228600D01*
X181728600Y-109289443D01*
X181938587Y-109307817D01*
X182114644Y-109234902D01*
X182343751Y-109091263D01*
X182540433Y-108905687D01*
X182697132Y-108685306D01*
X182720046Y-108634234D01*
X184957523Y-108634234D01*
X186000000Y-109676711D01*
X187042477Y-108634234D01*
X186857399Y-108430974D01*
X186534823Y-108293852D01*
X186191693Y-108222296D01*
X185841197Y-108219057D01*
X185496803Y-108284258D01*
X185171747Y-108415394D01*
X185142601Y-108430974D01*
X184957523Y-108634234D01*
X182720046Y-108634234D01*
X182807826Y-108438589D01*
X182790485Y-108228600D01*
X181728600Y-108228600D01*
X181271400Y-108228600D01*
X180209515Y-108228600D01*
X180192174Y-108438589D01*
X128412389Y-108438589D01*
X128447012Y-108418642D01*
X128613606Y-108272814D01*
X128748549Y-108097287D01*
X128846656Y-107898807D01*
X128826184Y-107728600D01*
X128018600Y-107728600D01*
X127561400Y-107728600D01*
X126753816Y-107728600D01*
X126733344Y-107898807D01*
X126248813Y-107898807D01*
X126284073Y-107813682D01*
X126325400Y-107605918D01*
X126325400Y-107561411D01*
X180192174Y-107561411D01*
X180209515Y-107771400D01*
X181271400Y-107771400D01*
X181271400Y-106710557D01*
X181728600Y-106710557D01*
X181728600Y-107771400D01*
X182790485Y-107771400D01*
X182807826Y-107561411D01*
X182697132Y-107314694D01*
X182540433Y-107094313D01*
X182343751Y-106908737D01*
X182114644Y-106765098D01*
X181938587Y-106692183D01*
X181728600Y-106710557D01*
X181271400Y-106710557D01*
X181061413Y-106692183D01*
X180885356Y-106765098D01*
X180656249Y-106908737D01*
X180459567Y-107094313D01*
X180302868Y-107314694D01*
X180192174Y-107561411D01*
X126325400Y-107561411D01*
X126325400Y-107394082D01*
X126284073Y-107186318D01*
X126248814Y-107101193D01*
X126733344Y-107101193D01*
X126753816Y-107271400D01*
X127561400Y-107271400D01*
X127561400Y-106465404D01*
X128018600Y-106465404D01*
X128018600Y-107271400D01*
X128826184Y-107271400D01*
X128846656Y-107101193D01*
X128748549Y-106902713D01*
X128613606Y-106727186D01*
X128447012Y-106581358D01*
X128255170Y-106470833D01*
X128188806Y-106443355D01*
X128018600Y-106465404D01*
X127561400Y-106465404D01*
X127391194Y-106443355D01*
X127324830Y-106470833D01*
X127132988Y-106581358D01*
X126966394Y-106727186D01*
X126831451Y-106902713D01*
X126733344Y-107101193D01*
X126248814Y-107101193D01*
X126203007Y-106990607D01*
X126085317Y-106814473D01*
X125935527Y-106664683D01*
X125759393Y-106546993D01*
X125563682Y-106465927D01*
X125355918Y-106424600D01*
X125144082Y-106424600D01*
X124936318Y-106465927D01*
X124740607Y-106546993D01*
X124564473Y-106664683D01*
X124414683Y-106814473D01*
X124296993Y-106990607D01*
X124215927Y-107186318D01*
X124174600Y-107394082D01*
X123786490Y-107394082D01*
X123786490Y-106650000D01*
X123782138Y-106605814D01*
X123769249Y-106563326D01*
X123748320Y-106524169D01*
X123720153Y-106489847D01*
X123685831Y-106461680D01*
X123646674Y-106440751D01*
X123604186Y-106427862D01*
X123560000Y-106423510D01*
X121860000Y-106423510D01*
X121815814Y-106427862D01*
X121773326Y-106440751D01*
X121734169Y-106461680D01*
X121699847Y-106489847D01*
X121671680Y-106524169D01*
X121650751Y-106563326D01*
X121637862Y-106605814D01*
X121633510Y-106650000D01*
X110177400Y-106650000D01*
X110177400Y-104589912D01*
X148724600Y-104589912D01*
X148724600Y-104910088D01*
X148787063Y-105224112D01*
X148909589Y-105519916D01*
X149087469Y-105786132D01*
X149313868Y-106012531D01*
X149580084Y-106190411D01*
X149875888Y-106312937D01*
X150189912Y-106375400D01*
X150510088Y-106375400D01*
X150824112Y-106312937D01*
X151119916Y-106190411D01*
X151386132Y-106012531D01*
X151612531Y-105786132D01*
X151790411Y-105519916D01*
X151912937Y-105224112D01*
X151975400Y-104910088D01*
X151975400Y-104589912D01*
X174124600Y-104589912D01*
X174124600Y-104910088D01*
X174187063Y-105224112D01*
X174309589Y-105519916D01*
X174487469Y-105786132D01*
X174713868Y-106012531D01*
X174980084Y-106190411D01*
X175275888Y-106312937D01*
X175589912Y-106375400D01*
X175910088Y-106375400D01*
X176224112Y-106312937D01*
X176519916Y-106190411D01*
X176786132Y-106012531D01*
X177012531Y-105786132D01*
X177190411Y-105519916D01*
X177312937Y-105224112D01*
X177375400Y-104910088D01*
X177375400Y-104589912D01*
X177312937Y-104275888D01*
X177190411Y-103980084D01*
X177012531Y-103713868D01*
X176786132Y-103487469D01*
X176519916Y-103309589D01*
X176224112Y-103187063D01*
X175910088Y-103124600D01*
X175589912Y-103124600D01*
X175275888Y-103187063D01*
X174980084Y-103309589D01*
X174713868Y-103487469D01*
X174487469Y-103713868D01*
X174309589Y-103980084D01*
X174187063Y-104275888D01*
X174124600Y-104589912D01*
X151975400Y-104589912D01*
X151912937Y-104275888D01*
X151790411Y-103980084D01*
X151612531Y-103713868D01*
X151386132Y-103487469D01*
X151119916Y-103309589D01*
X150824112Y-103187063D01*
X150510088Y-103124600D01*
X150189912Y-103124600D01*
X149875888Y-103187063D01*
X149580084Y-103309589D01*
X149313868Y-103487469D01*
X149087469Y-103713868D01*
X148909589Y-103980084D01*
X148787063Y-104275888D01*
X148724600Y-104589912D01*
X110177400Y-104589912D01*
X110177400Y-97830063D01*
X112274600Y-97830063D01*
X112274600Y-98169937D01*
X112340907Y-98503280D01*
X112470971Y-98817283D01*
X112659795Y-99099878D01*
X112900122Y-99340205D01*
X113182717Y-99529029D01*
X113496720Y-99659093D01*
X113830063Y-99725400D01*
X114169937Y-99725400D01*
X114503280Y-99659093D01*
X114817283Y-99529029D01*
X115099878Y-99340205D01*
X115340205Y-99099878D01*
X115529029Y-98817283D01*
X115659093Y-98503280D01*
X115725400Y-98169937D01*
X115725400Y-97830063D01*
X115659093Y-97496720D01*
X115529029Y-97182717D01*
X115340205Y-96900122D01*
X115180083Y-96740000D01*
X117173510Y-96740000D01*
X117173510Y-98940000D01*
X117177862Y-98984186D01*
X117190751Y-99026674D01*
X117211680Y-99065831D01*
X117239847Y-99100153D01*
X117274169Y-99128320D01*
X117313326Y-99149249D01*
X117355814Y-99162138D01*
X117400000Y-99166490D01*
X119600000Y-99166490D01*
X119644186Y-99162138D01*
X119686674Y-99149249D01*
X119725831Y-99128320D01*
X119760153Y-99100153D01*
X119788320Y-99065831D01*
X119809249Y-99026674D01*
X119822138Y-98984186D01*
X119826490Y-98940000D01*
X119826490Y-96740000D01*
X180173510Y-96740000D01*
X180173510Y-98940000D01*
X180177862Y-98984186D01*
X180190751Y-99026674D01*
X180211680Y-99065831D01*
X180239847Y-99100153D01*
X180274169Y-99128320D01*
X180313326Y-99149249D01*
X180355814Y-99162138D01*
X180400000Y-99166490D01*
X182600000Y-99166490D01*
X182644186Y-99162138D01*
X182686674Y-99149249D01*
X182725831Y-99128320D01*
X182760153Y-99100153D01*
X182788320Y-99065831D01*
X182809249Y-99026674D01*
X182822138Y-98984186D01*
X182826490Y-98940000D01*
X182826490Y-97830063D01*
X184274600Y-97830063D01*
X184274600Y-98169937D01*
X184340907Y-98503280D01*
X184470971Y-98817283D01*
X184659795Y-99099878D01*
X184900122Y-99340205D01*
X185182717Y-99529029D01*
X185496720Y-99659093D01*
X185830063Y-99725400D01*
X186169937Y-99725400D01*
X186503280Y-99659093D01*
X186817283Y-99529029D01*
X187099878Y-99340205D01*
X187340205Y-99099878D01*
X187529029Y-98817283D01*
X187659093Y-98503280D01*
X187725400Y-98169937D01*
X187725400Y-97830063D01*
X187659093Y-97496720D01*
X187529029Y-97182717D01*
X187340205Y-96900122D01*
X187099878Y-96659795D01*
X186817283Y-96470971D01*
X186503280Y-96340907D01*
X186169937Y-96274600D01*
X185830063Y-96274600D01*
X185496720Y-96340907D01*
X185182717Y-96470971D01*
X184900122Y-96659795D01*
X184659795Y-96900122D01*
X184470971Y-97182717D01*
X184340907Y-97496720D01*
X184274600Y-97830063D01*
X182826490Y-97830063D01*
X182826490Y-96740000D01*
X182822138Y-96695814D01*
X182809249Y-96653326D01*
X182788320Y-96614169D01*
X182760153Y-96579847D01*
X182725831Y-96551680D01*
X182686674Y-96530751D01*
X182644186Y-96517862D01*
X182600000Y-96513510D01*
X180400000Y-96513510D01*
X180355814Y-96517862D01*
X180313326Y-96530751D01*
X180274169Y-96551680D01*
X180239847Y-96579847D01*
X180211680Y-96614169D01*
X180190751Y-96653326D01*
X180177862Y-96695814D01*
X180173510Y-96740000D01*
X119826490Y-96740000D01*
X119822138Y-96695814D01*
X119809249Y-96653326D01*
X119788320Y-96614169D01*
X119760153Y-96579847D01*
X119725831Y-96551680D01*
X119686674Y-96530751D01*
X119644186Y-96517862D01*
X119600000Y-96513510D01*
X117400000Y-96513510D01*
X117355814Y-96517862D01*
X117313326Y-96530751D01*
X117274169Y-96551680D01*
X117239847Y-96579847D01*
X117211680Y-96614169D01*
X117190751Y-96653326D01*
X117177862Y-96695814D01*
X117173510Y-96740000D01*
X115180083Y-96740000D01*
X115099878Y-96659795D01*
X114817283Y-96470971D01*
X114503280Y-96340907D01*
X114169937Y-96274600D01*
X113830063Y-96274600D01*
X113496720Y-96340907D01*
X113182717Y-96470971D01*
X112900122Y-96659795D01*
X112659795Y-96900122D01*
X112470971Y-97182717D01*
X112340907Y-97496720D01*
X112274600Y-97830063D01*
X110177400Y-97830063D01*
X110177400Y-94860753D01*
X123462536Y-94860753D01*
X123561737Y-94992136D01*
X123763714Y-95058573D01*
X123974771Y-95084331D01*
X124186799Y-95068418D01*
X124391647Y-95011446D01*
X124438263Y-94992136D01*
X124537464Y-94860753D01*
X132962536Y-94860753D01*
X133061737Y-94992136D01*
X133263714Y-95058573D01*
X133474771Y-95084331D01*
X133686799Y-95068418D01*
X133891647Y-95011446D01*
X133938263Y-94992136D01*
X134037464Y-94860753D01*
X133500000Y-94323289D01*
X132962536Y-94860753D01*
X124537464Y-94860753D01*
X124000000Y-94323289D01*
X123462536Y-94860753D01*
X110177400Y-94860753D01*
X110177400Y-93974771D01*
X122915669Y-93974771D01*
X122931582Y-94186799D01*
X122988554Y-94391647D01*
X123007864Y-94438263D01*
X123139247Y-94537464D01*
X123676711Y-94000000D01*
X124323289Y-94000000D01*
X124860753Y-94537464D01*
X124992136Y-94438263D01*
X125058573Y-94236286D01*
X125084331Y-94025229D01*
X125080545Y-93974771D01*
X132415669Y-93974771D01*
X132431582Y-94186799D01*
X132488554Y-94391647D01*
X132507864Y-94438263D01*
X132639247Y-94537464D01*
X133176711Y-94000000D01*
X133823289Y-94000000D01*
X134360753Y-94537464D01*
X134492136Y-94438263D01*
X134558573Y-94236286D01*
X134584331Y-94025229D01*
X134568418Y-93813201D01*
X134511446Y-93608353D01*
X134492136Y-93561737D01*
X134360753Y-93462536D01*
X133823289Y-94000000D01*
X133176711Y-94000000D01*
X132639247Y-93462536D01*
X132507864Y-93561737D01*
X132441427Y-93763714D01*
X132415669Y-93974771D01*
X125080545Y-93974771D01*
X125068418Y-93813201D01*
X125011446Y-93608353D01*
X124992136Y-93561737D01*
X124860753Y-93462536D01*
X124323289Y-94000000D01*
X123676711Y-94000000D01*
X123139247Y-93462536D01*
X123007864Y-93561737D01*
X122941427Y-93763714D01*
X122915669Y-93974771D01*
X110177400Y-93974771D01*
X110177400Y-90508673D01*
X110211329Y-90162628D01*
X110574600Y-90162628D01*
X110574600Y-90837372D01*
X110706236Y-91499152D01*
X110964450Y-92122535D01*
X111339318Y-92683565D01*
X111816435Y-93160682D01*
X112377465Y-93535550D01*
X113000848Y-93793764D01*
X113662628Y-93925400D01*
X114337372Y-93925400D01*
X114999152Y-93793764D01*
X115622535Y-93535550D01*
X116183565Y-93160682D01*
X116205000Y-93139247D01*
X123462536Y-93139247D01*
X124000000Y-93676711D01*
X124537464Y-93139247D01*
X132962536Y-93139247D01*
X133500000Y-93676711D01*
X134037464Y-93139247D01*
X133938263Y-93007864D01*
X133736286Y-92941427D01*
X133525229Y-92915669D01*
X133313201Y-92931582D01*
X133108353Y-92988554D01*
X133061737Y-93007864D01*
X132962536Y-93139247D01*
X124537464Y-93139247D01*
X124438263Y-93007864D01*
X124236286Y-92941427D01*
X124025229Y-92915669D01*
X123813201Y-92931582D01*
X123608353Y-92988554D01*
X123561737Y-93007864D01*
X123462536Y-93139247D01*
X116205000Y-93139247D01*
X116449609Y-92894638D01*
X149282100Y-92894638D01*
X149282100Y-93105361D01*
X149299144Y-93278408D01*
X149366497Y-93500443D01*
X149475873Y-93705071D01*
X149623069Y-93884431D01*
X149802428Y-94031627D01*
X150007056Y-94141003D01*
X150229091Y-94208356D01*
X150460000Y-94231099D01*
X150690908Y-94208356D01*
X150912943Y-94141003D01*
X151117571Y-94031627D01*
X151296931Y-93884431D01*
X151444127Y-93705072D01*
X151553503Y-93500444D01*
X151620856Y-93278409D01*
X151637900Y-93105362D01*
X151637900Y-92894639D01*
X151637900Y-92894638D01*
X151822100Y-92894638D01*
X151822100Y-93105361D01*
X151839144Y-93278408D01*
X151906497Y-93500443D01*
X152015873Y-93705071D01*
X152163069Y-93884431D01*
X152342428Y-94031627D01*
X152547056Y-94141003D01*
X152769091Y-94208356D01*
X153000000Y-94231099D01*
X153230908Y-94208356D01*
X153452943Y-94141003D01*
X153657571Y-94031627D01*
X153836931Y-93884431D01*
X153984127Y-93705072D01*
X154093503Y-93500444D01*
X154160856Y-93278409D01*
X154177900Y-93105362D01*
X154177900Y-92894639D01*
X154160856Y-92721592D01*
X154093503Y-92499557D01*
X153984127Y-92294929D01*
X153836931Y-92115569D01*
X153696110Y-92000000D01*
X154361010Y-92000000D01*
X154361010Y-94000000D01*
X154365362Y-94044186D01*
X154378251Y-94086674D01*
X154399180Y-94125831D01*
X154427347Y-94160153D01*
X154461669Y-94188320D01*
X154500826Y-94209249D01*
X154543314Y-94222138D01*
X154587500Y-94226490D01*
X156492500Y-94226490D01*
X156536686Y-94222138D01*
X156579174Y-94209249D01*
X156618331Y-94188320D01*
X156652653Y-94160153D01*
X156680820Y-94125831D01*
X156701749Y-94086674D01*
X156714638Y-94044186D01*
X156718990Y-94000000D01*
X156718990Y-92894638D01*
X161282100Y-92894638D01*
X161282100Y-93105361D01*
X161299144Y-93278408D01*
X161366497Y-93500443D01*
X161475873Y-93705071D01*
X161623069Y-93884431D01*
X161802428Y-94031627D01*
X162007056Y-94141003D01*
X162229091Y-94208356D01*
X162460000Y-94231099D01*
X162690908Y-94208356D01*
X162912943Y-94141003D01*
X163117571Y-94031627D01*
X163296931Y-93884431D01*
X163444127Y-93705072D01*
X163553503Y-93500444D01*
X163620856Y-93278409D01*
X163637900Y-93105362D01*
X163637900Y-92894639D01*
X163637900Y-92894638D01*
X163822100Y-92894638D01*
X163822100Y-93105361D01*
X163839144Y-93278408D01*
X163906497Y-93500443D01*
X164015873Y-93705071D01*
X164163069Y-93884431D01*
X164342428Y-94031627D01*
X164547056Y-94141003D01*
X164769091Y-94208356D01*
X165000000Y-94231099D01*
X165230908Y-94208356D01*
X165452943Y-94141003D01*
X165657571Y-94031627D01*
X165836931Y-93884431D01*
X165984127Y-93705072D01*
X166093503Y-93500444D01*
X166160856Y-93278409D01*
X166177900Y-93105362D01*
X166177900Y-92894639D01*
X166160856Y-92721592D01*
X166093503Y-92499557D01*
X165984127Y-92294929D01*
X165836931Y-92115569D01*
X165696110Y-92000000D01*
X166361010Y-92000000D01*
X166361010Y-94000000D01*
X166365362Y-94044186D01*
X166378251Y-94086674D01*
X166399180Y-94125831D01*
X166427347Y-94160153D01*
X166461669Y-94188320D01*
X166500826Y-94209249D01*
X166543314Y-94222138D01*
X166587500Y-94226490D01*
X168492500Y-94226490D01*
X168536686Y-94222138D01*
X168579174Y-94209249D01*
X168618331Y-94188320D01*
X168652653Y-94160153D01*
X168680820Y-94125831D01*
X168701749Y-94086674D01*
X168714638Y-94044186D01*
X168718990Y-94000000D01*
X168718990Y-92000000D01*
X168714638Y-91955814D01*
X168701749Y-91913326D01*
X168680820Y-91874169D01*
X168652653Y-91839847D01*
X168618331Y-91811680D01*
X168579174Y-91790751D01*
X168536686Y-91777862D01*
X168492500Y-91773510D01*
X166587500Y-91773510D01*
X166543314Y-91777862D01*
X166500826Y-91790751D01*
X166461669Y-91811680D01*
X166427347Y-91839847D01*
X166399180Y-91874169D01*
X166378251Y-91913326D01*
X166365362Y-91955814D01*
X166361010Y-92000000D01*
X165696110Y-92000000D01*
X165657572Y-91968373D01*
X165452944Y-91858997D01*
X165230909Y-91791644D01*
X165000000Y-91768901D01*
X164769092Y-91791644D01*
X164547057Y-91858997D01*
X164342429Y-91968373D01*
X164163069Y-92115569D01*
X164015873Y-92294928D01*
X163906497Y-92499556D01*
X163839144Y-92721591D01*
X163822100Y-92894638D01*
X163637900Y-92894638D01*
X163620856Y-92721592D01*
X163553503Y-92499557D01*
X163444127Y-92294929D01*
X163296931Y-92115569D01*
X163117572Y-91968373D01*
X162912944Y-91858997D01*
X162690909Y-91791644D01*
X162460000Y-91768901D01*
X162229092Y-91791644D01*
X162007057Y-91858997D01*
X161802429Y-91968373D01*
X161623069Y-92115569D01*
X161475873Y-92294928D01*
X161366497Y-92499556D01*
X161299144Y-92721591D01*
X161282100Y-92894638D01*
X156718990Y-92894638D01*
X156718990Y-92000000D01*
X156714638Y-91955814D01*
X156701749Y-91913326D01*
X156680820Y-91874169D01*
X156652653Y-91839847D01*
X156618331Y-91811680D01*
X156579174Y-91790751D01*
X156536686Y-91777862D01*
X156492500Y-91773510D01*
X154587500Y-91773510D01*
X154543314Y-91777862D01*
X154500826Y-91790751D01*
X154461669Y-91811680D01*
X154427347Y-91839847D01*
X154399180Y-91874169D01*
X154378251Y-91913326D01*
X154365362Y-91955814D01*
X154361010Y-92000000D01*
X153696110Y-92000000D01*
X153657572Y-91968373D01*
X153452944Y-91858997D01*
X153230909Y-91791644D01*
X153000000Y-91768901D01*
X152769092Y-91791644D01*
X152547057Y-91858997D01*
X152342429Y-91968373D01*
X152163069Y-92115569D01*
X152015873Y-92294928D01*
X151906497Y-92499556D01*
X151839144Y-92721591D01*
X151822100Y-92894638D01*
X151637900Y-92894638D01*
X151620856Y-92721592D01*
X151553503Y-92499557D01*
X151444127Y-92294929D01*
X151296931Y-92115569D01*
X151117572Y-91968373D01*
X150912944Y-91858997D01*
X150690909Y-91791644D01*
X150460000Y-91768901D01*
X150229092Y-91791644D01*
X150007057Y-91858997D01*
X149802429Y-91968373D01*
X149623069Y-92115569D01*
X149475873Y-92294928D01*
X149366497Y-92499556D01*
X149299144Y-92721591D01*
X149282100Y-92894638D01*
X116449609Y-92894638D01*
X116660682Y-92683565D01*
X117035550Y-92122535D01*
X117293764Y-91499152D01*
X117425400Y-90837372D01*
X117425400Y-90162628D01*
X117333378Y-89700000D01*
X122973510Y-89700000D01*
X122973510Y-91300000D01*
X122977862Y-91344186D01*
X122990751Y-91386674D01*
X123011680Y-91425831D01*
X123039847Y-91460153D01*
X123074169Y-91488320D01*
X123113326Y-91509249D01*
X123155814Y-91522138D01*
X123200000Y-91526490D01*
X124800000Y-91526490D01*
X124844186Y-91522138D01*
X124886674Y-91509249D01*
X124925831Y-91488320D01*
X124960153Y-91460153D01*
X124988320Y-91425831D01*
X125009249Y-91386674D01*
X125022138Y-91344186D01*
X125026490Y-91300000D01*
X125026490Y-89700000D01*
X132473510Y-89700000D01*
X132473510Y-91300000D01*
X132477862Y-91344186D01*
X132490751Y-91386674D01*
X132511680Y-91425831D01*
X132539847Y-91460153D01*
X132574169Y-91488320D01*
X132613326Y-91509249D01*
X132655814Y-91522138D01*
X132700000Y-91526490D01*
X134300000Y-91526490D01*
X134344186Y-91522138D01*
X134386674Y-91509249D01*
X134425831Y-91488320D01*
X134460153Y-91460153D01*
X134488320Y-91425831D01*
X134509249Y-91386674D01*
X134522138Y-91344186D01*
X134526490Y-91300000D01*
X134526490Y-90162628D01*
X182574600Y-90162628D01*
X182574600Y-90837372D01*
X182706236Y-91499152D01*
X182964450Y-92122535D01*
X183339318Y-92683565D01*
X183816435Y-93160682D01*
X184377465Y-93535550D01*
X185000848Y-93793764D01*
X185662628Y-93925400D01*
X186337372Y-93925400D01*
X186999152Y-93793764D01*
X187622535Y-93535550D01*
X188183565Y-93160682D01*
X188660682Y-92683565D01*
X189035550Y-92122535D01*
X189293764Y-91499152D01*
X189425400Y-90837372D01*
X189425400Y-90162628D01*
X189293764Y-89500848D01*
X189035550Y-88877465D01*
X188660682Y-88316435D01*
X188183565Y-87839318D01*
X187622535Y-87464450D01*
X186999152Y-87206236D01*
X186337372Y-87074600D01*
X185662628Y-87074600D01*
X185000848Y-87206236D01*
X184377465Y-87464450D01*
X183816435Y-87839318D01*
X183339318Y-88316435D01*
X182964450Y-88877465D01*
X182706236Y-89500848D01*
X182574600Y-90162628D01*
X134526490Y-90162628D01*
X134526490Y-89700000D01*
X134522138Y-89655814D01*
X134509249Y-89613326D01*
X134488320Y-89574169D01*
X134460153Y-89539847D01*
X134425831Y-89511680D01*
X134386674Y-89490751D01*
X134344186Y-89477862D01*
X134300000Y-89473510D01*
X132700000Y-89473510D01*
X132655814Y-89477862D01*
X132613326Y-89490751D01*
X132574169Y-89511680D01*
X132539847Y-89539847D01*
X132511680Y-89574169D01*
X132490751Y-89613326D01*
X132477862Y-89655814D01*
X132473510Y-89700000D01*
X125026490Y-89700000D01*
X125022138Y-89655814D01*
X125009249Y-89613326D01*
X124988320Y-89574169D01*
X124960153Y-89539847D01*
X124925831Y-89511680D01*
X124886674Y-89490751D01*
X124844186Y-89477862D01*
X124800000Y-89473510D01*
X123200000Y-89473510D01*
X123155814Y-89477862D01*
X123113326Y-89490751D01*
X123074169Y-89511680D01*
X123039847Y-89539847D01*
X123011680Y-89574169D01*
X122990751Y-89613326D01*
X122977862Y-89655814D01*
X122973510Y-89700000D01*
X117333378Y-89700000D01*
X117293764Y-89500848D01*
X117035550Y-88877465D01*
X116660682Y-88316435D01*
X116183565Y-87839318D01*
X115622535Y-87464450D01*
X114999152Y-87206236D01*
X114337372Y-87074600D01*
X113662628Y-87074600D01*
X113000848Y-87206236D01*
X112377465Y-87464450D01*
X111816435Y-87839318D01*
X111339318Y-88316435D01*
X110964450Y-88877465D01*
X110706236Y-89500848D01*
X110574600Y-90162628D01*
X110211329Y-90162628D01*
X110251035Y-89757684D01*
X110466616Y-89043646D01*
X110816784Y-88385076D01*
X111288198Y-87807065D01*
X111862903Y-87331628D01*
X112519016Y-86976869D01*
X113231533Y-86756308D01*
X113981678Y-86677465D01*
X114000328Y-86677400D01*
X185991327Y-86677400D01*
X186742316Y-86751035D01*
%TD*%
M02*
