%TF.GenerationSoftware,KiCad,Pcbnew,(5.1.6)-1*%
%TF.CreationDate,2021-05-08T17:44:37+05:30*%
%TF.ProjectId,CC CV Power Supply Rev 3,43432043-5620-4506-9f77-657220537570,rev?*%
%TF.SameCoordinates,Original*%
%TF.FileFunction,Soldermask,Top*%
%TF.FilePolarity,Negative*%
%FSLAX46Y46*%
G04 Gerber Fmt 4.6, Leading zero omitted, Abs format (unit mm)*
G04 Created by KiCad (PCBNEW (5.1.6)-1) date 2021-05-08 17:44:37*
%MOMM*%
%LPD*%
G01*
G04 APERTURE LIST*
%ADD10C,0.152400*%
%ADD11C,0.100000*%
%ADD12R,1.000000X1.400000*%
%ADD13R,1.000000X0.900000*%
%ADD14C,1.100000*%
%ADD15R,0.900000X1.000000*%
%ADD16R,0.700000X0.550000*%
%ADD17O,2.900000X2.900000*%
%ADD18C,2.900000*%
%ADD19C,1.700000*%
%ADD20R,1.700000X1.700000*%
%ADD21O,1.800000X1.800000*%
%ADD22R,1.800000X1.800000*%
%ADD23O,2.300000X2.300000*%
%ADD24R,2.300000X2.300000*%
%ADD25C,0.900000*%
%ADD26C,6.500000*%
%ADD27O,2.005000X2.100000*%
%ADD28R,2.005000X2.100000*%
%ADD29C,3.100000*%
%ADD30C,0.709600*%
G04 APERTURE END LIST*
D10*
X156362133Y-105117695D02*
X156362133Y-104304895D01*
X156865295Y-105117695D02*
X156787885Y-105078990D01*
X156749180Y-105040285D01*
X156710476Y-104962876D01*
X156710476Y-104730647D01*
X156749180Y-104653238D01*
X156787885Y-104614533D01*
X156865295Y-104575828D01*
X156981409Y-104575828D01*
X157058819Y-104614533D01*
X157097523Y-104653238D01*
X157136228Y-104730647D01*
X157136228Y-104962876D01*
X157097523Y-105040285D01*
X157058819Y-105078990D01*
X156981409Y-105117695D01*
X156865295Y-105117695D01*
X157832914Y-104575828D02*
X157832914Y-105117695D01*
X157484571Y-104575828D02*
X157484571Y-105001580D01*
X157523276Y-105078990D01*
X157600685Y-105117695D01*
X157716800Y-105117695D01*
X157794209Y-105078990D01*
X157832914Y-105040285D01*
X158103847Y-104575828D02*
X158413485Y-104575828D01*
X158219961Y-104304895D02*
X158219961Y-105001580D01*
X158258666Y-105078990D01*
X158336076Y-105117695D01*
X158413485Y-105117695D01*
X159303695Y-104691942D02*
X159922971Y-104691942D01*
X159922971Y-104924171D02*
X159303695Y-104924171D01*
X161316342Y-104304895D02*
X160929295Y-104304895D01*
X160890590Y-104691942D01*
X160929295Y-104653238D01*
X161006704Y-104614533D01*
X161200228Y-104614533D01*
X161277638Y-104653238D01*
X161316342Y-104691942D01*
X161355047Y-104769352D01*
X161355047Y-104962876D01*
X161316342Y-105040285D01*
X161277638Y-105078990D01*
X161200228Y-105117695D01*
X161006704Y-105117695D01*
X160929295Y-105078990D01*
X160890590Y-105040285D01*
X161858209Y-104304895D02*
X161935619Y-104304895D01*
X162013028Y-104343600D01*
X162051733Y-104382304D01*
X162090438Y-104459714D01*
X162129142Y-104614533D01*
X162129142Y-104808057D01*
X162090438Y-104962876D01*
X162051733Y-105040285D01*
X162013028Y-105078990D01*
X161935619Y-105117695D01*
X161858209Y-105117695D01*
X161780800Y-105078990D01*
X161742095Y-105040285D01*
X161703390Y-104962876D01*
X161664685Y-104808057D01*
X161664685Y-104614533D01*
X161703390Y-104459714D01*
X161742095Y-104382304D01*
X161780800Y-104343600D01*
X161858209Y-104304895D01*
X162632304Y-104304895D02*
X162709714Y-104304895D01*
X162787123Y-104343600D01*
X162825828Y-104382304D01*
X162864533Y-104459714D01*
X162903238Y-104614533D01*
X162903238Y-104808057D01*
X162864533Y-104962876D01*
X162825828Y-105040285D01*
X162787123Y-105078990D01*
X162709714Y-105117695D01*
X162632304Y-105117695D01*
X162554895Y-105078990D01*
X162516190Y-105040285D01*
X162477485Y-104962876D01*
X162438780Y-104808057D01*
X162438780Y-104614533D01*
X162477485Y-104459714D01*
X162516190Y-104382304D01*
X162554895Y-104343600D01*
X162632304Y-104304895D01*
X163251580Y-105117695D02*
X163251580Y-104575828D01*
X163251580Y-104653238D02*
X163290285Y-104614533D01*
X163367695Y-104575828D01*
X163483809Y-104575828D01*
X163561219Y-104614533D01*
X163599923Y-104691942D01*
X163599923Y-105117695D01*
X163599923Y-104691942D02*
X163638628Y-104614533D01*
X163716038Y-104575828D01*
X163832152Y-104575828D01*
X163909561Y-104614533D01*
X163948266Y-104691942D01*
X163948266Y-105117695D01*
X164219200Y-104304895D02*
X164490133Y-105117695D01*
X164761066Y-104304895D01*
X165612571Y-104266190D02*
X164915885Y-105311219D01*
X166347961Y-105117695D02*
X166077028Y-104730647D01*
X165883504Y-105117695D02*
X165883504Y-104304895D01*
X166193142Y-104304895D01*
X166270552Y-104343600D01*
X166309257Y-104382304D01*
X166347961Y-104459714D01*
X166347961Y-104575828D01*
X166309257Y-104653238D01*
X166270552Y-104691942D01*
X166193142Y-104730647D01*
X165883504Y-104730647D01*
X166657600Y-105078990D02*
X166735009Y-105117695D01*
X166889828Y-105117695D01*
X166967238Y-105078990D01*
X167005942Y-105001580D01*
X167005942Y-104962876D01*
X166967238Y-104885466D01*
X166889828Y-104846761D01*
X166773714Y-104846761D01*
X166696304Y-104808057D01*
X166657600Y-104730647D01*
X166657600Y-104691942D01*
X166696304Y-104614533D01*
X166773714Y-104575828D01*
X166889828Y-104575828D01*
X166967238Y-104614533D01*
X167354285Y-105117695D02*
X167354285Y-104304895D01*
X167702628Y-105117695D02*
X167702628Y-104691942D01*
X167663923Y-104614533D01*
X167586514Y-104575828D01*
X167470400Y-104575828D01*
X167392990Y-104614533D01*
X167354285Y-104653238D01*
X168438019Y-104575828D02*
X168438019Y-105117695D01*
X168089676Y-104575828D02*
X168089676Y-105001580D01*
X168128380Y-105078990D01*
X168205790Y-105117695D01*
X168321904Y-105117695D01*
X168399314Y-105078990D01*
X168438019Y-105040285D01*
X168825066Y-104575828D02*
X168825066Y-105117695D01*
X168825066Y-104653238D02*
X168863771Y-104614533D01*
X168941180Y-104575828D01*
X169057295Y-104575828D01*
X169134704Y-104614533D01*
X169173409Y-104691942D01*
X169173409Y-105117695D01*
X169444342Y-104575828D02*
X169753980Y-104575828D01*
X169560457Y-104304895D02*
X169560457Y-105001580D01*
X169599161Y-105078990D01*
X169676571Y-105117695D01*
X169753980Y-105117695D01*
X156362133Y-115617695D02*
X156362133Y-114804895D01*
X156865295Y-115617695D02*
X156787885Y-115578990D01*
X156749180Y-115540285D01*
X156710476Y-115462876D01*
X156710476Y-115230647D01*
X156749180Y-115153238D01*
X156787885Y-115114533D01*
X156865295Y-115075828D01*
X156981409Y-115075828D01*
X157058819Y-115114533D01*
X157097523Y-115153238D01*
X157136228Y-115230647D01*
X157136228Y-115462876D01*
X157097523Y-115540285D01*
X157058819Y-115578990D01*
X156981409Y-115617695D01*
X156865295Y-115617695D01*
X157832914Y-115075828D02*
X157832914Y-115617695D01*
X157484571Y-115075828D02*
X157484571Y-115501580D01*
X157523276Y-115578990D01*
X157600685Y-115617695D01*
X157716800Y-115617695D01*
X157794209Y-115578990D01*
X157832914Y-115540285D01*
X158103847Y-115075828D02*
X158413485Y-115075828D01*
X158219961Y-114804895D02*
X158219961Y-115501580D01*
X158258666Y-115578990D01*
X158336076Y-115617695D01*
X158413485Y-115617695D01*
X159303695Y-115191942D02*
X159922971Y-115191942D01*
X159922971Y-115424171D02*
X159303695Y-115424171D01*
X161316342Y-114804895D02*
X160929295Y-114804895D01*
X160890590Y-115191942D01*
X160929295Y-115153238D01*
X161006704Y-115114533D01*
X161200228Y-115114533D01*
X161277638Y-115153238D01*
X161316342Y-115191942D01*
X161355047Y-115269352D01*
X161355047Y-115462876D01*
X161316342Y-115540285D01*
X161277638Y-115578990D01*
X161200228Y-115617695D01*
X161006704Y-115617695D01*
X160929295Y-115578990D01*
X160890590Y-115540285D01*
X161858209Y-114804895D02*
X161935619Y-114804895D01*
X162013028Y-114843600D01*
X162051733Y-114882304D01*
X162090438Y-114959714D01*
X162129142Y-115114533D01*
X162129142Y-115308057D01*
X162090438Y-115462876D01*
X162051733Y-115540285D01*
X162013028Y-115578990D01*
X161935619Y-115617695D01*
X161858209Y-115617695D01*
X161780800Y-115578990D01*
X161742095Y-115540285D01*
X161703390Y-115462876D01*
X161664685Y-115308057D01*
X161664685Y-115114533D01*
X161703390Y-114959714D01*
X161742095Y-114882304D01*
X161780800Y-114843600D01*
X161858209Y-114804895D01*
X162632304Y-114804895D02*
X162709714Y-114804895D01*
X162787123Y-114843600D01*
X162825828Y-114882304D01*
X162864533Y-114959714D01*
X162903238Y-115114533D01*
X162903238Y-115308057D01*
X162864533Y-115462876D01*
X162825828Y-115540285D01*
X162787123Y-115578990D01*
X162709714Y-115617695D01*
X162632304Y-115617695D01*
X162554895Y-115578990D01*
X162516190Y-115540285D01*
X162477485Y-115462876D01*
X162438780Y-115308057D01*
X162438780Y-115114533D01*
X162477485Y-114959714D01*
X162516190Y-114882304D01*
X162554895Y-114843600D01*
X162632304Y-114804895D01*
X163251580Y-115617695D02*
X163251580Y-115075828D01*
X163251580Y-115153238D02*
X163290285Y-115114533D01*
X163367695Y-115075828D01*
X163483809Y-115075828D01*
X163561219Y-115114533D01*
X163599923Y-115191942D01*
X163599923Y-115617695D01*
X163599923Y-115191942D02*
X163638628Y-115114533D01*
X163716038Y-115075828D01*
X163832152Y-115075828D01*
X163909561Y-115114533D01*
X163948266Y-115191942D01*
X163948266Y-115617695D01*
X164219200Y-114804895D02*
X164490133Y-115617695D01*
X164761066Y-114804895D01*
X165612571Y-114766190D02*
X164915885Y-115811219D01*
X166347961Y-115617695D02*
X166077028Y-115230647D01*
X165883504Y-115617695D02*
X165883504Y-114804895D01*
X166193142Y-114804895D01*
X166270552Y-114843600D01*
X166309257Y-114882304D01*
X166347961Y-114959714D01*
X166347961Y-115075828D01*
X166309257Y-115153238D01*
X166270552Y-115191942D01*
X166193142Y-115230647D01*
X165883504Y-115230647D01*
X166657600Y-115578990D02*
X166735009Y-115617695D01*
X166889828Y-115617695D01*
X166967238Y-115578990D01*
X167005942Y-115501580D01*
X167005942Y-115462876D01*
X166967238Y-115385466D01*
X166889828Y-115346761D01*
X166773714Y-115346761D01*
X166696304Y-115308057D01*
X166657600Y-115230647D01*
X166657600Y-115191942D01*
X166696304Y-115114533D01*
X166773714Y-115075828D01*
X166889828Y-115075828D01*
X166967238Y-115114533D01*
X167354285Y-115617695D02*
X167354285Y-114804895D01*
X167702628Y-115617695D02*
X167702628Y-115191942D01*
X167663923Y-115114533D01*
X167586514Y-115075828D01*
X167470400Y-115075828D01*
X167392990Y-115114533D01*
X167354285Y-115153238D01*
X168438019Y-115075828D02*
X168438019Y-115617695D01*
X168089676Y-115075828D02*
X168089676Y-115501580D01*
X168128380Y-115578990D01*
X168205790Y-115617695D01*
X168321904Y-115617695D01*
X168399314Y-115578990D01*
X168438019Y-115540285D01*
X168825066Y-115075828D02*
X168825066Y-115617695D01*
X168825066Y-115153238D02*
X168863771Y-115114533D01*
X168941180Y-115075828D01*
X169057295Y-115075828D01*
X169134704Y-115114533D01*
X169173409Y-115191942D01*
X169173409Y-115617695D01*
X169444342Y-115075828D02*
X169753980Y-115075828D01*
X169560457Y-114804895D02*
X169560457Y-115501580D01*
X169599161Y-115578990D01*
X169676571Y-115617695D01*
X169753980Y-115617695D01*
X144615676Y-88168685D02*
X144576971Y-88207390D01*
X144460857Y-88246095D01*
X144383447Y-88246095D01*
X144267333Y-88207390D01*
X144189923Y-88129980D01*
X144151219Y-88052571D01*
X144112514Y-87897752D01*
X144112514Y-87781638D01*
X144151219Y-87626819D01*
X144189923Y-87549409D01*
X144267333Y-87472000D01*
X144383447Y-87433295D01*
X144460857Y-87433295D01*
X144576971Y-87472000D01*
X144615676Y-87510704D01*
X145428476Y-88168685D02*
X145389771Y-88207390D01*
X145273657Y-88246095D01*
X145196247Y-88246095D01*
X145080133Y-88207390D01*
X145002723Y-88129980D01*
X144964019Y-88052571D01*
X144925314Y-87897752D01*
X144925314Y-87781638D01*
X144964019Y-87626819D01*
X145002723Y-87549409D01*
X145080133Y-87472000D01*
X145196247Y-87433295D01*
X145273657Y-87433295D01*
X145389771Y-87472000D01*
X145428476Y-87510704D01*
X146357390Y-87394590D02*
X145660704Y-88439619D01*
X147092780Y-88168685D02*
X147054076Y-88207390D01*
X146937961Y-88246095D01*
X146860552Y-88246095D01*
X146744438Y-88207390D01*
X146667028Y-88129980D01*
X146628323Y-88052571D01*
X146589619Y-87897752D01*
X146589619Y-87781638D01*
X146628323Y-87626819D01*
X146667028Y-87549409D01*
X146744438Y-87472000D01*
X146860552Y-87433295D01*
X146937961Y-87433295D01*
X147054076Y-87472000D01*
X147092780Y-87510704D01*
X147325009Y-87433295D02*
X147595942Y-88246095D01*
X147866876Y-87433295D01*
X148757085Y-88246095D02*
X148757085Y-87433295D01*
X149066723Y-87433295D01*
X149144133Y-87472000D01*
X149182838Y-87510704D01*
X149221542Y-87588114D01*
X149221542Y-87704228D01*
X149182838Y-87781638D01*
X149144133Y-87820342D01*
X149066723Y-87859047D01*
X148757085Y-87859047D01*
X149686000Y-88246095D02*
X149608590Y-88207390D01*
X149569885Y-88168685D01*
X149531180Y-88091276D01*
X149531180Y-87859047D01*
X149569885Y-87781638D01*
X149608590Y-87742933D01*
X149686000Y-87704228D01*
X149802114Y-87704228D01*
X149879523Y-87742933D01*
X149918228Y-87781638D01*
X149956933Y-87859047D01*
X149956933Y-88091276D01*
X149918228Y-88168685D01*
X149879523Y-88207390D01*
X149802114Y-88246095D01*
X149686000Y-88246095D01*
X150227866Y-87704228D02*
X150382685Y-88246095D01*
X150537504Y-87859047D01*
X150692323Y-88246095D01*
X150847142Y-87704228D01*
X151466419Y-88207390D02*
X151389009Y-88246095D01*
X151234190Y-88246095D01*
X151156780Y-88207390D01*
X151118076Y-88129980D01*
X151118076Y-87820342D01*
X151156780Y-87742933D01*
X151234190Y-87704228D01*
X151389009Y-87704228D01*
X151466419Y-87742933D01*
X151505123Y-87820342D01*
X151505123Y-87897752D01*
X151118076Y-87975161D01*
X151853466Y-88246095D02*
X151853466Y-87704228D01*
X151853466Y-87859047D02*
X151892171Y-87781638D01*
X151930876Y-87742933D01*
X152008285Y-87704228D01*
X152085695Y-87704228D01*
X152937200Y-88207390D02*
X153053314Y-88246095D01*
X153246838Y-88246095D01*
X153324247Y-88207390D01*
X153362952Y-88168685D01*
X153401657Y-88091276D01*
X153401657Y-88013866D01*
X153362952Y-87936457D01*
X153324247Y-87897752D01*
X153246838Y-87859047D01*
X153092019Y-87820342D01*
X153014609Y-87781638D01*
X152975904Y-87742933D01*
X152937200Y-87665523D01*
X152937200Y-87588114D01*
X152975904Y-87510704D01*
X153014609Y-87472000D01*
X153092019Y-87433295D01*
X153285542Y-87433295D01*
X153401657Y-87472000D01*
X154098342Y-87704228D02*
X154098342Y-88246095D01*
X153750000Y-87704228D02*
X153750000Y-88129980D01*
X153788704Y-88207390D01*
X153866114Y-88246095D01*
X153982228Y-88246095D01*
X154059638Y-88207390D01*
X154098342Y-88168685D01*
X154485390Y-87704228D02*
X154485390Y-88517028D01*
X154485390Y-87742933D02*
X154562800Y-87704228D01*
X154717619Y-87704228D01*
X154795028Y-87742933D01*
X154833733Y-87781638D01*
X154872438Y-87859047D01*
X154872438Y-88091276D01*
X154833733Y-88168685D01*
X154795028Y-88207390D01*
X154717619Y-88246095D01*
X154562800Y-88246095D01*
X154485390Y-88207390D01*
X155220780Y-87704228D02*
X155220780Y-88517028D01*
X155220780Y-87742933D02*
X155298190Y-87704228D01*
X155453009Y-87704228D01*
X155530419Y-87742933D01*
X155569123Y-87781638D01*
X155607828Y-87859047D01*
X155607828Y-88091276D01*
X155569123Y-88168685D01*
X155530419Y-88207390D01*
X155453009Y-88246095D01*
X155298190Y-88246095D01*
X155220780Y-88207390D01*
X156072285Y-88246095D02*
X155994876Y-88207390D01*
X155956171Y-88129980D01*
X155956171Y-87433295D01*
X156304514Y-87704228D02*
X156498038Y-88246095D01*
X156691561Y-87704228D02*
X156498038Y-88246095D01*
X156420628Y-88439619D01*
X156381923Y-88478323D01*
X156304514Y-88517028D01*
X158084933Y-88246095D02*
X157814000Y-87859047D01*
X157620476Y-88246095D02*
X157620476Y-87433295D01*
X157930114Y-87433295D01*
X158007523Y-87472000D01*
X158046228Y-87510704D01*
X158084933Y-87588114D01*
X158084933Y-87704228D01*
X158046228Y-87781638D01*
X158007523Y-87820342D01*
X157930114Y-87859047D01*
X157620476Y-87859047D01*
X158742914Y-88207390D02*
X158665504Y-88246095D01*
X158510685Y-88246095D01*
X158433276Y-88207390D01*
X158394571Y-88129980D01*
X158394571Y-87820342D01*
X158433276Y-87742933D01*
X158510685Y-87704228D01*
X158665504Y-87704228D01*
X158742914Y-87742933D01*
X158781619Y-87820342D01*
X158781619Y-87897752D01*
X158394571Y-87975161D01*
X159052552Y-87704228D02*
X159246076Y-88246095D01*
X159439600Y-87704228D01*
X159749238Y-88168685D02*
X159787942Y-88207390D01*
X159749238Y-88246095D01*
X159710533Y-88207390D01*
X159749238Y-88168685D01*
X159749238Y-88246095D01*
X160678152Y-87433295D02*
X161181314Y-87433295D01*
X160910380Y-87742933D01*
X161026495Y-87742933D01*
X161103904Y-87781638D01*
X161142609Y-87820342D01*
X161181314Y-87897752D01*
X161181314Y-88091276D01*
X161142609Y-88168685D01*
X161103904Y-88207390D01*
X161026495Y-88246095D01*
X160794266Y-88246095D01*
X160716857Y-88207390D01*
X160678152Y-88168685D01*
X162613390Y-88246095D02*
X162342457Y-87859047D01*
X162148933Y-88246095D02*
X162148933Y-87433295D01*
X162458571Y-87433295D01*
X162535980Y-87472000D01*
X162574685Y-87510704D01*
X162613390Y-87588114D01*
X162613390Y-87704228D01*
X162574685Y-87781638D01*
X162535980Y-87820342D01*
X162458571Y-87859047D01*
X162148933Y-87859047D01*
X162884323Y-87433295D02*
X163426190Y-87433295D01*
X163077847Y-88246095D01*
X152472742Y-89617695D02*
X152472742Y-88804895D01*
X152937200Y-89617695D01*
X152937200Y-88804895D01*
X153324247Y-89617695D02*
X153324247Y-88804895D01*
X153788704Y-89617695D01*
X153788704Y-88804895D01*
X154175752Y-89617695D02*
X154175752Y-88804895D01*
X154640209Y-89617695D01*
X154640209Y-88804895D01*
X155027257Y-89617695D02*
X155027257Y-88804895D01*
X150285923Y-90989295D02*
X150285923Y-90176495D01*
X150556857Y-90757066D01*
X150827790Y-90176495D01*
X150827790Y-90989295D01*
X151563180Y-90989295D02*
X151563180Y-90563542D01*
X151524476Y-90486133D01*
X151447066Y-90447428D01*
X151292247Y-90447428D01*
X151214838Y-90486133D01*
X151563180Y-90950590D02*
X151485771Y-90989295D01*
X151292247Y-90989295D01*
X151214838Y-90950590D01*
X151176133Y-90873180D01*
X151176133Y-90795771D01*
X151214838Y-90718361D01*
X151292247Y-90679657D01*
X151485771Y-90679657D01*
X151563180Y-90640952D01*
X151950228Y-90989295D02*
X151950228Y-90447428D01*
X151950228Y-90602247D02*
X151988933Y-90524838D01*
X152027638Y-90486133D01*
X152105047Y-90447428D01*
X152182457Y-90447428D01*
X152801733Y-90950590D02*
X152724323Y-90989295D01*
X152569504Y-90989295D01*
X152492095Y-90950590D01*
X152453390Y-90911885D01*
X152414685Y-90834476D01*
X152414685Y-90602247D01*
X152453390Y-90524838D01*
X152492095Y-90486133D01*
X152569504Y-90447428D01*
X152724323Y-90447428D01*
X152801733Y-90486133D01*
X153150076Y-90989295D02*
X153150076Y-90176495D01*
X153498419Y-90989295D02*
X153498419Y-90563542D01*
X153459714Y-90486133D01*
X153382304Y-90447428D01*
X153266190Y-90447428D01*
X153188780Y-90486133D01*
X153150076Y-90524838D01*
X154466038Y-90253904D02*
X154504742Y-90215200D01*
X154582152Y-90176495D01*
X154775676Y-90176495D01*
X154853085Y-90215200D01*
X154891790Y-90253904D01*
X154930495Y-90331314D01*
X154930495Y-90408723D01*
X154891790Y-90524838D01*
X154427333Y-90989295D01*
X154930495Y-90989295D01*
X155433657Y-90176495D02*
X155511066Y-90176495D01*
X155588476Y-90215200D01*
X155627180Y-90253904D01*
X155665885Y-90331314D01*
X155704590Y-90486133D01*
X155704590Y-90679657D01*
X155665885Y-90834476D01*
X155627180Y-90911885D01*
X155588476Y-90950590D01*
X155511066Y-90989295D01*
X155433657Y-90989295D01*
X155356247Y-90950590D01*
X155317542Y-90911885D01*
X155278838Y-90834476D01*
X155240133Y-90679657D01*
X155240133Y-90486133D01*
X155278838Y-90331314D01*
X155317542Y-90253904D01*
X155356247Y-90215200D01*
X155433657Y-90176495D01*
X156014228Y-90253904D02*
X156052933Y-90215200D01*
X156130342Y-90176495D01*
X156323866Y-90176495D01*
X156401276Y-90215200D01*
X156439980Y-90253904D01*
X156478685Y-90331314D01*
X156478685Y-90408723D01*
X156439980Y-90524838D01*
X155975523Y-90989295D01*
X156478685Y-90989295D01*
X157252780Y-90989295D02*
X156788323Y-90989295D01*
X157020552Y-90989295D02*
X157020552Y-90176495D01*
X156943142Y-90292609D01*
X156865733Y-90370019D01*
X156788323Y-90408723D01*
%TO.C,R28*%
G36*
G01*
X115905000Y-103275000D02*
X114595000Y-103275000D01*
G75*
G02*
X114325000Y-103005000I0J270000D01*
G01*
X114325000Y-102195000D01*
G75*
G02*
X114595000Y-101925000I270000J0D01*
G01*
X115905000Y-101925000D01*
G75*
G02*
X116175000Y-102195000I0J-270000D01*
G01*
X116175000Y-103005000D01*
G75*
G02*
X115905000Y-103275000I-270000J0D01*
G01*
G37*
G36*
G01*
X115905000Y-106075000D02*
X114595000Y-106075000D01*
G75*
G02*
X114325000Y-105805000I0J270000D01*
G01*
X114325000Y-104995000D01*
G75*
G02*
X114595000Y-104725000I270000J0D01*
G01*
X115905000Y-104725000D01*
G75*
G02*
X116175000Y-104995000I0J-270000D01*
G01*
X116175000Y-105805000D01*
G75*
G02*
X115905000Y-106075000I-270000J0D01*
G01*
G37*
%TD*%
%TO.C,R21*%
G36*
G01*
X113405000Y-103275000D02*
X112095000Y-103275000D01*
G75*
G02*
X111825000Y-103005000I0J270000D01*
G01*
X111825000Y-102195000D01*
G75*
G02*
X112095000Y-101925000I270000J0D01*
G01*
X113405000Y-101925000D01*
G75*
G02*
X113675000Y-102195000I0J-270000D01*
G01*
X113675000Y-103005000D01*
G75*
G02*
X113405000Y-103275000I-270000J0D01*
G01*
G37*
G36*
G01*
X113405000Y-106075000D02*
X112095000Y-106075000D01*
G75*
G02*
X111825000Y-105805000I0J270000D01*
G01*
X111825000Y-104995000D01*
G75*
G02*
X112095000Y-104725000I270000J0D01*
G01*
X113405000Y-104725000D01*
G75*
G02*
X113675000Y-104995000I0J-270000D01*
G01*
X113675000Y-105805000D01*
G75*
G02*
X113405000Y-106075000I-270000J0D01*
G01*
G37*
%TD*%
D11*
%TO.C,JP1*%
G36*
X127049398Y-99906111D02*
G01*
X127049398Y-99924534D01*
X127049157Y-99929435D01*
X127044347Y-99978266D01*
X127043627Y-99983119D01*
X127034055Y-100031244D01*
X127032863Y-100036005D01*
X127018619Y-100082960D01*
X127016966Y-100087579D01*
X126998189Y-100132912D01*
X126996091Y-100137349D01*
X126972960Y-100180622D01*
X126970438Y-100184829D01*
X126943178Y-100225628D01*
X126940254Y-100229570D01*
X126909126Y-100267499D01*
X126905831Y-100271134D01*
X126871134Y-100305831D01*
X126867499Y-100309126D01*
X126829570Y-100340254D01*
X126825628Y-100343178D01*
X126784829Y-100370438D01*
X126780622Y-100372960D01*
X126737349Y-100396091D01*
X126732912Y-100398189D01*
X126687579Y-100416966D01*
X126682960Y-100418619D01*
X126636005Y-100432863D01*
X126631244Y-100434055D01*
X126583119Y-100443627D01*
X126578266Y-100444347D01*
X126529435Y-100449157D01*
X126524534Y-100449398D01*
X126506111Y-100449398D01*
X126500000Y-100450000D01*
X126000000Y-100450000D01*
X125993889Y-100449398D01*
X125975466Y-100449398D01*
X125970565Y-100449157D01*
X125921734Y-100444347D01*
X125916881Y-100443627D01*
X125868756Y-100434055D01*
X125863995Y-100432863D01*
X125817040Y-100418619D01*
X125812421Y-100416966D01*
X125767088Y-100398189D01*
X125762651Y-100396091D01*
X125719378Y-100372960D01*
X125715171Y-100370438D01*
X125674372Y-100343178D01*
X125670430Y-100340254D01*
X125632501Y-100309126D01*
X125628866Y-100305831D01*
X125594169Y-100271134D01*
X125590874Y-100267499D01*
X125559746Y-100229570D01*
X125556822Y-100225628D01*
X125529562Y-100184829D01*
X125527040Y-100180622D01*
X125503909Y-100137349D01*
X125501811Y-100132912D01*
X125483034Y-100087579D01*
X125481381Y-100082960D01*
X125467137Y-100036005D01*
X125465945Y-100031244D01*
X125456373Y-99983119D01*
X125455653Y-99978266D01*
X125450843Y-99929435D01*
X125450602Y-99924534D01*
X125450602Y-99906111D01*
X125450000Y-99900000D01*
X125450000Y-99400000D01*
X125450961Y-99390245D01*
X125453806Y-99380866D01*
X125458427Y-99372221D01*
X125464645Y-99364645D01*
X125472221Y-99358427D01*
X125480866Y-99353806D01*
X125490245Y-99350961D01*
X125500000Y-99350000D01*
X127000000Y-99350000D01*
X127009755Y-99350961D01*
X127019134Y-99353806D01*
X127027779Y-99358427D01*
X127035355Y-99364645D01*
X127041573Y-99372221D01*
X127046194Y-99380866D01*
X127049039Y-99390245D01*
X127050000Y-99400000D01*
X127050000Y-99900000D01*
X127049398Y-99906111D01*
G37*
G36*
X127049039Y-99109755D02*
G01*
X127046194Y-99119134D01*
X127041573Y-99127779D01*
X127035355Y-99135355D01*
X127027779Y-99141573D01*
X127019134Y-99146194D01*
X127009755Y-99149039D01*
X127000000Y-99150000D01*
X125500000Y-99150000D01*
X125490245Y-99149039D01*
X125480866Y-99146194D01*
X125472221Y-99141573D01*
X125464645Y-99135355D01*
X125458427Y-99127779D01*
X125453806Y-99119134D01*
X125450961Y-99109755D01*
X125450000Y-99100000D01*
X125450000Y-98600000D01*
X125450602Y-98593889D01*
X125450602Y-98575466D01*
X125450843Y-98570565D01*
X125455653Y-98521734D01*
X125456373Y-98516881D01*
X125465945Y-98468756D01*
X125467137Y-98463995D01*
X125481381Y-98417040D01*
X125483034Y-98412421D01*
X125501811Y-98367088D01*
X125503909Y-98362651D01*
X125527040Y-98319378D01*
X125529562Y-98315171D01*
X125556822Y-98274372D01*
X125559746Y-98270430D01*
X125590874Y-98232501D01*
X125594169Y-98228866D01*
X125628866Y-98194169D01*
X125632501Y-98190874D01*
X125670430Y-98159746D01*
X125674372Y-98156822D01*
X125715171Y-98129562D01*
X125719378Y-98127040D01*
X125762651Y-98103909D01*
X125767088Y-98101811D01*
X125812421Y-98083034D01*
X125817040Y-98081381D01*
X125863995Y-98067137D01*
X125868756Y-98065945D01*
X125916881Y-98056373D01*
X125921734Y-98055653D01*
X125970565Y-98050843D01*
X125975466Y-98050602D01*
X125993889Y-98050602D01*
X126000000Y-98050000D01*
X126500000Y-98050000D01*
X126506111Y-98050602D01*
X126524534Y-98050602D01*
X126529435Y-98050843D01*
X126578266Y-98055653D01*
X126583119Y-98056373D01*
X126631244Y-98065945D01*
X126636005Y-98067137D01*
X126682960Y-98081381D01*
X126687579Y-98083034D01*
X126732912Y-98101811D01*
X126737349Y-98103909D01*
X126780622Y-98127040D01*
X126784829Y-98129562D01*
X126825628Y-98156822D01*
X126829570Y-98159746D01*
X126867499Y-98190874D01*
X126871134Y-98194169D01*
X126905831Y-98228866D01*
X126909126Y-98232501D01*
X126940254Y-98270430D01*
X126943178Y-98274372D01*
X126970438Y-98315171D01*
X126972960Y-98319378D01*
X126996091Y-98362651D01*
X126998189Y-98367088D01*
X127016966Y-98412421D01*
X127018619Y-98417040D01*
X127032863Y-98463995D01*
X127034055Y-98468756D01*
X127043627Y-98516881D01*
X127044347Y-98521734D01*
X127049157Y-98570565D01*
X127049398Y-98575466D01*
X127049398Y-98593889D01*
X127050000Y-98600000D01*
X127050000Y-99100000D01*
X127049039Y-99109755D01*
G37*
%TD*%
%TO.C,U6*%
G36*
X132180461Y-100306245D02*
G01*
X132183306Y-100296866D01*
X132187927Y-100288221D01*
X132194145Y-100280645D01*
X132201721Y-100274427D01*
X132210366Y-100269806D01*
X132219745Y-100266961D01*
X132229500Y-100266000D01*
X133962500Y-100266000D01*
X133972255Y-100266961D01*
X133981634Y-100269806D01*
X133990279Y-100274427D01*
X133997855Y-100280645D01*
X134004073Y-100288221D01*
X134008694Y-100296866D01*
X134011539Y-100306245D01*
X134012500Y-100316000D01*
X134012500Y-103441000D01*
X134011539Y-103450755D01*
X134008694Y-103460134D01*
X134004073Y-103468779D01*
X133997855Y-103476355D01*
X133990279Y-103482573D01*
X133981634Y-103487194D01*
X133972255Y-103490039D01*
X133962500Y-103491000D01*
X133596000Y-103491000D01*
X133596000Y-104916000D01*
X133595039Y-104925755D01*
X133592194Y-104935134D01*
X133587573Y-104943779D01*
X133581355Y-104951355D01*
X133573779Y-104957573D01*
X133565134Y-104962194D01*
X133555755Y-104965039D01*
X133546000Y-104966000D01*
X132646000Y-104966000D01*
X132636245Y-104965039D01*
X132626866Y-104962194D01*
X132618221Y-104957573D01*
X132610645Y-104951355D01*
X132604427Y-104943779D01*
X132599806Y-104935134D01*
X132596961Y-104925755D01*
X132596000Y-104916000D01*
X132596000Y-103491000D01*
X132229500Y-103491000D01*
X132219745Y-103490039D01*
X132210366Y-103487194D01*
X132201721Y-103482573D01*
X132194145Y-103476355D01*
X132187927Y-103468779D01*
X132183306Y-103460134D01*
X132180461Y-103450755D01*
X132179500Y-103441000D01*
X132179500Y-100316000D01*
X132180461Y-100306245D01*
G37*
D12*
X134596000Y-104266000D03*
X131596000Y-104266000D03*
%TD*%
D13*
%TO.C,Q11*%
X120750000Y-99500000D03*
X122750000Y-98550000D03*
X122750000Y-100450000D03*
%TD*%
D11*
%TO.C,U5*%
G36*
X137260461Y-100306245D02*
G01*
X137263306Y-100296866D01*
X137267927Y-100288221D01*
X137274145Y-100280645D01*
X137281721Y-100274427D01*
X137290366Y-100269806D01*
X137299745Y-100266961D01*
X137309500Y-100266000D01*
X139042500Y-100266000D01*
X139052255Y-100266961D01*
X139061634Y-100269806D01*
X139070279Y-100274427D01*
X139077855Y-100280645D01*
X139084073Y-100288221D01*
X139088694Y-100296866D01*
X139091539Y-100306245D01*
X139092500Y-100316000D01*
X139092500Y-103441000D01*
X139091539Y-103450755D01*
X139088694Y-103460134D01*
X139084073Y-103468779D01*
X139077855Y-103476355D01*
X139070279Y-103482573D01*
X139061634Y-103487194D01*
X139052255Y-103490039D01*
X139042500Y-103491000D01*
X138676000Y-103491000D01*
X138676000Y-104916000D01*
X138675039Y-104925755D01*
X138672194Y-104935134D01*
X138667573Y-104943779D01*
X138661355Y-104951355D01*
X138653779Y-104957573D01*
X138645134Y-104962194D01*
X138635755Y-104965039D01*
X138626000Y-104966000D01*
X137726000Y-104966000D01*
X137716245Y-104965039D01*
X137706866Y-104962194D01*
X137698221Y-104957573D01*
X137690645Y-104951355D01*
X137684427Y-104943779D01*
X137679806Y-104935134D01*
X137676961Y-104925755D01*
X137676000Y-104916000D01*
X137676000Y-103491000D01*
X137309500Y-103491000D01*
X137299745Y-103490039D01*
X137290366Y-103487194D01*
X137281721Y-103482573D01*
X137274145Y-103476355D01*
X137267927Y-103468779D01*
X137263306Y-103460134D01*
X137260461Y-103450755D01*
X137259500Y-103441000D01*
X137259500Y-100316000D01*
X137260461Y-100306245D01*
G37*
D12*
X139676000Y-104266000D03*
X136676000Y-104266000D03*
%TD*%
%TO.C,R53*%
G36*
G01*
X148531250Y-120450000D02*
X147968750Y-120450000D01*
G75*
G02*
X147725000Y-120206250I0J243750D01*
G01*
X147725000Y-119718750D01*
G75*
G02*
X147968750Y-119475000I243750J0D01*
G01*
X148531250Y-119475000D01*
G75*
G02*
X148775000Y-119718750I0J-243750D01*
G01*
X148775000Y-120206250D01*
G75*
G02*
X148531250Y-120450000I-243750J0D01*
G01*
G37*
G36*
G01*
X148531250Y-122025000D02*
X147968750Y-122025000D01*
G75*
G02*
X147725000Y-121781250I0J243750D01*
G01*
X147725000Y-121293750D01*
G75*
G02*
X147968750Y-121050000I243750J0D01*
G01*
X148531250Y-121050000D01*
G75*
G02*
X148775000Y-121293750I0J-243750D01*
G01*
X148775000Y-121781250D01*
G75*
G02*
X148531250Y-122025000I-243750J0D01*
G01*
G37*
%TD*%
%TO.C,R52*%
G36*
G01*
X145950000Y-95968750D02*
X145950000Y-96531250D01*
G75*
G02*
X145706250Y-96775000I-243750J0D01*
G01*
X145218750Y-96775000D01*
G75*
G02*
X144975000Y-96531250I0J243750D01*
G01*
X144975000Y-95968750D01*
G75*
G02*
X145218750Y-95725000I243750J0D01*
G01*
X145706250Y-95725000D01*
G75*
G02*
X145950000Y-95968750I0J-243750D01*
G01*
G37*
G36*
G01*
X147525000Y-95968750D02*
X147525000Y-96531250D01*
G75*
G02*
X147281250Y-96775000I-243750J0D01*
G01*
X146793750Y-96775000D01*
G75*
G02*
X146550000Y-96531250I0J243750D01*
G01*
X146550000Y-95968750D01*
G75*
G02*
X146793750Y-95725000I243750J0D01*
G01*
X147281250Y-95725000D01*
G75*
G02*
X147525000Y-95968750I0J-243750D01*
G01*
G37*
%TD*%
%TO.C,R14*%
G36*
G01*
X142200000Y-103468750D02*
X142200000Y-104031250D01*
G75*
G02*
X141956250Y-104275000I-243750J0D01*
G01*
X141468750Y-104275000D01*
G75*
G02*
X141225000Y-104031250I0J243750D01*
G01*
X141225000Y-103468750D01*
G75*
G02*
X141468750Y-103225000I243750J0D01*
G01*
X141956250Y-103225000D01*
G75*
G02*
X142200000Y-103468750I0J-243750D01*
G01*
G37*
G36*
G01*
X143775000Y-103468750D02*
X143775000Y-104031250D01*
G75*
G02*
X143531250Y-104275000I-243750J0D01*
G01*
X143043750Y-104275000D01*
G75*
G02*
X142800000Y-104031250I0J243750D01*
G01*
X142800000Y-103468750D01*
G75*
G02*
X143043750Y-103225000I243750J0D01*
G01*
X143531250Y-103225000D01*
G75*
G02*
X143775000Y-103468750I0J-243750D01*
G01*
G37*
%TD*%
D14*
%TO.C,TP4*%
X122500000Y-116000000D03*
%TD*%
%TO.C,TP3*%
X122500000Y-118250000D03*
%TD*%
%TO.C,TP2*%
X133000000Y-98500000D03*
%TD*%
%TO.C,TP1*%
X122500000Y-110000000D03*
%TD*%
%TO.C,R29*%
G36*
G01*
X139400000Y-99481250D02*
X139400000Y-98518750D01*
G75*
G02*
X139668750Y-98250000I268750J0D01*
G01*
X140206250Y-98250000D01*
G75*
G02*
X140475000Y-98518750I0J-268750D01*
G01*
X140475000Y-99481250D01*
G75*
G02*
X140206250Y-99750000I-268750J0D01*
G01*
X139668750Y-99750000D01*
G75*
G02*
X139400000Y-99481250I0J268750D01*
G01*
G37*
G36*
G01*
X137525000Y-99481250D02*
X137525000Y-98518750D01*
G75*
G02*
X137793750Y-98250000I268750J0D01*
G01*
X138331250Y-98250000D01*
G75*
G02*
X138600000Y-98518750I0J-268750D01*
G01*
X138600000Y-99481250D01*
G75*
G02*
X138331250Y-99750000I-268750J0D01*
G01*
X137793750Y-99750000D01*
G75*
G02*
X137525000Y-99481250I0J268750D01*
G01*
G37*
%TD*%
%TO.C,C32*%
G36*
G01*
X123968750Y-104050000D02*
X124531250Y-104050000D01*
G75*
G02*
X124775000Y-104293750I0J-243750D01*
G01*
X124775000Y-104781250D01*
G75*
G02*
X124531250Y-105025000I-243750J0D01*
G01*
X123968750Y-105025000D01*
G75*
G02*
X123725000Y-104781250I0J243750D01*
G01*
X123725000Y-104293750D01*
G75*
G02*
X123968750Y-104050000I243750J0D01*
G01*
G37*
G36*
G01*
X123968750Y-102475000D02*
X124531250Y-102475000D01*
G75*
G02*
X124775000Y-102718750I0J-243750D01*
G01*
X124775000Y-103206250D01*
G75*
G02*
X124531250Y-103450000I-243750J0D01*
G01*
X123968750Y-103450000D01*
G75*
G02*
X123725000Y-103206250I0J243750D01*
G01*
X123725000Y-102718750D01*
G75*
G02*
X123968750Y-102475000I243750J0D01*
G01*
G37*
%TD*%
%TO.C,R22*%
G36*
G01*
X139800000Y-124781250D02*
X139800000Y-124218750D01*
G75*
G02*
X140043750Y-123975000I243750J0D01*
G01*
X140531250Y-123975000D01*
G75*
G02*
X140775000Y-124218750I0J-243750D01*
G01*
X140775000Y-124781250D01*
G75*
G02*
X140531250Y-125025000I-243750J0D01*
G01*
X140043750Y-125025000D01*
G75*
G02*
X139800000Y-124781250I0J243750D01*
G01*
G37*
G36*
G01*
X138225000Y-124781250D02*
X138225000Y-124218750D01*
G75*
G02*
X138468750Y-123975000I243750J0D01*
G01*
X138956250Y-123975000D01*
G75*
G02*
X139200000Y-124218750I0J-243750D01*
G01*
X139200000Y-124781250D01*
G75*
G02*
X138956250Y-125025000I-243750J0D01*
G01*
X138468750Y-125025000D01*
G75*
G02*
X138225000Y-124781250I0J243750D01*
G01*
G37*
%TD*%
%TO.C,R50*%
G36*
G01*
X175838994Y-108263259D02*
X176236741Y-108661007D01*
G75*
G02*
X176236741Y-109005721I-172357J-172357D01*
G01*
X175892027Y-109350435D01*
G75*
G02*
X175547313Y-109350435I-172357J172357D01*
G01*
X175149565Y-108952687D01*
G75*
G02*
X175149565Y-108607973I172357J172357D01*
G01*
X175494279Y-108263259D01*
G75*
G02*
X175838993Y-108263259I172357J-172357D01*
G01*
G37*
G36*
G01*
X176952688Y-107149565D02*
X177350435Y-107547313D01*
G75*
G02*
X177350435Y-107892027I-172357J-172357D01*
G01*
X177005721Y-108236741D01*
G75*
G02*
X176661007Y-108236741I-172357J172357D01*
G01*
X176263259Y-107838993D01*
G75*
G02*
X176263259Y-107494279I172357J172357D01*
G01*
X176607973Y-107149565D01*
G75*
G02*
X176952687Y-107149565I172357J-172357D01*
G01*
G37*
%TD*%
%TO.C,R49*%
G36*
G01*
X178088994Y-108513259D02*
X178486741Y-108911007D01*
G75*
G02*
X178486741Y-109255721I-172357J-172357D01*
G01*
X178142027Y-109600435D01*
G75*
G02*
X177797313Y-109600435I-172357J172357D01*
G01*
X177399565Y-109202687D01*
G75*
G02*
X177399565Y-108857973I172357J172357D01*
G01*
X177744279Y-108513259D01*
G75*
G02*
X178088993Y-108513259I172357J-172357D01*
G01*
G37*
G36*
G01*
X179202688Y-107399565D02*
X179600435Y-107797313D01*
G75*
G02*
X179600435Y-108142027I-172357J-172357D01*
G01*
X179255721Y-108486741D01*
G75*
G02*
X178911007Y-108486741I-172357J172357D01*
G01*
X178513259Y-108088993D01*
G75*
G02*
X178513259Y-107744279I172357J172357D01*
G01*
X178857973Y-107399565D01*
G75*
G02*
X179202687Y-107399565I172357J-172357D01*
G01*
G37*
%TD*%
%TO.C,R48*%
G36*
G01*
X146718750Y-105300000D02*
X147281250Y-105300000D01*
G75*
G02*
X147525000Y-105543750I0J-243750D01*
G01*
X147525000Y-106031250D01*
G75*
G02*
X147281250Y-106275000I-243750J0D01*
G01*
X146718750Y-106275000D01*
G75*
G02*
X146475000Y-106031250I0J243750D01*
G01*
X146475000Y-105543750D01*
G75*
G02*
X146718750Y-105300000I243750J0D01*
G01*
G37*
G36*
G01*
X146718750Y-103725000D02*
X147281250Y-103725000D01*
G75*
G02*
X147525000Y-103968750I0J-243750D01*
G01*
X147525000Y-104456250D01*
G75*
G02*
X147281250Y-104700000I-243750J0D01*
G01*
X146718750Y-104700000D01*
G75*
G02*
X146475000Y-104456250I0J243750D01*
G01*
X146475000Y-103968750D01*
G75*
G02*
X146718750Y-103725000I243750J0D01*
G01*
G37*
%TD*%
%TO.C,R47*%
G36*
G01*
X139300000Y-95531250D02*
X139300000Y-94968750D01*
G75*
G02*
X139543750Y-94725000I243750J0D01*
G01*
X140031250Y-94725000D01*
G75*
G02*
X140275000Y-94968750I0J-243750D01*
G01*
X140275000Y-95531250D01*
G75*
G02*
X140031250Y-95775000I-243750J0D01*
G01*
X139543750Y-95775000D01*
G75*
G02*
X139300000Y-95531250I0J243750D01*
G01*
G37*
G36*
G01*
X137725000Y-95531250D02*
X137725000Y-94968750D01*
G75*
G02*
X137968750Y-94725000I243750J0D01*
G01*
X138456250Y-94725000D01*
G75*
G02*
X138700000Y-94968750I0J-243750D01*
G01*
X138700000Y-95531250D01*
G75*
G02*
X138456250Y-95775000I-243750J0D01*
G01*
X137968750Y-95775000D01*
G75*
G02*
X137725000Y-95531250I0J243750D01*
G01*
G37*
%TD*%
%TO.C,R34*%
G36*
G01*
X142200000Y-124218750D02*
X142200000Y-124781250D01*
G75*
G02*
X141956250Y-125025000I-243750J0D01*
G01*
X141468750Y-125025000D01*
G75*
G02*
X141225000Y-124781250I0J243750D01*
G01*
X141225000Y-124218750D01*
G75*
G02*
X141468750Y-123975000I243750J0D01*
G01*
X141956250Y-123975000D01*
G75*
G02*
X142200000Y-124218750I0J-243750D01*
G01*
G37*
G36*
G01*
X143775000Y-124218750D02*
X143775000Y-124781250D01*
G75*
G02*
X143531250Y-125025000I-243750J0D01*
G01*
X143043750Y-125025000D01*
G75*
G02*
X142800000Y-124781250I0J243750D01*
G01*
X142800000Y-124218750D01*
G75*
G02*
X143043750Y-123975000I243750J0D01*
G01*
X143531250Y-123975000D01*
G75*
G02*
X143775000Y-124218750I0J-243750D01*
G01*
G37*
%TD*%
%TO.C,R6*%
G36*
G01*
X137218750Y-122300000D02*
X137781250Y-122300000D01*
G75*
G02*
X138025000Y-122543750I0J-243750D01*
G01*
X138025000Y-123031250D01*
G75*
G02*
X137781250Y-123275000I-243750J0D01*
G01*
X137218750Y-123275000D01*
G75*
G02*
X136975000Y-123031250I0J243750D01*
G01*
X136975000Y-122543750D01*
G75*
G02*
X137218750Y-122300000I243750J0D01*
G01*
G37*
G36*
G01*
X137218750Y-120725000D02*
X137781250Y-120725000D01*
G75*
G02*
X138025000Y-120968750I0J-243750D01*
G01*
X138025000Y-121456250D01*
G75*
G02*
X137781250Y-121700000I-243750J0D01*
G01*
X137218750Y-121700000D01*
G75*
G02*
X136975000Y-121456250I0J243750D01*
G01*
X136975000Y-120968750D01*
G75*
G02*
X137218750Y-120725000I243750J0D01*
G01*
G37*
%TD*%
%TO.C,R5*%
G36*
G01*
X139400000Y-97481250D02*
X139400000Y-96518750D01*
G75*
G02*
X139668750Y-96250000I268750J0D01*
G01*
X140206250Y-96250000D01*
G75*
G02*
X140475000Y-96518750I0J-268750D01*
G01*
X140475000Y-97481250D01*
G75*
G02*
X140206250Y-97750000I-268750J0D01*
G01*
X139668750Y-97750000D01*
G75*
G02*
X139400000Y-97481250I0J268750D01*
G01*
G37*
G36*
G01*
X137525000Y-97481250D02*
X137525000Y-96518750D01*
G75*
G02*
X137793750Y-96250000I268750J0D01*
G01*
X138331250Y-96250000D01*
G75*
G02*
X138600000Y-96518750I0J-268750D01*
G01*
X138600000Y-97481250D01*
G75*
G02*
X138331250Y-97750000I-268750J0D01*
G01*
X137793750Y-97750000D01*
G75*
G02*
X137525000Y-97481250I0J268750D01*
G01*
G37*
%TD*%
%TO.C,R4*%
G36*
G01*
X142518750Y-122400000D02*
X143481250Y-122400000D01*
G75*
G02*
X143750000Y-122668750I0J-268750D01*
G01*
X143750000Y-123206250D01*
G75*
G02*
X143481250Y-123475000I-268750J0D01*
G01*
X142518750Y-123475000D01*
G75*
G02*
X142250000Y-123206250I0J268750D01*
G01*
X142250000Y-122668750D01*
G75*
G02*
X142518750Y-122400000I268750J0D01*
G01*
G37*
G36*
G01*
X142518750Y-120525000D02*
X143481250Y-120525000D01*
G75*
G02*
X143750000Y-120793750I0J-268750D01*
G01*
X143750000Y-121331250D01*
G75*
G02*
X143481250Y-121600000I-268750J0D01*
G01*
X142518750Y-121600000D01*
G75*
G02*
X142250000Y-121331250I0J268750D01*
G01*
X142250000Y-120793750D01*
G75*
G02*
X142518750Y-120525000I268750J0D01*
G01*
G37*
%TD*%
D15*
%TO.C,Q10*%
X142500000Y-96750000D03*
X143450000Y-98750000D03*
X141550000Y-98750000D03*
%TD*%
D13*
%TO.C,Q9*%
X141000000Y-122000000D03*
X139000000Y-122950000D03*
X139000000Y-121050000D03*
%TD*%
D16*
%TO.C,D6*%
X144950000Y-98000000D03*
X147050000Y-98000000D03*
%TD*%
%TO.C,D5*%
X144700000Y-120750000D03*
X146800000Y-120750000D03*
%TD*%
%TO.C,C31*%
G36*
G01*
X171513259Y-112661006D02*
X171911007Y-112263259D01*
G75*
G02*
X172255721Y-112263259I172357J-172357D01*
G01*
X172600435Y-112607973D01*
G75*
G02*
X172600435Y-112952687I-172357J-172357D01*
G01*
X172202687Y-113350435D01*
G75*
G02*
X171857973Y-113350435I-172357J172357D01*
G01*
X171513259Y-113005721D01*
G75*
G02*
X171513259Y-112661007I172357J172357D01*
G01*
G37*
G36*
G01*
X170399565Y-111547312D02*
X170797313Y-111149565D01*
G75*
G02*
X171142027Y-111149565I172357J-172357D01*
G01*
X171486741Y-111494279D01*
G75*
G02*
X171486741Y-111838993I-172357J-172357D01*
G01*
X171088993Y-112236741D01*
G75*
G02*
X170744279Y-112236741I-172357J172357D01*
G01*
X170399565Y-111892027D01*
G75*
G02*
X170399565Y-111547313I172357J172357D01*
G01*
G37*
%TD*%
%TO.C,C30*%
G36*
G01*
X171088994Y-107763259D02*
X171486741Y-108161007D01*
G75*
G02*
X171486741Y-108505721I-172357J-172357D01*
G01*
X171142027Y-108850435D01*
G75*
G02*
X170797313Y-108850435I-172357J172357D01*
G01*
X170399565Y-108452687D01*
G75*
G02*
X170399565Y-108107973I172357J172357D01*
G01*
X170744279Y-107763259D01*
G75*
G02*
X171088993Y-107763259I172357J-172357D01*
G01*
G37*
G36*
G01*
X172202688Y-106649565D02*
X172600435Y-107047313D01*
G75*
G02*
X172600435Y-107392027I-172357J-172357D01*
G01*
X172255721Y-107736741D01*
G75*
G02*
X171911007Y-107736741I-172357J172357D01*
G01*
X171513259Y-107338993D01*
G75*
G02*
X171513259Y-106994279I172357J172357D01*
G01*
X171857973Y-106649565D01*
G75*
G02*
X172202687Y-106649565I172357J-172357D01*
G01*
G37*
%TD*%
%TO.C,R51*%
G36*
G01*
X135700000Y-113218750D02*
X135700000Y-113781250D01*
G75*
G02*
X135456250Y-114025000I-243750J0D01*
G01*
X134968750Y-114025000D01*
G75*
G02*
X134725000Y-113781250I0J243750D01*
G01*
X134725000Y-113218750D01*
G75*
G02*
X134968750Y-112975000I243750J0D01*
G01*
X135456250Y-112975000D01*
G75*
G02*
X135700000Y-113218750I0J-243750D01*
G01*
G37*
G36*
G01*
X137275000Y-113218750D02*
X137275000Y-113781250D01*
G75*
G02*
X137031250Y-114025000I-243750J0D01*
G01*
X136543750Y-114025000D01*
G75*
G02*
X136300000Y-113781250I0J243750D01*
G01*
X136300000Y-113218750D01*
G75*
G02*
X136543750Y-112975000I243750J0D01*
G01*
X137031250Y-112975000D01*
G75*
G02*
X137275000Y-113218750I0J-243750D01*
G01*
G37*
%TD*%
D17*
%TO.C,R27*%
X175750000Y-115250000D03*
D18*
X150350000Y-115250000D03*
%TD*%
D17*
%TO.C,R26*%
X175750000Y-104750000D03*
D18*
X150350000Y-104750000D03*
%TD*%
%TO.C,R40*%
G36*
G01*
X154345000Y-131475000D02*
X155655000Y-131475000D01*
G75*
G02*
X155925000Y-131745000I0J-270000D01*
G01*
X155925000Y-132555000D01*
G75*
G02*
X155655000Y-132825000I-270000J0D01*
G01*
X154345000Y-132825000D01*
G75*
G02*
X154075000Y-132555000I0J270000D01*
G01*
X154075000Y-131745000D01*
G75*
G02*
X154345000Y-131475000I270000J0D01*
G01*
G37*
G36*
G01*
X154345000Y-128675000D02*
X155655000Y-128675000D01*
G75*
G02*
X155925000Y-128945000I0J-270000D01*
G01*
X155925000Y-129755000D01*
G75*
G02*
X155655000Y-130025000I-270000J0D01*
G01*
X154345000Y-130025000D01*
G75*
G02*
X154075000Y-129755000I0J270000D01*
G01*
X154075000Y-128945000D01*
G75*
G02*
X154345000Y-128675000I270000J0D01*
G01*
G37*
%TD*%
%TO.C,R39*%
G36*
G01*
X166345000Y-131475000D02*
X167655000Y-131475000D01*
G75*
G02*
X167925000Y-131745000I0J-270000D01*
G01*
X167925000Y-132555000D01*
G75*
G02*
X167655000Y-132825000I-270000J0D01*
G01*
X166345000Y-132825000D01*
G75*
G02*
X166075000Y-132555000I0J270000D01*
G01*
X166075000Y-131745000D01*
G75*
G02*
X166345000Y-131475000I270000J0D01*
G01*
G37*
G36*
G01*
X166345000Y-128675000D02*
X167655000Y-128675000D01*
G75*
G02*
X167925000Y-128945000I0J-270000D01*
G01*
X167925000Y-129755000D01*
G75*
G02*
X167655000Y-130025000I-270000J0D01*
G01*
X166345000Y-130025000D01*
G75*
G02*
X166075000Y-129755000I0J270000D01*
G01*
X166075000Y-128945000D01*
G75*
G02*
X166345000Y-128675000I270000J0D01*
G01*
G37*
%TD*%
%TO.C,R38*%
G36*
G01*
X155655000Y-98275000D02*
X154345000Y-98275000D01*
G75*
G02*
X154075000Y-98005000I0J270000D01*
G01*
X154075000Y-97195000D01*
G75*
G02*
X154345000Y-96925000I270000J0D01*
G01*
X155655000Y-96925000D01*
G75*
G02*
X155925000Y-97195000I0J-270000D01*
G01*
X155925000Y-98005000D01*
G75*
G02*
X155655000Y-98275000I-270000J0D01*
G01*
G37*
G36*
G01*
X155655000Y-101075000D02*
X154345000Y-101075000D01*
G75*
G02*
X154075000Y-100805000I0J270000D01*
G01*
X154075000Y-99995000D01*
G75*
G02*
X154345000Y-99725000I270000J0D01*
G01*
X155655000Y-99725000D01*
G75*
G02*
X155925000Y-99995000I0J-270000D01*
G01*
X155925000Y-100805000D01*
G75*
G02*
X155655000Y-101075000I-270000J0D01*
G01*
G37*
%TD*%
%TO.C,R37*%
G36*
G01*
X167655000Y-98275000D02*
X166345000Y-98275000D01*
G75*
G02*
X166075000Y-98005000I0J270000D01*
G01*
X166075000Y-97195000D01*
G75*
G02*
X166345000Y-96925000I270000J0D01*
G01*
X167655000Y-96925000D01*
G75*
G02*
X167925000Y-97195000I0J-270000D01*
G01*
X167925000Y-98005000D01*
G75*
G02*
X167655000Y-98275000I-270000J0D01*
G01*
G37*
G36*
G01*
X167655000Y-101075000D02*
X166345000Y-101075000D01*
G75*
G02*
X166075000Y-100805000I0J270000D01*
G01*
X166075000Y-99995000D01*
G75*
G02*
X166345000Y-99725000I270000J0D01*
G01*
X167655000Y-99725000D01*
G75*
G02*
X167925000Y-99995000I0J-270000D01*
G01*
X167925000Y-100805000D01*
G75*
G02*
X167655000Y-101075000I-270000J0D01*
G01*
G37*
%TD*%
%TO.C,R13*%
G36*
G01*
X151655000Y-98275000D02*
X150345000Y-98275000D01*
G75*
G02*
X150075000Y-98005000I0J270000D01*
G01*
X150075000Y-97195000D01*
G75*
G02*
X150345000Y-96925000I270000J0D01*
G01*
X151655000Y-96925000D01*
G75*
G02*
X151925000Y-97195000I0J-270000D01*
G01*
X151925000Y-98005000D01*
G75*
G02*
X151655000Y-98275000I-270000J0D01*
G01*
G37*
G36*
G01*
X151655000Y-101075000D02*
X150345000Y-101075000D01*
G75*
G02*
X150075000Y-100805000I0J270000D01*
G01*
X150075000Y-99995000D01*
G75*
G02*
X150345000Y-99725000I270000J0D01*
G01*
X151655000Y-99725000D01*
G75*
G02*
X151925000Y-99995000I0J-270000D01*
G01*
X151925000Y-100805000D01*
G75*
G02*
X151655000Y-101075000I-270000J0D01*
G01*
G37*
%TD*%
%TO.C,R12*%
G36*
G01*
X163655000Y-98275000D02*
X162345000Y-98275000D01*
G75*
G02*
X162075000Y-98005000I0J270000D01*
G01*
X162075000Y-97195000D01*
G75*
G02*
X162345000Y-96925000I270000J0D01*
G01*
X163655000Y-96925000D01*
G75*
G02*
X163925000Y-97195000I0J-270000D01*
G01*
X163925000Y-98005000D01*
G75*
G02*
X163655000Y-98275000I-270000J0D01*
G01*
G37*
G36*
G01*
X163655000Y-101075000D02*
X162345000Y-101075000D01*
G75*
G02*
X162075000Y-100805000I0J270000D01*
G01*
X162075000Y-99995000D01*
G75*
G02*
X162345000Y-99725000I270000J0D01*
G01*
X163655000Y-99725000D01*
G75*
G02*
X163925000Y-99995000I0J-270000D01*
G01*
X163925000Y-100805000D01*
G75*
G02*
X163655000Y-101075000I-270000J0D01*
G01*
G37*
%TD*%
%TO.C,R8*%
G36*
G01*
X150345000Y-131475000D02*
X151655000Y-131475000D01*
G75*
G02*
X151925000Y-131745000I0J-270000D01*
G01*
X151925000Y-132555000D01*
G75*
G02*
X151655000Y-132825000I-270000J0D01*
G01*
X150345000Y-132825000D01*
G75*
G02*
X150075000Y-132555000I0J270000D01*
G01*
X150075000Y-131745000D01*
G75*
G02*
X150345000Y-131475000I270000J0D01*
G01*
G37*
G36*
G01*
X150345000Y-128675000D02*
X151655000Y-128675000D01*
G75*
G02*
X151925000Y-128945000I0J-270000D01*
G01*
X151925000Y-129755000D01*
G75*
G02*
X151655000Y-130025000I-270000J0D01*
G01*
X150345000Y-130025000D01*
G75*
G02*
X150075000Y-129755000I0J270000D01*
G01*
X150075000Y-128945000D01*
G75*
G02*
X150345000Y-128675000I270000J0D01*
G01*
G37*
%TD*%
%TO.C,R7*%
G36*
G01*
X162345000Y-131475000D02*
X163655000Y-131475000D01*
G75*
G02*
X163925000Y-131745000I0J-270000D01*
G01*
X163925000Y-132555000D01*
G75*
G02*
X163655000Y-132825000I-270000J0D01*
G01*
X162345000Y-132825000D01*
G75*
G02*
X162075000Y-132555000I0J270000D01*
G01*
X162075000Y-131745000D01*
G75*
G02*
X162345000Y-131475000I270000J0D01*
G01*
G37*
G36*
G01*
X162345000Y-128675000D02*
X163655000Y-128675000D01*
G75*
G02*
X163925000Y-128945000I0J-270000D01*
G01*
X163925000Y-129755000D01*
G75*
G02*
X163655000Y-130025000I-270000J0D01*
G01*
X162345000Y-130025000D01*
G75*
G02*
X162075000Y-129755000I0J270000D01*
G01*
X162075000Y-128945000D01*
G75*
G02*
X162345000Y-128675000I270000J0D01*
G01*
G37*
%TD*%
%TO.C,R20*%
G36*
G01*
X147281250Y-107950000D02*
X146718750Y-107950000D01*
G75*
G02*
X146475000Y-107706250I0J243750D01*
G01*
X146475000Y-107218750D01*
G75*
G02*
X146718750Y-106975000I243750J0D01*
G01*
X147281250Y-106975000D01*
G75*
G02*
X147525000Y-107218750I0J-243750D01*
G01*
X147525000Y-107706250D01*
G75*
G02*
X147281250Y-107950000I-243750J0D01*
G01*
G37*
G36*
G01*
X147281250Y-109525000D02*
X146718750Y-109525000D01*
G75*
G02*
X146475000Y-109281250I0J243750D01*
G01*
X146475000Y-108793750D01*
G75*
G02*
X146718750Y-108550000I243750J0D01*
G01*
X147281250Y-108550000D01*
G75*
G02*
X147525000Y-108793750I0J-243750D01*
G01*
X147525000Y-109281250D01*
G75*
G02*
X147281250Y-109525000I-243750J0D01*
G01*
G37*
%TD*%
%TO.C,R19*%
G36*
G01*
X174411006Y-107736741D02*
X174013259Y-107338993D01*
G75*
G02*
X174013259Y-106994279I172357J172357D01*
G01*
X174357973Y-106649565D01*
G75*
G02*
X174702687Y-106649565I172357J-172357D01*
G01*
X175100435Y-107047313D01*
G75*
G02*
X175100435Y-107392027I-172357J-172357D01*
G01*
X174755721Y-107736741D01*
G75*
G02*
X174411007Y-107736741I-172357J172357D01*
G01*
G37*
G36*
G01*
X173297312Y-108850435D02*
X172899565Y-108452687D01*
G75*
G02*
X172899565Y-108107973I172357J172357D01*
G01*
X173244279Y-107763259D01*
G75*
G02*
X173588993Y-107763259I172357J-172357D01*
G01*
X173986741Y-108161007D01*
G75*
G02*
X173986741Y-108505721I-172357J-172357D01*
G01*
X173642027Y-108850435D01*
G75*
G02*
X173297313Y-108850435I-172357J172357D01*
G01*
G37*
%TD*%
%TO.C,C2*%
G36*
G01*
X138800000Y-106281250D02*
X138800000Y-105718750D01*
G75*
G02*
X139043750Y-105475000I243750J0D01*
G01*
X139531250Y-105475000D01*
G75*
G02*
X139775000Y-105718750I0J-243750D01*
G01*
X139775000Y-106281250D01*
G75*
G02*
X139531250Y-106525000I-243750J0D01*
G01*
X139043750Y-106525000D01*
G75*
G02*
X138800000Y-106281250I0J243750D01*
G01*
G37*
G36*
G01*
X137225000Y-106281250D02*
X137225000Y-105718750D01*
G75*
G02*
X137468750Y-105475000I243750J0D01*
G01*
X137956250Y-105475000D01*
G75*
G02*
X138200000Y-105718750I0J-243750D01*
G01*
X138200000Y-106281250D01*
G75*
G02*
X137956250Y-106525000I-243750J0D01*
G01*
X137468750Y-106525000D01*
G75*
G02*
X137225000Y-106281250I0J243750D01*
G01*
G37*
%TD*%
%TO.C,R36*%
G36*
G01*
X130531250Y-112200000D02*
X129968750Y-112200000D01*
G75*
G02*
X129725000Y-111956250I0J243750D01*
G01*
X129725000Y-111468750D01*
G75*
G02*
X129968750Y-111225000I243750J0D01*
G01*
X130531250Y-111225000D01*
G75*
G02*
X130775000Y-111468750I0J-243750D01*
G01*
X130775000Y-111956250D01*
G75*
G02*
X130531250Y-112200000I-243750J0D01*
G01*
G37*
G36*
G01*
X130531250Y-113775000D02*
X129968750Y-113775000D01*
G75*
G02*
X129725000Y-113531250I0J243750D01*
G01*
X129725000Y-113043750D01*
G75*
G02*
X129968750Y-112800000I243750J0D01*
G01*
X130531250Y-112800000D01*
G75*
G02*
X130775000Y-113043750I0J-243750D01*
G01*
X130775000Y-113531250D01*
G75*
G02*
X130531250Y-113775000I-243750J0D01*
G01*
G37*
%TD*%
D19*
%TO.C,C29*%
X133500000Y-129500000D03*
D20*
X133500000Y-126000000D03*
%TD*%
D19*
%TO.C,C28*%
X133500000Y-94000000D03*
D20*
X133500000Y-90500000D03*
%TD*%
D15*
%TO.C,U3*%
X127250000Y-104500000D03*
X126300000Y-102500000D03*
X128200000Y-102500000D03*
%TD*%
%TO.C,U4*%
G36*
G01*
X125020000Y-112800000D02*
X124670000Y-112800000D01*
G75*
G02*
X124495000Y-112625000I0J175000D01*
G01*
X124495000Y-110925000D01*
G75*
G02*
X124670000Y-110750000I175000J0D01*
G01*
X125020000Y-110750000D01*
G75*
G02*
X125195000Y-110925000I0J-175000D01*
G01*
X125195000Y-112625000D01*
G75*
G02*
X125020000Y-112800000I-175000J0D01*
G01*
G37*
G36*
G01*
X126290000Y-112800000D02*
X125940000Y-112800000D01*
G75*
G02*
X125765000Y-112625000I0J175000D01*
G01*
X125765000Y-110925000D01*
G75*
G02*
X125940000Y-110750000I175000J0D01*
G01*
X126290000Y-110750000D01*
G75*
G02*
X126465000Y-110925000I0J-175000D01*
G01*
X126465000Y-112625000D01*
G75*
G02*
X126290000Y-112800000I-175000J0D01*
G01*
G37*
G36*
G01*
X127560000Y-112800000D02*
X127210000Y-112800000D01*
G75*
G02*
X127035000Y-112625000I0J175000D01*
G01*
X127035000Y-110925000D01*
G75*
G02*
X127210000Y-110750000I175000J0D01*
G01*
X127560000Y-110750000D01*
G75*
G02*
X127735000Y-110925000I0J-175000D01*
G01*
X127735000Y-112625000D01*
G75*
G02*
X127560000Y-112800000I-175000J0D01*
G01*
G37*
G36*
G01*
X128830000Y-112800000D02*
X128480000Y-112800000D01*
G75*
G02*
X128305000Y-112625000I0J175000D01*
G01*
X128305000Y-110925000D01*
G75*
G02*
X128480000Y-110750000I175000J0D01*
G01*
X128830000Y-110750000D01*
G75*
G02*
X129005000Y-110925000I0J-175000D01*
G01*
X129005000Y-112625000D01*
G75*
G02*
X128830000Y-112800000I-175000J0D01*
G01*
G37*
G36*
G01*
X128830000Y-117750000D02*
X128480000Y-117750000D01*
G75*
G02*
X128305000Y-117575000I0J175000D01*
G01*
X128305000Y-115875000D01*
G75*
G02*
X128480000Y-115700000I175000J0D01*
G01*
X128830000Y-115700000D01*
G75*
G02*
X129005000Y-115875000I0J-175000D01*
G01*
X129005000Y-117575000D01*
G75*
G02*
X128830000Y-117750000I-175000J0D01*
G01*
G37*
G36*
G01*
X127560000Y-117750000D02*
X127210000Y-117750000D01*
G75*
G02*
X127035000Y-117575000I0J175000D01*
G01*
X127035000Y-115875000D01*
G75*
G02*
X127210000Y-115700000I175000J0D01*
G01*
X127560000Y-115700000D01*
G75*
G02*
X127735000Y-115875000I0J-175000D01*
G01*
X127735000Y-117575000D01*
G75*
G02*
X127560000Y-117750000I-175000J0D01*
G01*
G37*
G36*
G01*
X126290000Y-117750000D02*
X125940000Y-117750000D01*
G75*
G02*
X125765000Y-117575000I0J175000D01*
G01*
X125765000Y-115875000D01*
G75*
G02*
X125940000Y-115700000I175000J0D01*
G01*
X126290000Y-115700000D01*
G75*
G02*
X126465000Y-115875000I0J-175000D01*
G01*
X126465000Y-117575000D01*
G75*
G02*
X126290000Y-117750000I-175000J0D01*
G01*
G37*
G36*
G01*
X125020000Y-117750000D02*
X124670000Y-117750000D01*
G75*
G02*
X124495000Y-117575000I0J175000D01*
G01*
X124495000Y-115875000D01*
G75*
G02*
X124670000Y-115700000I175000J0D01*
G01*
X125020000Y-115700000D01*
G75*
G02*
X125195000Y-115875000I0J-175000D01*
G01*
X125195000Y-117575000D01*
G75*
G02*
X125020000Y-117750000I-175000J0D01*
G01*
G37*
%TD*%
%TO.C,R10*%
G36*
G01*
X130531250Y-115450000D02*
X129968750Y-115450000D01*
G75*
G02*
X129725000Y-115206250I0J243750D01*
G01*
X129725000Y-114718750D01*
G75*
G02*
X129968750Y-114475000I243750J0D01*
G01*
X130531250Y-114475000D01*
G75*
G02*
X130775000Y-114718750I0J-243750D01*
G01*
X130775000Y-115206250D01*
G75*
G02*
X130531250Y-115450000I-243750J0D01*
G01*
G37*
G36*
G01*
X130531250Y-117025000D02*
X129968750Y-117025000D01*
G75*
G02*
X129725000Y-116781250I0J243750D01*
G01*
X129725000Y-116293750D01*
G75*
G02*
X129968750Y-116050000I243750J0D01*
G01*
X130531250Y-116050000D01*
G75*
G02*
X130775000Y-116293750I0J-243750D01*
G01*
X130775000Y-116781250D01*
G75*
G02*
X130531250Y-117025000I-243750J0D01*
G01*
G37*
%TD*%
%TO.C,C1*%
G36*
G01*
X142550000Y-106281250D02*
X142550000Y-105718750D01*
G75*
G02*
X142793750Y-105475000I243750J0D01*
G01*
X143281250Y-105475000D01*
G75*
G02*
X143525000Y-105718750I0J-243750D01*
G01*
X143525000Y-106281250D01*
G75*
G02*
X143281250Y-106525000I-243750J0D01*
G01*
X142793750Y-106525000D01*
G75*
G02*
X142550000Y-106281250I0J243750D01*
G01*
G37*
G36*
G01*
X140975000Y-106281250D02*
X140975000Y-105718750D01*
G75*
G02*
X141218750Y-105475000I243750J0D01*
G01*
X141706250Y-105475000D01*
G75*
G02*
X141950000Y-105718750I0J-243750D01*
G01*
X141950000Y-106281250D01*
G75*
G02*
X141706250Y-106525000I-243750J0D01*
G01*
X141218750Y-106525000D01*
G75*
G02*
X140975000Y-106281250I0J243750D01*
G01*
G37*
%TD*%
%TO.C,Q8*%
X142500000Y-100250000D03*
X143450000Y-102250000D03*
X141550000Y-102250000D03*
%TD*%
%TO.C,Q3*%
X146000000Y-100250000D03*
X146950000Y-102250000D03*
X145050000Y-102250000D03*
%TD*%
D13*
%TO.C,Q2*%
X146750000Y-123500000D03*
X144750000Y-124450000D03*
X144750000Y-122550000D03*
%TD*%
%TO.C,Q1*%
X120750000Y-103500000D03*
X122750000Y-102550000D03*
X122750000Y-104450000D03*
%TD*%
D21*
%TO.C,CV1*%
X127790000Y-121250000D03*
X125250000Y-121250000D03*
D22*
X122710000Y-121250000D03*
%TD*%
D21*
%TO.C,CC1*%
X127790000Y-107500000D03*
X125250000Y-107500000D03*
D22*
X122710000Y-107500000D03*
%TD*%
D23*
%TO.C,D4*%
X181500000Y-122160000D03*
D24*
X181500000Y-112000000D03*
%TD*%
D23*
%TO.C,D3*%
X181500000Y-108000000D03*
D24*
X181500000Y-97840000D03*
%TD*%
D23*
%TO.C,D2*%
X118500000Y-122160000D03*
D24*
X118500000Y-112000000D03*
%TD*%
D23*
%TO.C,D1*%
X118500000Y-108000000D03*
D24*
X118500000Y-97840000D03*
%TD*%
%TO.C,U2*%
G36*
G01*
X134000000Y-115270000D02*
X134000000Y-114920000D01*
G75*
G02*
X134175000Y-114745000I175000J0D01*
G01*
X135875000Y-114745000D01*
G75*
G02*
X136050000Y-114920000I0J-175000D01*
G01*
X136050000Y-115270000D01*
G75*
G02*
X135875000Y-115445000I-175000J0D01*
G01*
X134175000Y-115445000D01*
G75*
G02*
X134000000Y-115270000I0J175000D01*
G01*
G37*
G36*
G01*
X134000000Y-116540000D02*
X134000000Y-116190000D01*
G75*
G02*
X134175000Y-116015000I175000J0D01*
G01*
X135875000Y-116015000D01*
G75*
G02*
X136050000Y-116190000I0J-175000D01*
G01*
X136050000Y-116540000D01*
G75*
G02*
X135875000Y-116715000I-175000J0D01*
G01*
X134175000Y-116715000D01*
G75*
G02*
X134000000Y-116540000I0J175000D01*
G01*
G37*
G36*
G01*
X134000000Y-117810000D02*
X134000000Y-117460000D01*
G75*
G02*
X134175000Y-117285000I175000J0D01*
G01*
X135875000Y-117285000D01*
G75*
G02*
X136050000Y-117460000I0J-175000D01*
G01*
X136050000Y-117810000D01*
G75*
G02*
X135875000Y-117985000I-175000J0D01*
G01*
X134175000Y-117985000D01*
G75*
G02*
X134000000Y-117810000I0J175000D01*
G01*
G37*
G36*
G01*
X134000000Y-119080000D02*
X134000000Y-118730000D01*
G75*
G02*
X134175000Y-118555000I175000J0D01*
G01*
X135875000Y-118555000D01*
G75*
G02*
X136050000Y-118730000I0J-175000D01*
G01*
X136050000Y-119080000D01*
G75*
G02*
X135875000Y-119255000I-175000J0D01*
G01*
X134175000Y-119255000D01*
G75*
G02*
X134000000Y-119080000I0J175000D01*
G01*
G37*
G36*
G01*
X138950000Y-119080000D02*
X138950000Y-118730000D01*
G75*
G02*
X139125000Y-118555000I175000J0D01*
G01*
X140825000Y-118555000D01*
G75*
G02*
X141000000Y-118730000I0J-175000D01*
G01*
X141000000Y-119080000D01*
G75*
G02*
X140825000Y-119255000I-175000J0D01*
G01*
X139125000Y-119255000D01*
G75*
G02*
X138950000Y-119080000I0J175000D01*
G01*
G37*
G36*
G01*
X138950000Y-117810000D02*
X138950000Y-117460000D01*
G75*
G02*
X139125000Y-117285000I175000J0D01*
G01*
X140825000Y-117285000D01*
G75*
G02*
X141000000Y-117460000I0J-175000D01*
G01*
X141000000Y-117810000D01*
G75*
G02*
X140825000Y-117985000I-175000J0D01*
G01*
X139125000Y-117985000D01*
G75*
G02*
X138950000Y-117810000I0J175000D01*
G01*
G37*
G36*
G01*
X138950000Y-116540000D02*
X138950000Y-116190000D01*
G75*
G02*
X139125000Y-116015000I175000J0D01*
G01*
X140825000Y-116015000D01*
G75*
G02*
X141000000Y-116190000I0J-175000D01*
G01*
X141000000Y-116540000D01*
G75*
G02*
X140825000Y-116715000I-175000J0D01*
G01*
X139125000Y-116715000D01*
G75*
G02*
X138950000Y-116540000I0J175000D01*
G01*
G37*
G36*
G01*
X138950000Y-115270000D02*
X138950000Y-114920000D01*
G75*
G02*
X139125000Y-114745000I175000J0D01*
G01*
X140825000Y-114745000D01*
G75*
G02*
X141000000Y-114920000I0J-175000D01*
G01*
X141000000Y-115270000D01*
G75*
G02*
X140825000Y-115445000I-175000J0D01*
G01*
X139125000Y-115445000D01*
G75*
G02*
X138950000Y-115270000I0J175000D01*
G01*
G37*
%TD*%
%TO.C,R3*%
G36*
G01*
X129468750Y-102475000D02*
X130031250Y-102475000D01*
G75*
G02*
X130275000Y-102718750I0J-243750D01*
G01*
X130275000Y-103206250D01*
G75*
G02*
X130031250Y-103450000I-243750J0D01*
G01*
X129468750Y-103450000D01*
G75*
G02*
X129225000Y-103206250I0J243750D01*
G01*
X129225000Y-102718750D01*
G75*
G02*
X129468750Y-102475000I243750J0D01*
G01*
G37*
G36*
G01*
X129468750Y-104050000D02*
X130031250Y-104050000D01*
G75*
G02*
X130275000Y-104293750I0J-243750D01*
G01*
X130275000Y-104781250D01*
G75*
G02*
X130031250Y-105025000I-243750J0D01*
G01*
X129468750Y-105025000D01*
G75*
G02*
X129225000Y-104781250I0J243750D01*
G01*
X129225000Y-104293750D01*
G75*
G02*
X129468750Y-104050000I243750J0D01*
G01*
G37*
%TD*%
%TO.C,U1*%
G36*
G01*
X137250000Y-107770000D02*
X137250000Y-107420000D01*
G75*
G02*
X137425000Y-107245000I175000J0D01*
G01*
X139125000Y-107245000D01*
G75*
G02*
X139300000Y-107420000I0J-175000D01*
G01*
X139300000Y-107770000D01*
G75*
G02*
X139125000Y-107945000I-175000J0D01*
G01*
X137425000Y-107945000D01*
G75*
G02*
X137250000Y-107770000I0J175000D01*
G01*
G37*
G36*
G01*
X137250000Y-109040000D02*
X137250000Y-108690000D01*
G75*
G02*
X137425000Y-108515000I175000J0D01*
G01*
X139125000Y-108515000D01*
G75*
G02*
X139300000Y-108690000I0J-175000D01*
G01*
X139300000Y-109040000D01*
G75*
G02*
X139125000Y-109215000I-175000J0D01*
G01*
X137425000Y-109215000D01*
G75*
G02*
X137250000Y-109040000I0J175000D01*
G01*
G37*
G36*
G01*
X137250000Y-110310000D02*
X137250000Y-109960000D01*
G75*
G02*
X137425000Y-109785000I175000J0D01*
G01*
X139125000Y-109785000D01*
G75*
G02*
X139300000Y-109960000I0J-175000D01*
G01*
X139300000Y-110310000D01*
G75*
G02*
X139125000Y-110485000I-175000J0D01*
G01*
X137425000Y-110485000D01*
G75*
G02*
X137250000Y-110310000I0J175000D01*
G01*
G37*
G36*
G01*
X137250000Y-111580000D02*
X137250000Y-111230000D01*
G75*
G02*
X137425000Y-111055000I175000J0D01*
G01*
X139125000Y-111055000D01*
G75*
G02*
X139300000Y-111230000I0J-175000D01*
G01*
X139300000Y-111580000D01*
G75*
G02*
X139125000Y-111755000I-175000J0D01*
G01*
X137425000Y-111755000D01*
G75*
G02*
X137250000Y-111580000I0J175000D01*
G01*
G37*
G36*
G01*
X142200000Y-111580000D02*
X142200000Y-111230000D01*
G75*
G02*
X142375000Y-111055000I175000J0D01*
G01*
X144075000Y-111055000D01*
G75*
G02*
X144250000Y-111230000I0J-175000D01*
G01*
X144250000Y-111580000D01*
G75*
G02*
X144075000Y-111755000I-175000J0D01*
G01*
X142375000Y-111755000D01*
G75*
G02*
X142200000Y-111580000I0J175000D01*
G01*
G37*
G36*
G01*
X142200000Y-110310000D02*
X142200000Y-109960000D01*
G75*
G02*
X142375000Y-109785000I175000J0D01*
G01*
X144075000Y-109785000D01*
G75*
G02*
X144250000Y-109960000I0J-175000D01*
G01*
X144250000Y-110310000D01*
G75*
G02*
X144075000Y-110485000I-175000J0D01*
G01*
X142375000Y-110485000D01*
G75*
G02*
X142200000Y-110310000I0J175000D01*
G01*
G37*
G36*
G01*
X142200000Y-109040000D02*
X142200000Y-108690000D01*
G75*
G02*
X142375000Y-108515000I175000J0D01*
G01*
X144075000Y-108515000D01*
G75*
G02*
X144250000Y-108690000I0J-175000D01*
G01*
X144250000Y-109040000D01*
G75*
G02*
X144075000Y-109215000I-175000J0D01*
G01*
X142375000Y-109215000D01*
G75*
G02*
X142200000Y-109040000I0J175000D01*
G01*
G37*
G36*
G01*
X142200000Y-107770000D02*
X142200000Y-107420000D01*
G75*
G02*
X142375000Y-107245000I175000J0D01*
G01*
X144075000Y-107245000D01*
G75*
G02*
X144250000Y-107420000I0J-175000D01*
G01*
X144250000Y-107770000D01*
G75*
G02*
X144075000Y-107945000I-175000J0D01*
G01*
X142375000Y-107945000D01*
G75*
G02*
X142200000Y-107770000I0J175000D01*
G01*
G37*
%TD*%
D19*
%TO.C,C4*%
X124000000Y-94000000D03*
D20*
X124000000Y-90500000D03*
%TD*%
D19*
%TO.C,C5*%
X124000000Y-129500000D03*
D20*
X124000000Y-126000000D03*
%TD*%
%TO.C,C7*%
G36*
G01*
X140655000Y-94325000D02*
X139345000Y-94325000D01*
G75*
G02*
X139075000Y-94055000I0J270000D01*
G01*
X139075000Y-93245000D01*
G75*
G02*
X139345000Y-92975000I270000J0D01*
G01*
X140655000Y-92975000D01*
G75*
G02*
X140925000Y-93245000I0J-270000D01*
G01*
X140925000Y-94055000D01*
G75*
G02*
X140655000Y-94325000I-270000J0D01*
G01*
G37*
G36*
G01*
X140655000Y-91525000D02*
X139345000Y-91525000D01*
G75*
G02*
X139075000Y-91255000I0J270000D01*
G01*
X139075000Y-90445000D01*
G75*
G02*
X139345000Y-90175000I270000J0D01*
G01*
X140655000Y-90175000D01*
G75*
G02*
X140925000Y-90445000I0J-270000D01*
G01*
X140925000Y-91255000D01*
G75*
G02*
X140655000Y-91525000I-270000J0D01*
G01*
G37*
%TD*%
%TO.C,C8*%
G36*
G01*
X139345000Y-128475000D02*
X140655000Y-128475000D01*
G75*
G02*
X140925000Y-128745000I0J-270000D01*
G01*
X140925000Y-129555000D01*
G75*
G02*
X140655000Y-129825000I-270000J0D01*
G01*
X139345000Y-129825000D01*
G75*
G02*
X139075000Y-129555000I0J270000D01*
G01*
X139075000Y-128745000D01*
G75*
G02*
X139345000Y-128475000I270000J0D01*
G01*
G37*
G36*
G01*
X139345000Y-125675000D02*
X140655000Y-125675000D01*
G75*
G02*
X140925000Y-125945000I0J-270000D01*
G01*
X140925000Y-126755000D01*
G75*
G02*
X140655000Y-127025000I-270000J0D01*
G01*
X139345000Y-127025000D01*
G75*
G02*
X139075000Y-126755000I0J270000D01*
G01*
X139075000Y-125945000D01*
G75*
G02*
X139345000Y-125675000I270000J0D01*
G01*
G37*
%TD*%
%TO.C,C9*%
G36*
G01*
X142905000Y-91525000D02*
X141595000Y-91525000D01*
G75*
G02*
X141325000Y-91255000I0J270000D01*
G01*
X141325000Y-90445000D01*
G75*
G02*
X141595000Y-90175000I270000J0D01*
G01*
X142905000Y-90175000D01*
G75*
G02*
X143175000Y-90445000I0J-270000D01*
G01*
X143175000Y-91255000D01*
G75*
G02*
X142905000Y-91525000I-270000J0D01*
G01*
G37*
G36*
G01*
X142905000Y-94325000D02*
X141595000Y-94325000D01*
G75*
G02*
X141325000Y-94055000I0J270000D01*
G01*
X141325000Y-93245000D01*
G75*
G02*
X141595000Y-92975000I270000J0D01*
G01*
X142905000Y-92975000D01*
G75*
G02*
X143175000Y-93245000I0J-270000D01*
G01*
X143175000Y-94055000D01*
G75*
G02*
X142905000Y-94325000I-270000J0D01*
G01*
G37*
%TD*%
%TO.C,C10*%
G36*
G01*
X141595000Y-125675000D02*
X142905000Y-125675000D01*
G75*
G02*
X143175000Y-125945000I0J-270000D01*
G01*
X143175000Y-126755000D01*
G75*
G02*
X142905000Y-127025000I-270000J0D01*
G01*
X141595000Y-127025000D01*
G75*
G02*
X141325000Y-126755000I0J270000D01*
G01*
X141325000Y-125945000D01*
G75*
G02*
X141595000Y-125675000I270000J0D01*
G01*
G37*
G36*
G01*
X141595000Y-128475000D02*
X142905000Y-128475000D01*
G75*
G02*
X143175000Y-128745000I0J-270000D01*
G01*
X143175000Y-129555000D01*
G75*
G02*
X142905000Y-129825000I-270000J0D01*
G01*
X141595000Y-129825000D01*
G75*
G02*
X141325000Y-129555000I0J270000D01*
G01*
X141325000Y-128745000D01*
G75*
G02*
X141595000Y-128475000I270000J0D01*
G01*
G37*
%TD*%
%TO.C,C12*%
G36*
G01*
X145155000Y-94325000D02*
X143845000Y-94325000D01*
G75*
G02*
X143575000Y-94055000I0J270000D01*
G01*
X143575000Y-93245000D01*
G75*
G02*
X143845000Y-92975000I270000J0D01*
G01*
X145155000Y-92975000D01*
G75*
G02*
X145425000Y-93245000I0J-270000D01*
G01*
X145425000Y-94055000D01*
G75*
G02*
X145155000Y-94325000I-270000J0D01*
G01*
G37*
G36*
G01*
X145155000Y-91525000D02*
X143845000Y-91525000D01*
G75*
G02*
X143575000Y-91255000I0J270000D01*
G01*
X143575000Y-90445000D01*
G75*
G02*
X143845000Y-90175000I270000J0D01*
G01*
X145155000Y-90175000D01*
G75*
G02*
X145425000Y-90445000I0J-270000D01*
G01*
X145425000Y-91255000D01*
G75*
G02*
X145155000Y-91525000I-270000J0D01*
G01*
G37*
%TD*%
%TO.C,C13*%
G36*
G01*
X143845000Y-125675000D02*
X145155000Y-125675000D01*
G75*
G02*
X145425000Y-125945000I0J-270000D01*
G01*
X145425000Y-126755000D01*
G75*
G02*
X145155000Y-127025000I-270000J0D01*
G01*
X143845000Y-127025000D01*
G75*
G02*
X143575000Y-126755000I0J270000D01*
G01*
X143575000Y-125945000D01*
G75*
G02*
X143845000Y-125675000I270000J0D01*
G01*
G37*
G36*
G01*
X143845000Y-128475000D02*
X145155000Y-128475000D01*
G75*
G02*
X145425000Y-128745000I0J-270000D01*
G01*
X145425000Y-129555000D01*
G75*
G02*
X145155000Y-129825000I-270000J0D01*
G01*
X143845000Y-129825000D01*
G75*
G02*
X143575000Y-129555000I0J270000D01*
G01*
X143575000Y-128745000D01*
G75*
G02*
X143845000Y-128475000I270000J0D01*
G01*
G37*
%TD*%
%TO.C,C20*%
G36*
G01*
X177595000Y-92975000D02*
X178905000Y-92975000D01*
G75*
G02*
X179175000Y-93245000I0J-270000D01*
G01*
X179175000Y-94055000D01*
G75*
G02*
X178905000Y-94325000I-270000J0D01*
G01*
X177595000Y-94325000D01*
G75*
G02*
X177325000Y-94055000I0J270000D01*
G01*
X177325000Y-93245000D01*
G75*
G02*
X177595000Y-92975000I270000J0D01*
G01*
G37*
G36*
G01*
X177595000Y-90175000D02*
X178905000Y-90175000D01*
G75*
G02*
X179175000Y-90445000I0J-270000D01*
G01*
X179175000Y-91255000D01*
G75*
G02*
X178905000Y-91525000I-270000J0D01*
G01*
X177595000Y-91525000D01*
G75*
G02*
X177325000Y-91255000I0J270000D01*
G01*
X177325000Y-90445000D01*
G75*
G02*
X177595000Y-90175000I270000J0D01*
G01*
G37*
%TD*%
%TO.C,C21*%
G36*
G01*
X178905000Y-127025000D02*
X177595000Y-127025000D01*
G75*
G02*
X177325000Y-126755000I0J270000D01*
G01*
X177325000Y-125945000D01*
G75*
G02*
X177595000Y-125675000I270000J0D01*
G01*
X178905000Y-125675000D01*
G75*
G02*
X179175000Y-125945000I0J-270000D01*
G01*
X179175000Y-126755000D01*
G75*
G02*
X178905000Y-127025000I-270000J0D01*
G01*
G37*
G36*
G01*
X178905000Y-129825000D02*
X177595000Y-129825000D01*
G75*
G02*
X177325000Y-129555000I0J270000D01*
G01*
X177325000Y-128745000D01*
G75*
G02*
X177595000Y-128475000I270000J0D01*
G01*
X178905000Y-128475000D01*
G75*
G02*
X179175000Y-128745000I0J-270000D01*
G01*
X179175000Y-129555000D01*
G75*
G02*
X178905000Y-129825000I-270000J0D01*
G01*
G37*
%TD*%
%TO.C,C22*%
G36*
G01*
X175095000Y-90175000D02*
X176405000Y-90175000D01*
G75*
G02*
X176675000Y-90445000I0J-270000D01*
G01*
X176675000Y-91255000D01*
G75*
G02*
X176405000Y-91525000I-270000J0D01*
G01*
X175095000Y-91525000D01*
G75*
G02*
X174825000Y-91255000I0J270000D01*
G01*
X174825000Y-90445000D01*
G75*
G02*
X175095000Y-90175000I270000J0D01*
G01*
G37*
G36*
G01*
X175095000Y-92975000D02*
X176405000Y-92975000D01*
G75*
G02*
X176675000Y-93245000I0J-270000D01*
G01*
X176675000Y-94055000D01*
G75*
G02*
X176405000Y-94325000I-270000J0D01*
G01*
X175095000Y-94325000D01*
G75*
G02*
X174825000Y-94055000I0J270000D01*
G01*
X174825000Y-93245000D01*
G75*
G02*
X175095000Y-92975000I270000J0D01*
G01*
G37*
%TD*%
%TO.C,C23*%
G36*
G01*
X176405000Y-129825000D02*
X175095000Y-129825000D01*
G75*
G02*
X174825000Y-129555000I0J270000D01*
G01*
X174825000Y-128745000D01*
G75*
G02*
X175095000Y-128475000I270000J0D01*
G01*
X176405000Y-128475000D01*
G75*
G02*
X176675000Y-128745000I0J-270000D01*
G01*
X176675000Y-129555000D01*
G75*
G02*
X176405000Y-129825000I-270000J0D01*
G01*
G37*
G36*
G01*
X176405000Y-127025000D02*
X175095000Y-127025000D01*
G75*
G02*
X174825000Y-126755000I0J270000D01*
G01*
X174825000Y-125945000D01*
G75*
G02*
X175095000Y-125675000I270000J0D01*
G01*
X176405000Y-125675000D01*
G75*
G02*
X176675000Y-125945000I0J-270000D01*
G01*
X176675000Y-126755000D01*
G75*
G02*
X176405000Y-127025000I-270000J0D01*
G01*
G37*
%TD*%
%TO.C,C24*%
G36*
G01*
X172595000Y-92975000D02*
X173905000Y-92975000D01*
G75*
G02*
X174175000Y-93245000I0J-270000D01*
G01*
X174175000Y-94055000D01*
G75*
G02*
X173905000Y-94325000I-270000J0D01*
G01*
X172595000Y-94325000D01*
G75*
G02*
X172325000Y-94055000I0J270000D01*
G01*
X172325000Y-93245000D01*
G75*
G02*
X172595000Y-92975000I270000J0D01*
G01*
G37*
G36*
G01*
X172595000Y-90175000D02*
X173905000Y-90175000D01*
G75*
G02*
X174175000Y-90445000I0J-270000D01*
G01*
X174175000Y-91255000D01*
G75*
G02*
X173905000Y-91525000I-270000J0D01*
G01*
X172595000Y-91525000D01*
G75*
G02*
X172325000Y-91255000I0J270000D01*
G01*
X172325000Y-90445000D01*
G75*
G02*
X172595000Y-90175000I270000J0D01*
G01*
G37*
%TD*%
%TO.C,C25*%
G36*
G01*
X173905000Y-127025000D02*
X172595000Y-127025000D01*
G75*
G02*
X172325000Y-126755000I0J270000D01*
G01*
X172325000Y-125945000D01*
G75*
G02*
X172595000Y-125675000I270000J0D01*
G01*
X173905000Y-125675000D01*
G75*
G02*
X174175000Y-125945000I0J-270000D01*
G01*
X174175000Y-126755000D01*
G75*
G02*
X173905000Y-127025000I-270000J0D01*
G01*
G37*
G36*
G01*
X173905000Y-129825000D02*
X172595000Y-129825000D01*
G75*
G02*
X172325000Y-129555000I0J270000D01*
G01*
X172325000Y-128745000D01*
G75*
G02*
X172595000Y-128475000I270000J0D01*
G01*
X173905000Y-128475000D01*
G75*
G02*
X174175000Y-128745000I0J-270000D01*
G01*
X174175000Y-129555000D01*
G75*
G02*
X173905000Y-129825000I-270000J0D01*
G01*
G37*
%TD*%
D25*
%TO.C,H5*%
X115697056Y-88802944D03*
X114000000Y-88100000D03*
X112302944Y-88802944D03*
X111600000Y-90500000D03*
X112302944Y-92197056D03*
X114000000Y-92900000D03*
X115697056Y-92197056D03*
X116400000Y-90500000D03*
D26*
X114000000Y-90500000D03*
%TD*%
%TO.C,H6*%
X186000000Y-90500000D03*
D25*
X188400000Y-90500000D03*
X187697056Y-92197056D03*
X186000000Y-92900000D03*
X184302944Y-92197056D03*
X183600000Y-90500000D03*
X184302944Y-88802944D03*
X186000000Y-88100000D03*
X187697056Y-88802944D03*
%TD*%
%TO.C,H7*%
X115697056Y-127802944D03*
X114000000Y-127100000D03*
X112302944Y-127802944D03*
X111600000Y-129500000D03*
X112302944Y-131197056D03*
X114000000Y-131900000D03*
X115697056Y-131197056D03*
X116400000Y-129500000D03*
D26*
X114000000Y-129500000D03*
%TD*%
%TO.C,H8*%
X186000000Y-129500000D03*
D25*
X188400000Y-129500000D03*
X187697056Y-131197056D03*
X186000000Y-131900000D03*
X184302944Y-131197056D03*
X183600000Y-129500000D03*
X184302944Y-127802944D03*
X186000000Y-127100000D03*
X187697056Y-127802944D03*
%TD*%
D27*
%TO.C,Q4*%
X167540000Y-127000000D03*
X165000000Y-127000000D03*
D28*
X162460000Y-127000000D03*
%TD*%
%TO.C,Q5*%
X150460000Y-127000000D03*
D27*
X153000000Y-127000000D03*
X155540000Y-127000000D03*
%TD*%
D28*
%TO.C,Q6*%
X167540000Y-93000000D03*
D27*
X165000000Y-93000000D03*
X162460000Y-93000000D03*
%TD*%
%TO.C,Q7*%
X150460000Y-93000000D03*
X153000000Y-93000000D03*
D28*
X155540000Y-93000000D03*
%TD*%
D29*
%TO.C,H1*%
X114000000Y-98000000D03*
%TD*%
%TO.C,H2*%
X114000000Y-110000000D03*
%TD*%
%TO.C,H4*%
X114000000Y-122000000D03*
%TD*%
%TO.C,H9*%
X186000000Y-98000000D03*
%TD*%
%TO.C,H10*%
X186000000Y-110000000D03*
%TD*%
%TO.C,H11*%
X186000000Y-122000000D03*
%TD*%
%TO.C,C3*%
G36*
G01*
X139300000Y-113781250D02*
X139300000Y-113218750D01*
G75*
G02*
X139543750Y-112975000I243750J0D01*
G01*
X140031250Y-112975000D01*
G75*
G02*
X140275000Y-113218750I0J-243750D01*
G01*
X140275000Y-113781250D01*
G75*
G02*
X140031250Y-114025000I-243750J0D01*
G01*
X139543750Y-114025000D01*
G75*
G02*
X139300000Y-113781250I0J243750D01*
G01*
G37*
G36*
G01*
X137725000Y-113781250D02*
X137725000Y-113218750D01*
G75*
G02*
X137968750Y-112975000I243750J0D01*
G01*
X138456250Y-112975000D01*
G75*
G02*
X138700000Y-113218750I0J-243750D01*
G01*
X138700000Y-113781250D01*
G75*
G02*
X138456250Y-114025000I-243750J0D01*
G01*
X137968750Y-114025000D01*
G75*
G02*
X137725000Y-113781250I0J243750D01*
G01*
G37*
%TD*%
%TO.C,C6*%
G36*
G01*
X129468750Y-98225000D02*
X130031250Y-98225000D01*
G75*
G02*
X130275000Y-98468750I0J-243750D01*
G01*
X130275000Y-98956250D01*
G75*
G02*
X130031250Y-99200000I-243750J0D01*
G01*
X129468750Y-99200000D01*
G75*
G02*
X129225000Y-98956250I0J243750D01*
G01*
X129225000Y-98468750D01*
G75*
G02*
X129468750Y-98225000I243750J0D01*
G01*
G37*
G36*
G01*
X129468750Y-99800000D02*
X130031250Y-99800000D01*
G75*
G02*
X130275000Y-100043750I0J-243750D01*
G01*
X130275000Y-100531250D01*
G75*
G02*
X130031250Y-100775000I-243750J0D01*
G01*
X129468750Y-100775000D01*
G75*
G02*
X129225000Y-100531250I0J243750D01*
G01*
X129225000Y-100043750D01*
G75*
G02*
X129468750Y-99800000I243750J0D01*
G01*
G37*
%TD*%
%TO.C,C11*%
G36*
G01*
X123531250Y-112200000D02*
X122968750Y-112200000D01*
G75*
G02*
X122725000Y-111956250I0J243750D01*
G01*
X122725000Y-111468750D01*
G75*
G02*
X122968750Y-111225000I243750J0D01*
G01*
X123531250Y-111225000D01*
G75*
G02*
X123775000Y-111468750I0J-243750D01*
G01*
X123775000Y-111956250D01*
G75*
G02*
X123531250Y-112200000I-243750J0D01*
G01*
G37*
G36*
G01*
X123531250Y-113775000D02*
X122968750Y-113775000D01*
G75*
G02*
X122725000Y-113531250I0J243750D01*
G01*
X122725000Y-113043750D01*
G75*
G02*
X122968750Y-112800000I243750J0D01*
G01*
X123531250Y-112800000D01*
G75*
G02*
X123775000Y-113043750I0J-243750D01*
G01*
X123775000Y-113531250D01*
G75*
G02*
X123531250Y-113775000I-243750J0D01*
G01*
G37*
%TD*%
%TO.C,C14*%
G36*
G01*
X132718750Y-115800000D02*
X133281250Y-115800000D01*
G75*
G02*
X133525000Y-116043750I0J-243750D01*
G01*
X133525000Y-116531250D01*
G75*
G02*
X133281250Y-116775000I-243750J0D01*
G01*
X132718750Y-116775000D01*
G75*
G02*
X132475000Y-116531250I0J243750D01*
G01*
X132475000Y-116043750D01*
G75*
G02*
X132718750Y-115800000I243750J0D01*
G01*
G37*
G36*
G01*
X132718750Y-114225000D02*
X133281250Y-114225000D01*
G75*
G02*
X133525000Y-114468750I0J-243750D01*
G01*
X133525000Y-114956250D01*
G75*
G02*
X133281250Y-115200000I-243750J0D01*
G01*
X132718750Y-115200000D01*
G75*
G02*
X132475000Y-114956250I0J243750D01*
G01*
X132475000Y-114468750D01*
G75*
G02*
X132718750Y-114225000I243750J0D01*
G01*
G37*
%TD*%
%TO.C,C15*%
G36*
G01*
X135968750Y-111300000D02*
X136531250Y-111300000D01*
G75*
G02*
X136775000Y-111543750I0J-243750D01*
G01*
X136775000Y-112031250D01*
G75*
G02*
X136531250Y-112275000I-243750J0D01*
G01*
X135968750Y-112275000D01*
G75*
G02*
X135725000Y-112031250I0J243750D01*
G01*
X135725000Y-111543750D01*
G75*
G02*
X135968750Y-111300000I243750J0D01*
G01*
G37*
G36*
G01*
X135968750Y-109725000D02*
X136531250Y-109725000D01*
G75*
G02*
X136775000Y-109968750I0J-243750D01*
G01*
X136775000Y-110456250D01*
G75*
G02*
X136531250Y-110700000I-243750J0D01*
G01*
X135968750Y-110700000D01*
G75*
G02*
X135725000Y-110456250I0J243750D01*
G01*
X135725000Y-109968750D01*
G75*
G02*
X135968750Y-109725000I243750J0D01*
G01*
G37*
%TD*%
%TO.C,C16*%
G36*
G01*
X135968750Y-106725000D02*
X136531250Y-106725000D01*
G75*
G02*
X136775000Y-106968750I0J-243750D01*
G01*
X136775000Y-107456250D01*
G75*
G02*
X136531250Y-107700000I-243750J0D01*
G01*
X135968750Y-107700000D01*
G75*
G02*
X135725000Y-107456250I0J243750D01*
G01*
X135725000Y-106968750D01*
G75*
G02*
X135968750Y-106725000I243750J0D01*
G01*
G37*
G36*
G01*
X135968750Y-108300000D02*
X136531250Y-108300000D01*
G75*
G02*
X136775000Y-108543750I0J-243750D01*
G01*
X136775000Y-109031250D01*
G75*
G02*
X136531250Y-109275000I-243750J0D01*
G01*
X135968750Y-109275000D01*
G75*
G02*
X135725000Y-109031250I0J243750D01*
G01*
X135725000Y-108543750D01*
G75*
G02*
X135968750Y-108300000I243750J0D01*
G01*
G37*
%TD*%
%TO.C,C17*%
G36*
G01*
X145218750Y-108550000D02*
X145781250Y-108550000D01*
G75*
G02*
X146025000Y-108793750I0J-243750D01*
G01*
X146025000Y-109281250D01*
G75*
G02*
X145781250Y-109525000I-243750J0D01*
G01*
X145218750Y-109525000D01*
G75*
G02*
X144975000Y-109281250I0J243750D01*
G01*
X144975000Y-108793750D01*
G75*
G02*
X145218750Y-108550000I243750J0D01*
G01*
G37*
G36*
G01*
X145218750Y-106975000D02*
X145781250Y-106975000D01*
G75*
G02*
X146025000Y-107218750I0J-243750D01*
G01*
X146025000Y-107706250D01*
G75*
G02*
X145781250Y-107950000I-243750J0D01*
G01*
X145218750Y-107950000D01*
G75*
G02*
X144975000Y-107706250I0J243750D01*
G01*
X144975000Y-107218750D01*
G75*
G02*
X145218750Y-106975000I243750J0D01*
G01*
G37*
%TD*%
%TO.C,C18*%
G36*
G01*
X141718750Y-117225000D02*
X142281250Y-117225000D01*
G75*
G02*
X142525000Y-117468750I0J-243750D01*
G01*
X142525000Y-117956250D01*
G75*
G02*
X142281250Y-118200000I-243750J0D01*
G01*
X141718750Y-118200000D01*
G75*
G02*
X141475000Y-117956250I0J243750D01*
G01*
X141475000Y-117468750D01*
G75*
G02*
X141718750Y-117225000I243750J0D01*
G01*
G37*
G36*
G01*
X141718750Y-118800000D02*
X142281250Y-118800000D01*
G75*
G02*
X142525000Y-119043750I0J-243750D01*
G01*
X142525000Y-119531250D01*
G75*
G02*
X142281250Y-119775000I-243750J0D01*
G01*
X141718750Y-119775000D01*
G75*
G02*
X141475000Y-119531250I0J243750D01*
G01*
X141475000Y-119043750D01*
G75*
G02*
X141718750Y-118800000I243750J0D01*
G01*
G37*
%TD*%
%TO.C,C19*%
G36*
G01*
X141475000Y-116281250D02*
X141475000Y-115718750D01*
G75*
G02*
X141718750Y-115475000I243750J0D01*
G01*
X142206250Y-115475000D01*
G75*
G02*
X142450000Y-115718750I0J-243750D01*
G01*
X142450000Y-116281250D01*
G75*
G02*
X142206250Y-116525000I-243750J0D01*
G01*
X141718750Y-116525000D01*
G75*
G02*
X141475000Y-116281250I0J243750D01*
G01*
G37*
G36*
G01*
X143050000Y-116281250D02*
X143050000Y-115718750D01*
G75*
G02*
X143293750Y-115475000I243750J0D01*
G01*
X143781250Y-115475000D01*
G75*
G02*
X144025000Y-115718750I0J-243750D01*
G01*
X144025000Y-116281250D01*
G75*
G02*
X143781250Y-116525000I-243750J0D01*
G01*
X143293750Y-116525000D01*
G75*
G02*
X143050000Y-116281250I0J243750D01*
G01*
G37*
%TD*%
%TO.C,C26*%
G36*
G01*
X129025000Y-118718750D02*
X129025000Y-119281250D01*
G75*
G02*
X128781250Y-119525000I-243750J0D01*
G01*
X128293750Y-119525000D01*
G75*
G02*
X128050000Y-119281250I0J243750D01*
G01*
X128050000Y-118718750D01*
G75*
G02*
X128293750Y-118475000I243750J0D01*
G01*
X128781250Y-118475000D01*
G75*
G02*
X129025000Y-118718750I0J-243750D01*
G01*
G37*
G36*
G01*
X127450000Y-118718750D02*
X127450000Y-119281250D01*
G75*
G02*
X127206250Y-119525000I-243750J0D01*
G01*
X126718750Y-119525000D01*
G75*
G02*
X126475000Y-119281250I0J243750D01*
G01*
X126475000Y-118718750D01*
G75*
G02*
X126718750Y-118475000I243750J0D01*
G01*
X127206250Y-118475000D01*
G75*
G02*
X127450000Y-118718750I0J-243750D01*
G01*
G37*
%TD*%
%TO.C,C27*%
G36*
G01*
X128050000Y-110031250D02*
X128050000Y-109468750D01*
G75*
G02*
X128293750Y-109225000I243750J0D01*
G01*
X128781250Y-109225000D01*
G75*
G02*
X129025000Y-109468750I0J-243750D01*
G01*
X129025000Y-110031250D01*
G75*
G02*
X128781250Y-110275000I-243750J0D01*
G01*
X128293750Y-110275000D01*
G75*
G02*
X128050000Y-110031250I0J243750D01*
G01*
G37*
G36*
G01*
X126475000Y-110031250D02*
X126475000Y-109468750D01*
G75*
G02*
X126718750Y-109225000I243750J0D01*
G01*
X127206250Y-109225000D01*
G75*
G02*
X127450000Y-109468750I0J-243750D01*
G01*
X127450000Y-110031250D01*
G75*
G02*
X127206250Y-110275000I-243750J0D01*
G01*
X126718750Y-110275000D01*
G75*
G02*
X126475000Y-110031250I0J243750D01*
G01*
G37*
%TD*%
%TO.C,R1*%
G36*
G01*
X123968750Y-98225000D02*
X124531250Y-98225000D01*
G75*
G02*
X124775000Y-98468750I0J-243750D01*
G01*
X124775000Y-98956250D01*
G75*
G02*
X124531250Y-99200000I-243750J0D01*
G01*
X123968750Y-99200000D01*
G75*
G02*
X123725000Y-98956250I0J243750D01*
G01*
X123725000Y-98468750D01*
G75*
G02*
X123968750Y-98225000I243750J0D01*
G01*
G37*
G36*
G01*
X123968750Y-99800000D02*
X124531250Y-99800000D01*
G75*
G02*
X124775000Y-100043750I0J-243750D01*
G01*
X124775000Y-100531250D01*
G75*
G02*
X124531250Y-100775000I-243750J0D01*
G01*
X123968750Y-100775000D01*
G75*
G02*
X123725000Y-100531250I0J243750D01*
G01*
X123725000Y-100043750D01*
G75*
G02*
X123968750Y-99800000I243750J0D01*
G01*
G37*
%TD*%
%TO.C,R2*%
G36*
G01*
X127968750Y-99800000D02*
X128531250Y-99800000D01*
G75*
G02*
X128775000Y-100043750I0J-243750D01*
G01*
X128775000Y-100531250D01*
G75*
G02*
X128531250Y-100775000I-243750J0D01*
G01*
X127968750Y-100775000D01*
G75*
G02*
X127725000Y-100531250I0J243750D01*
G01*
X127725000Y-100043750D01*
G75*
G02*
X127968750Y-99800000I243750J0D01*
G01*
G37*
G36*
G01*
X127968750Y-98225000D02*
X128531250Y-98225000D01*
G75*
G02*
X128775000Y-98468750I0J-243750D01*
G01*
X128775000Y-98956250D01*
G75*
G02*
X128531250Y-99200000I-243750J0D01*
G01*
X127968750Y-99200000D01*
G75*
G02*
X127725000Y-98956250I0J243750D01*
G01*
X127725000Y-98468750D01*
G75*
G02*
X127968750Y-98225000I243750J0D01*
G01*
G37*
%TD*%
%TO.C,R9*%
G36*
G01*
X145781250Y-106275000D02*
X145218750Y-106275000D01*
G75*
G02*
X144975000Y-106031250I0J243750D01*
G01*
X144975000Y-105543750D01*
G75*
G02*
X145218750Y-105300000I243750J0D01*
G01*
X145781250Y-105300000D01*
G75*
G02*
X146025000Y-105543750I0J-243750D01*
G01*
X146025000Y-106031250D01*
G75*
G02*
X145781250Y-106275000I-243750J0D01*
G01*
G37*
G36*
G01*
X145781250Y-104700000D02*
X145218750Y-104700000D01*
G75*
G02*
X144975000Y-104456250I0J243750D01*
G01*
X144975000Y-103968750D01*
G75*
G02*
X145218750Y-103725000I243750J0D01*
G01*
X145781250Y-103725000D01*
G75*
G02*
X146025000Y-103968750I0J-243750D01*
G01*
X146025000Y-104456250D01*
G75*
G02*
X145781250Y-104700000I-243750J0D01*
G01*
G37*
%TD*%
%TO.C,R11*%
G36*
G01*
X132718750Y-117225000D02*
X133281250Y-117225000D01*
G75*
G02*
X133525000Y-117468750I0J-243750D01*
G01*
X133525000Y-117956250D01*
G75*
G02*
X133281250Y-118200000I-243750J0D01*
G01*
X132718750Y-118200000D01*
G75*
G02*
X132475000Y-117956250I0J243750D01*
G01*
X132475000Y-117468750D01*
G75*
G02*
X132718750Y-117225000I243750J0D01*
G01*
G37*
G36*
G01*
X132718750Y-118800000D02*
X133281250Y-118800000D01*
G75*
G02*
X133525000Y-119043750I0J-243750D01*
G01*
X133525000Y-119531250D01*
G75*
G02*
X133281250Y-119775000I-243750J0D01*
G01*
X132718750Y-119775000D01*
G75*
G02*
X132475000Y-119531250I0J243750D01*
G01*
X132475000Y-119043750D01*
G75*
G02*
X132718750Y-118800000I243750J0D01*
G01*
G37*
%TD*%
%TO.C,R15*%
G36*
G01*
X134218750Y-109725000D02*
X134781250Y-109725000D01*
G75*
G02*
X135025000Y-109968750I0J-243750D01*
G01*
X135025000Y-110456250D01*
G75*
G02*
X134781250Y-110700000I-243750J0D01*
G01*
X134218750Y-110700000D01*
G75*
G02*
X133975000Y-110456250I0J243750D01*
G01*
X133975000Y-109968750D01*
G75*
G02*
X134218750Y-109725000I243750J0D01*
G01*
G37*
G36*
G01*
X134218750Y-111300000D02*
X134781250Y-111300000D01*
G75*
G02*
X135025000Y-111543750I0J-243750D01*
G01*
X135025000Y-112031250D01*
G75*
G02*
X134781250Y-112275000I-243750J0D01*
G01*
X134218750Y-112275000D01*
G75*
G02*
X133975000Y-112031250I0J243750D01*
G01*
X133975000Y-111543750D01*
G75*
G02*
X134218750Y-111300000I243750J0D01*
G01*
G37*
%TD*%
%TO.C,R16*%
G36*
G01*
X134781250Y-107700000D02*
X134218750Y-107700000D01*
G75*
G02*
X133975000Y-107456250I0J243750D01*
G01*
X133975000Y-106968750D01*
G75*
G02*
X134218750Y-106725000I243750J0D01*
G01*
X134781250Y-106725000D01*
G75*
G02*
X135025000Y-106968750I0J-243750D01*
G01*
X135025000Y-107456250D01*
G75*
G02*
X134781250Y-107700000I-243750J0D01*
G01*
G37*
G36*
G01*
X134781250Y-109275000D02*
X134218750Y-109275000D01*
G75*
G02*
X133975000Y-109031250I0J243750D01*
G01*
X133975000Y-108543750D01*
G75*
G02*
X134218750Y-108300000I243750J0D01*
G01*
X134781250Y-108300000D01*
G75*
G02*
X135025000Y-108543750I0J-243750D01*
G01*
X135025000Y-109031250D01*
G75*
G02*
X134781250Y-109275000I-243750J0D01*
G01*
G37*
%TD*%
%TO.C,R17*%
G36*
G01*
X143218750Y-117225000D02*
X143781250Y-117225000D01*
G75*
G02*
X144025000Y-117468750I0J-243750D01*
G01*
X144025000Y-117956250D01*
G75*
G02*
X143781250Y-118200000I-243750J0D01*
G01*
X143218750Y-118200000D01*
G75*
G02*
X142975000Y-117956250I0J243750D01*
G01*
X142975000Y-117468750D01*
G75*
G02*
X143218750Y-117225000I243750J0D01*
G01*
G37*
G36*
G01*
X143218750Y-118800000D02*
X143781250Y-118800000D01*
G75*
G02*
X144025000Y-119043750I0J-243750D01*
G01*
X144025000Y-119531250D01*
G75*
G02*
X143781250Y-119775000I-243750J0D01*
G01*
X143218750Y-119775000D01*
G75*
G02*
X142975000Y-119531250I0J243750D01*
G01*
X142975000Y-119043750D01*
G75*
G02*
X143218750Y-118800000I243750J0D01*
G01*
G37*
%TD*%
%TO.C,R18*%
G36*
G01*
X142450000Y-113968750D02*
X142450000Y-114531250D01*
G75*
G02*
X142206250Y-114775000I-243750J0D01*
G01*
X141718750Y-114775000D01*
G75*
G02*
X141475000Y-114531250I0J243750D01*
G01*
X141475000Y-113968750D01*
G75*
G02*
X141718750Y-113725000I243750J0D01*
G01*
X142206250Y-113725000D01*
G75*
G02*
X142450000Y-113968750I0J-243750D01*
G01*
G37*
G36*
G01*
X144025000Y-113968750D02*
X144025000Y-114531250D01*
G75*
G02*
X143781250Y-114775000I-243750J0D01*
G01*
X143293750Y-114775000D01*
G75*
G02*
X143050000Y-114531250I0J243750D01*
G01*
X143050000Y-113968750D01*
G75*
G02*
X143293750Y-113725000I243750J0D01*
G01*
X143781250Y-113725000D01*
G75*
G02*
X144025000Y-113968750I0J-243750D01*
G01*
G37*
%TD*%
%TO.C,R23*%
G36*
G01*
X132718750Y-111300000D02*
X133281250Y-111300000D01*
G75*
G02*
X133525000Y-111543750I0J-243750D01*
G01*
X133525000Y-112031250D01*
G75*
G02*
X133281250Y-112275000I-243750J0D01*
G01*
X132718750Y-112275000D01*
G75*
G02*
X132475000Y-112031250I0J243750D01*
G01*
X132475000Y-111543750D01*
G75*
G02*
X132718750Y-111300000I243750J0D01*
G01*
G37*
G36*
G01*
X132718750Y-109725000D02*
X133281250Y-109725000D01*
G75*
G02*
X133525000Y-109968750I0J-243750D01*
G01*
X133525000Y-110456250D01*
G75*
G02*
X133281250Y-110700000I-243750J0D01*
G01*
X132718750Y-110700000D01*
G75*
G02*
X132475000Y-110456250I0J243750D01*
G01*
X132475000Y-109968750D01*
G75*
G02*
X132718750Y-109725000I243750J0D01*
G01*
G37*
%TD*%
%TO.C,R24*%
G36*
G01*
X144718750Y-114225000D02*
X145281250Y-114225000D01*
G75*
G02*
X145525000Y-114468750I0J-243750D01*
G01*
X145525000Y-114956250D01*
G75*
G02*
X145281250Y-115200000I-243750J0D01*
G01*
X144718750Y-115200000D01*
G75*
G02*
X144475000Y-114956250I0J243750D01*
G01*
X144475000Y-114468750D01*
G75*
G02*
X144718750Y-114225000I243750J0D01*
G01*
G37*
G36*
G01*
X144718750Y-115800000D02*
X145281250Y-115800000D01*
G75*
G02*
X145525000Y-116043750I0J-243750D01*
G01*
X145525000Y-116531250D01*
G75*
G02*
X145281250Y-116775000I-243750J0D01*
G01*
X144718750Y-116775000D01*
G75*
G02*
X144475000Y-116531250I0J243750D01*
G01*
X144475000Y-116043750D01*
G75*
G02*
X144718750Y-115800000I243750J0D01*
G01*
G37*
%TD*%
%TO.C,R25*%
G36*
G01*
X178513259Y-111911006D02*
X178911007Y-111513259D01*
G75*
G02*
X179255721Y-111513259I172357J-172357D01*
G01*
X179600435Y-111857973D01*
G75*
G02*
X179600435Y-112202687I-172357J-172357D01*
G01*
X179202687Y-112600435D01*
G75*
G02*
X178857973Y-112600435I-172357J172357D01*
G01*
X178513259Y-112255721D01*
G75*
G02*
X178513259Y-111911007I172357J172357D01*
G01*
G37*
G36*
G01*
X177399565Y-110797312D02*
X177797313Y-110399565D01*
G75*
G02*
X178142027Y-110399565I172357J-172357D01*
G01*
X178486741Y-110744279D01*
G75*
G02*
X178486741Y-111088993I-172357J-172357D01*
G01*
X178088993Y-111486741D01*
G75*
G02*
X177744279Y-111486741I-172357J172357D01*
G01*
X177399565Y-111142027D01*
G75*
G02*
X177399565Y-110797313I172357J172357D01*
G01*
G37*
%TD*%
%TO.C,R30*%
G36*
G01*
X133281250Y-109275000D02*
X132718750Y-109275000D01*
G75*
G02*
X132475000Y-109031250I0J243750D01*
G01*
X132475000Y-108543750D01*
G75*
G02*
X132718750Y-108300000I243750J0D01*
G01*
X133281250Y-108300000D01*
G75*
G02*
X133525000Y-108543750I0J-243750D01*
G01*
X133525000Y-109031250D01*
G75*
G02*
X133281250Y-109275000I-243750J0D01*
G01*
G37*
G36*
G01*
X133281250Y-107700000D02*
X132718750Y-107700000D01*
G75*
G02*
X132475000Y-107456250I0J243750D01*
G01*
X132475000Y-106968750D01*
G75*
G02*
X132718750Y-106725000I243750J0D01*
G01*
X133281250Y-106725000D01*
G75*
G02*
X133525000Y-106968750I0J-243750D01*
G01*
X133525000Y-107456250D01*
G75*
G02*
X133281250Y-107700000I-243750J0D01*
G01*
G37*
%TD*%
%TO.C,R31*%
G36*
G01*
X146218750Y-114225000D02*
X146781250Y-114225000D01*
G75*
G02*
X147025000Y-114468750I0J-243750D01*
G01*
X147025000Y-114956250D01*
G75*
G02*
X146781250Y-115200000I-243750J0D01*
G01*
X146218750Y-115200000D01*
G75*
G02*
X145975000Y-114956250I0J243750D01*
G01*
X145975000Y-114468750D01*
G75*
G02*
X146218750Y-114225000I243750J0D01*
G01*
G37*
G36*
G01*
X146218750Y-115800000D02*
X146781250Y-115800000D01*
G75*
G02*
X147025000Y-116043750I0J-243750D01*
G01*
X147025000Y-116531250D01*
G75*
G02*
X146781250Y-116775000I-243750J0D01*
G01*
X146218750Y-116775000D01*
G75*
G02*
X145975000Y-116531250I0J243750D01*
G01*
X145975000Y-116043750D01*
G75*
G02*
X146218750Y-115800000I243750J0D01*
G01*
G37*
%TD*%
%TO.C,R32*%
G36*
G01*
X176263259Y-112161006D02*
X176661007Y-111763259D01*
G75*
G02*
X177005721Y-111763259I172357J-172357D01*
G01*
X177350435Y-112107973D01*
G75*
G02*
X177350435Y-112452687I-172357J-172357D01*
G01*
X176952687Y-112850435D01*
G75*
G02*
X176607973Y-112850435I-172357J172357D01*
G01*
X176263259Y-112505721D01*
G75*
G02*
X176263259Y-112161007I172357J172357D01*
G01*
G37*
G36*
G01*
X175149565Y-111047312D02*
X175547313Y-110649565D01*
G75*
G02*
X175892027Y-110649565I172357J-172357D01*
G01*
X176236741Y-110994279D01*
G75*
G02*
X176236741Y-111338993I-172357J-172357D01*
G01*
X175838993Y-111736741D01*
G75*
G02*
X175494279Y-111736741I-172357J172357D01*
G01*
X175149565Y-111392027D01*
G75*
G02*
X175149565Y-111047313I172357J172357D01*
G01*
G37*
%TD*%
%TO.C,R35*%
G36*
G01*
X172899565Y-111547312D02*
X173297313Y-111149565D01*
G75*
G02*
X173642027Y-111149565I172357J-172357D01*
G01*
X173986741Y-111494279D01*
G75*
G02*
X173986741Y-111838993I-172357J-172357D01*
G01*
X173588993Y-112236741D01*
G75*
G02*
X173244279Y-112236741I-172357J172357D01*
G01*
X172899565Y-111892027D01*
G75*
G02*
X172899565Y-111547313I172357J172357D01*
G01*
G37*
G36*
G01*
X174013259Y-112661006D02*
X174411007Y-112263259D01*
G75*
G02*
X174755721Y-112263259I172357J-172357D01*
G01*
X175100435Y-112607973D01*
G75*
G02*
X175100435Y-112952687I-172357J-172357D01*
G01*
X174702687Y-113350435D01*
G75*
G02*
X174357973Y-113350435I-172357J172357D01*
G01*
X174013259Y-113005721D01*
G75*
G02*
X174013259Y-112661007I172357J172357D01*
G01*
G37*
%TD*%
D30*
X148000000Y-106750000D03*
X172750000Y-130500000D03*
X173750000Y-130500000D03*
X175250000Y-130500000D03*
X176250000Y-130500000D03*
X177750000Y-130500000D03*
X178750000Y-130500000D03*
X172750000Y-89500000D03*
X173750000Y-89500000D03*
X175250000Y-89500000D03*
X176250000Y-89500000D03*
X177750000Y-89500000D03*
X178750000Y-89500000D03*
X123250000Y-114500000D03*
X129500000Y-109750000D03*
X139750000Y-112250000D03*
X138250000Y-114750000D03*
X128750000Y-115000000D03*
X129750000Y-119000000D03*
X135000000Y-119750000D03*
X133000000Y-120500000D03*
X144750000Y-118750000D03*
X145000000Y-95000000D03*
X144000000Y-95000000D03*
X142750000Y-95000000D03*
X141750000Y-95000000D03*
X131750000Y-107250000D03*
X146000000Y-126250000D03*
X140000000Y-127500000D03*
X142250000Y-127500000D03*
X144500000Y-127500000D03*
X139000000Y-120000000D03*
X140379997Y-105999995D03*
X131596000Y-102846000D03*
X136676000Y-102824000D03*
X129750000Y-101500000D03*
X124250000Y-105500000D03*
X127250000Y-105500000D03*
X129750000Y-105500000D03*
M02*
