%TF.GenerationSoftware,KiCad,Pcbnew,(5.1.6)-1*%
%TF.CreationDate,2021-05-08T17:44:37+05:30*%
%TF.ProjectId,CC CV Power Supply Rev 3,43432043-5620-4506-9f77-657220537570,rev?*%
%TF.SameCoordinates,Original*%
%TF.FileFunction,Paste,Top*%
%TF.FilePolarity,Positive*%
%FSLAX46Y46*%
G04 Gerber Fmt 4.6, Leading zero omitted, Abs format (unit mm)*
G04 Created by KiCad (PCBNEW (5.1.6)-1) date 2021-05-08 17:44:37*
%MOMM*%
%LPD*%
G01*
G04 APERTURE LIST*
%ADD10C,0.100000*%
%ADD11R,0.900000X1.300000*%
%ADD12R,0.900000X0.800000*%
%ADD13R,0.800000X0.900000*%
%ADD14R,0.600000X0.450000*%
G04 APERTURE END LIST*
%TO.C,R28*%
G36*
G01*
X115875000Y-103225000D02*
X114625000Y-103225000D01*
G75*
G02*
X114375000Y-102975000I0J250000D01*
G01*
X114375000Y-102225000D01*
G75*
G02*
X114625000Y-101975000I250000J0D01*
G01*
X115875000Y-101975000D01*
G75*
G02*
X116125000Y-102225000I0J-250000D01*
G01*
X116125000Y-102975000D01*
G75*
G02*
X115875000Y-103225000I-250000J0D01*
G01*
G37*
G36*
G01*
X115875000Y-106025000D02*
X114625000Y-106025000D01*
G75*
G02*
X114375000Y-105775000I0J250000D01*
G01*
X114375000Y-105025000D01*
G75*
G02*
X114625000Y-104775000I250000J0D01*
G01*
X115875000Y-104775000D01*
G75*
G02*
X116125000Y-105025000I0J-250000D01*
G01*
X116125000Y-105775000D01*
G75*
G02*
X115875000Y-106025000I-250000J0D01*
G01*
G37*
%TD*%
%TO.C,R21*%
G36*
G01*
X113375000Y-103225000D02*
X112125000Y-103225000D01*
G75*
G02*
X111875000Y-102975000I0J250000D01*
G01*
X111875000Y-102225000D01*
G75*
G02*
X112125000Y-101975000I250000J0D01*
G01*
X113375000Y-101975000D01*
G75*
G02*
X113625000Y-102225000I0J-250000D01*
G01*
X113625000Y-102975000D01*
G75*
G02*
X113375000Y-103225000I-250000J0D01*
G01*
G37*
G36*
G01*
X113375000Y-106025000D02*
X112125000Y-106025000D01*
G75*
G02*
X111875000Y-105775000I0J250000D01*
G01*
X111875000Y-105025000D01*
G75*
G02*
X112125000Y-104775000I250000J0D01*
G01*
X113375000Y-104775000D01*
G75*
G02*
X113625000Y-105025000I0J-250000D01*
G01*
X113625000Y-105775000D01*
G75*
G02*
X113375000Y-106025000I-250000J0D01*
G01*
G37*
%TD*%
D10*
%TO.C,U6*%
G36*
X133962500Y-100316000D02*
G01*
X133962500Y-103441000D01*
X133546000Y-103441000D01*
X133546000Y-104916000D01*
X132646000Y-104916000D01*
X132646000Y-103441000D01*
X132229500Y-103441000D01*
X132229500Y-100316000D01*
X133962500Y-100316000D01*
G37*
D11*
X134596000Y-104266000D03*
X131596000Y-104266000D03*
%TD*%
D12*
%TO.C,Q11*%
X120750000Y-99500000D03*
X122750000Y-98550000D03*
X122750000Y-100450000D03*
%TD*%
D10*
%TO.C,U5*%
G36*
X139042500Y-100316000D02*
G01*
X139042500Y-103441000D01*
X138626000Y-103441000D01*
X138626000Y-104916000D01*
X137726000Y-104916000D01*
X137726000Y-103441000D01*
X137309500Y-103441000D01*
X137309500Y-100316000D01*
X139042500Y-100316000D01*
G37*
D11*
X139676000Y-104266000D03*
X136676000Y-104266000D03*
%TD*%
%TO.C,R53*%
G36*
G01*
X148506250Y-120400000D02*
X147993750Y-120400000D01*
G75*
G02*
X147775000Y-120181250I0J218750D01*
G01*
X147775000Y-119743750D01*
G75*
G02*
X147993750Y-119525000I218750J0D01*
G01*
X148506250Y-119525000D01*
G75*
G02*
X148725000Y-119743750I0J-218750D01*
G01*
X148725000Y-120181250D01*
G75*
G02*
X148506250Y-120400000I-218750J0D01*
G01*
G37*
G36*
G01*
X148506250Y-121975000D02*
X147993750Y-121975000D01*
G75*
G02*
X147775000Y-121756250I0J218750D01*
G01*
X147775000Y-121318750D01*
G75*
G02*
X147993750Y-121100000I218750J0D01*
G01*
X148506250Y-121100000D01*
G75*
G02*
X148725000Y-121318750I0J-218750D01*
G01*
X148725000Y-121756250D01*
G75*
G02*
X148506250Y-121975000I-218750J0D01*
G01*
G37*
%TD*%
%TO.C,R52*%
G36*
G01*
X145900000Y-95993750D02*
X145900000Y-96506250D01*
G75*
G02*
X145681250Y-96725000I-218750J0D01*
G01*
X145243750Y-96725000D01*
G75*
G02*
X145025000Y-96506250I0J218750D01*
G01*
X145025000Y-95993750D01*
G75*
G02*
X145243750Y-95775000I218750J0D01*
G01*
X145681250Y-95775000D01*
G75*
G02*
X145900000Y-95993750I0J-218750D01*
G01*
G37*
G36*
G01*
X147475000Y-95993750D02*
X147475000Y-96506250D01*
G75*
G02*
X147256250Y-96725000I-218750J0D01*
G01*
X146818750Y-96725000D01*
G75*
G02*
X146600000Y-96506250I0J218750D01*
G01*
X146600000Y-95993750D01*
G75*
G02*
X146818750Y-95775000I218750J0D01*
G01*
X147256250Y-95775000D01*
G75*
G02*
X147475000Y-95993750I0J-218750D01*
G01*
G37*
%TD*%
%TO.C,R14*%
G36*
G01*
X142150000Y-103493750D02*
X142150000Y-104006250D01*
G75*
G02*
X141931250Y-104225000I-218750J0D01*
G01*
X141493750Y-104225000D01*
G75*
G02*
X141275000Y-104006250I0J218750D01*
G01*
X141275000Y-103493750D01*
G75*
G02*
X141493750Y-103275000I218750J0D01*
G01*
X141931250Y-103275000D01*
G75*
G02*
X142150000Y-103493750I0J-218750D01*
G01*
G37*
G36*
G01*
X143725000Y-103493750D02*
X143725000Y-104006250D01*
G75*
G02*
X143506250Y-104225000I-218750J0D01*
G01*
X143068750Y-104225000D01*
G75*
G02*
X142850000Y-104006250I0J218750D01*
G01*
X142850000Y-103493750D01*
G75*
G02*
X143068750Y-103275000I218750J0D01*
G01*
X143506250Y-103275000D01*
G75*
G02*
X143725000Y-103493750I0J-218750D01*
G01*
G37*
%TD*%
%TO.C,R29*%
G36*
G01*
X139450000Y-99456250D02*
X139450000Y-98543750D01*
G75*
G02*
X139693750Y-98300000I243750J0D01*
G01*
X140181250Y-98300000D01*
G75*
G02*
X140425000Y-98543750I0J-243750D01*
G01*
X140425000Y-99456250D01*
G75*
G02*
X140181250Y-99700000I-243750J0D01*
G01*
X139693750Y-99700000D01*
G75*
G02*
X139450000Y-99456250I0J243750D01*
G01*
G37*
G36*
G01*
X137575000Y-99456250D02*
X137575000Y-98543750D01*
G75*
G02*
X137818750Y-98300000I243750J0D01*
G01*
X138306250Y-98300000D01*
G75*
G02*
X138550000Y-98543750I0J-243750D01*
G01*
X138550000Y-99456250D01*
G75*
G02*
X138306250Y-99700000I-243750J0D01*
G01*
X137818750Y-99700000D01*
G75*
G02*
X137575000Y-99456250I0J243750D01*
G01*
G37*
%TD*%
%TO.C,C32*%
G36*
G01*
X123993750Y-104100000D02*
X124506250Y-104100000D01*
G75*
G02*
X124725000Y-104318750I0J-218750D01*
G01*
X124725000Y-104756250D01*
G75*
G02*
X124506250Y-104975000I-218750J0D01*
G01*
X123993750Y-104975000D01*
G75*
G02*
X123775000Y-104756250I0J218750D01*
G01*
X123775000Y-104318750D01*
G75*
G02*
X123993750Y-104100000I218750J0D01*
G01*
G37*
G36*
G01*
X123993750Y-102525000D02*
X124506250Y-102525000D01*
G75*
G02*
X124725000Y-102743750I0J-218750D01*
G01*
X124725000Y-103181250D01*
G75*
G02*
X124506250Y-103400000I-218750J0D01*
G01*
X123993750Y-103400000D01*
G75*
G02*
X123775000Y-103181250I0J218750D01*
G01*
X123775000Y-102743750D01*
G75*
G02*
X123993750Y-102525000I218750J0D01*
G01*
G37*
%TD*%
%TO.C,R22*%
G36*
G01*
X139850000Y-124756250D02*
X139850000Y-124243750D01*
G75*
G02*
X140068750Y-124025000I218750J0D01*
G01*
X140506250Y-124025000D01*
G75*
G02*
X140725000Y-124243750I0J-218750D01*
G01*
X140725000Y-124756250D01*
G75*
G02*
X140506250Y-124975000I-218750J0D01*
G01*
X140068750Y-124975000D01*
G75*
G02*
X139850000Y-124756250I0J218750D01*
G01*
G37*
G36*
G01*
X138275000Y-124756250D02*
X138275000Y-124243750D01*
G75*
G02*
X138493750Y-124025000I218750J0D01*
G01*
X138931250Y-124025000D01*
G75*
G02*
X139150000Y-124243750I0J-218750D01*
G01*
X139150000Y-124756250D01*
G75*
G02*
X138931250Y-124975000I-218750J0D01*
G01*
X138493750Y-124975000D01*
G75*
G02*
X138275000Y-124756250I0J218750D01*
G01*
G37*
%TD*%
%TO.C,R50*%
G36*
G01*
X175821316Y-108316292D02*
X176183709Y-108678684D01*
G75*
G02*
X176183709Y-108988044I-154680J-154680D01*
G01*
X175874350Y-109297403D01*
G75*
G02*
X175564990Y-109297403I-154680J154680D01*
G01*
X175202597Y-108935010D01*
G75*
G02*
X175202597Y-108625650I154680J154680D01*
G01*
X175511956Y-108316291D01*
G75*
G02*
X175821316Y-108316291I154680J-154680D01*
G01*
G37*
G36*
G01*
X176935010Y-107202598D02*
X177297403Y-107564990D01*
G75*
G02*
X177297403Y-107874350I-154680J-154680D01*
G01*
X176988044Y-108183709D01*
G75*
G02*
X176678684Y-108183709I-154680J154680D01*
G01*
X176316291Y-107821316D01*
G75*
G02*
X176316291Y-107511956I154680J154680D01*
G01*
X176625650Y-107202597D01*
G75*
G02*
X176935010Y-107202597I154680J-154680D01*
G01*
G37*
%TD*%
%TO.C,R49*%
G36*
G01*
X178071316Y-108566292D02*
X178433709Y-108928684D01*
G75*
G02*
X178433709Y-109238044I-154680J-154680D01*
G01*
X178124350Y-109547403D01*
G75*
G02*
X177814990Y-109547403I-154680J154680D01*
G01*
X177452597Y-109185010D01*
G75*
G02*
X177452597Y-108875650I154680J154680D01*
G01*
X177761956Y-108566291D01*
G75*
G02*
X178071316Y-108566291I154680J-154680D01*
G01*
G37*
G36*
G01*
X179185010Y-107452598D02*
X179547403Y-107814990D01*
G75*
G02*
X179547403Y-108124350I-154680J-154680D01*
G01*
X179238044Y-108433709D01*
G75*
G02*
X178928684Y-108433709I-154680J154680D01*
G01*
X178566291Y-108071316D01*
G75*
G02*
X178566291Y-107761956I154680J154680D01*
G01*
X178875650Y-107452597D01*
G75*
G02*
X179185010Y-107452597I154680J-154680D01*
G01*
G37*
%TD*%
%TO.C,R48*%
G36*
G01*
X146743750Y-105350000D02*
X147256250Y-105350000D01*
G75*
G02*
X147475000Y-105568750I0J-218750D01*
G01*
X147475000Y-106006250D01*
G75*
G02*
X147256250Y-106225000I-218750J0D01*
G01*
X146743750Y-106225000D01*
G75*
G02*
X146525000Y-106006250I0J218750D01*
G01*
X146525000Y-105568750D01*
G75*
G02*
X146743750Y-105350000I218750J0D01*
G01*
G37*
G36*
G01*
X146743750Y-103775000D02*
X147256250Y-103775000D01*
G75*
G02*
X147475000Y-103993750I0J-218750D01*
G01*
X147475000Y-104431250D01*
G75*
G02*
X147256250Y-104650000I-218750J0D01*
G01*
X146743750Y-104650000D01*
G75*
G02*
X146525000Y-104431250I0J218750D01*
G01*
X146525000Y-103993750D01*
G75*
G02*
X146743750Y-103775000I218750J0D01*
G01*
G37*
%TD*%
%TO.C,R47*%
G36*
G01*
X139350000Y-95506250D02*
X139350000Y-94993750D01*
G75*
G02*
X139568750Y-94775000I218750J0D01*
G01*
X140006250Y-94775000D01*
G75*
G02*
X140225000Y-94993750I0J-218750D01*
G01*
X140225000Y-95506250D01*
G75*
G02*
X140006250Y-95725000I-218750J0D01*
G01*
X139568750Y-95725000D01*
G75*
G02*
X139350000Y-95506250I0J218750D01*
G01*
G37*
G36*
G01*
X137775000Y-95506250D02*
X137775000Y-94993750D01*
G75*
G02*
X137993750Y-94775000I218750J0D01*
G01*
X138431250Y-94775000D01*
G75*
G02*
X138650000Y-94993750I0J-218750D01*
G01*
X138650000Y-95506250D01*
G75*
G02*
X138431250Y-95725000I-218750J0D01*
G01*
X137993750Y-95725000D01*
G75*
G02*
X137775000Y-95506250I0J218750D01*
G01*
G37*
%TD*%
%TO.C,R34*%
G36*
G01*
X142150000Y-124243750D02*
X142150000Y-124756250D01*
G75*
G02*
X141931250Y-124975000I-218750J0D01*
G01*
X141493750Y-124975000D01*
G75*
G02*
X141275000Y-124756250I0J218750D01*
G01*
X141275000Y-124243750D01*
G75*
G02*
X141493750Y-124025000I218750J0D01*
G01*
X141931250Y-124025000D01*
G75*
G02*
X142150000Y-124243750I0J-218750D01*
G01*
G37*
G36*
G01*
X143725000Y-124243750D02*
X143725000Y-124756250D01*
G75*
G02*
X143506250Y-124975000I-218750J0D01*
G01*
X143068750Y-124975000D01*
G75*
G02*
X142850000Y-124756250I0J218750D01*
G01*
X142850000Y-124243750D01*
G75*
G02*
X143068750Y-124025000I218750J0D01*
G01*
X143506250Y-124025000D01*
G75*
G02*
X143725000Y-124243750I0J-218750D01*
G01*
G37*
%TD*%
%TO.C,R6*%
G36*
G01*
X137243750Y-122350000D02*
X137756250Y-122350000D01*
G75*
G02*
X137975000Y-122568750I0J-218750D01*
G01*
X137975000Y-123006250D01*
G75*
G02*
X137756250Y-123225000I-218750J0D01*
G01*
X137243750Y-123225000D01*
G75*
G02*
X137025000Y-123006250I0J218750D01*
G01*
X137025000Y-122568750D01*
G75*
G02*
X137243750Y-122350000I218750J0D01*
G01*
G37*
G36*
G01*
X137243750Y-120775000D02*
X137756250Y-120775000D01*
G75*
G02*
X137975000Y-120993750I0J-218750D01*
G01*
X137975000Y-121431250D01*
G75*
G02*
X137756250Y-121650000I-218750J0D01*
G01*
X137243750Y-121650000D01*
G75*
G02*
X137025000Y-121431250I0J218750D01*
G01*
X137025000Y-120993750D01*
G75*
G02*
X137243750Y-120775000I218750J0D01*
G01*
G37*
%TD*%
%TO.C,R5*%
G36*
G01*
X139450000Y-97456250D02*
X139450000Y-96543750D01*
G75*
G02*
X139693750Y-96300000I243750J0D01*
G01*
X140181250Y-96300000D01*
G75*
G02*
X140425000Y-96543750I0J-243750D01*
G01*
X140425000Y-97456250D01*
G75*
G02*
X140181250Y-97700000I-243750J0D01*
G01*
X139693750Y-97700000D01*
G75*
G02*
X139450000Y-97456250I0J243750D01*
G01*
G37*
G36*
G01*
X137575000Y-97456250D02*
X137575000Y-96543750D01*
G75*
G02*
X137818750Y-96300000I243750J0D01*
G01*
X138306250Y-96300000D01*
G75*
G02*
X138550000Y-96543750I0J-243750D01*
G01*
X138550000Y-97456250D01*
G75*
G02*
X138306250Y-97700000I-243750J0D01*
G01*
X137818750Y-97700000D01*
G75*
G02*
X137575000Y-97456250I0J243750D01*
G01*
G37*
%TD*%
%TO.C,R4*%
G36*
G01*
X142543750Y-122450000D02*
X143456250Y-122450000D01*
G75*
G02*
X143700000Y-122693750I0J-243750D01*
G01*
X143700000Y-123181250D01*
G75*
G02*
X143456250Y-123425000I-243750J0D01*
G01*
X142543750Y-123425000D01*
G75*
G02*
X142300000Y-123181250I0J243750D01*
G01*
X142300000Y-122693750D01*
G75*
G02*
X142543750Y-122450000I243750J0D01*
G01*
G37*
G36*
G01*
X142543750Y-120575000D02*
X143456250Y-120575000D01*
G75*
G02*
X143700000Y-120818750I0J-243750D01*
G01*
X143700000Y-121306250D01*
G75*
G02*
X143456250Y-121550000I-243750J0D01*
G01*
X142543750Y-121550000D01*
G75*
G02*
X142300000Y-121306250I0J243750D01*
G01*
X142300000Y-120818750D01*
G75*
G02*
X142543750Y-120575000I243750J0D01*
G01*
G37*
%TD*%
D13*
%TO.C,Q10*%
X142500000Y-96750000D03*
X143450000Y-98750000D03*
X141550000Y-98750000D03*
%TD*%
D12*
%TO.C,Q9*%
X141000000Y-122000000D03*
X139000000Y-122950000D03*
X139000000Y-121050000D03*
%TD*%
D14*
%TO.C,D6*%
X144950000Y-98000000D03*
X147050000Y-98000000D03*
%TD*%
%TO.C,D5*%
X144700000Y-120750000D03*
X146800000Y-120750000D03*
%TD*%
%TO.C,C31*%
G36*
G01*
X171566292Y-112678684D02*
X171928684Y-112316291D01*
G75*
G02*
X172238044Y-112316291I154680J-154680D01*
G01*
X172547403Y-112625650D01*
G75*
G02*
X172547403Y-112935010I-154680J-154680D01*
G01*
X172185010Y-113297403D01*
G75*
G02*
X171875650Y-113297403I-154680J154680D01*
G01*
X171566291Y-112988044D01*
G75*
G02*
X171566291Y-112678684I154680J154680D01*
G01*
G37*
G36*
G01*
X170452598Y-111564990D02*
X170814990Y-111202597D01*
G75*
G02*
X171124350Y-111202597I154680J-154680D01*
G01*
X171433709Y-111511956D01*
G75*
G02*
X171433709Y-111821316I-154680J-154680D01*
G01*
X171071316Y-112183709D01*
G75*
G02*
X170761956Y-112183709I-154680J154680D01*
G01*
X170452597Y-111874350D01*
G75*
G02*
X170452597Y-111564990I154680J154680D01*
G01*
G37*
%TD*%
%TO.C,C30*%
G36*
G01*
X171071316Y-107816292D02*
X171433709Y-108178684D01*
G75*
G02*
X171433709Y-108488044I-154680J-154680D01*
G01*
X171124350Y-108797403D01*
G75*
G02*
X170814990Y-108797403I-154680J154680D01*
G01*
X170452597Y-108435010D01*
G75*
G02*
X170452597Y-108125650I154680J154680D01*
G01*
X170761956Y-107816291D01*
G75*
G02*
X171071316Y-107816291I154680J-154680D01*
G01*
G37*
G36*
G01*
X172185010Y-106702598D02*
X172547403Y-107064990D01*
G75*
G02*
X172547403Y-107374350I-154680J-154680D01*
G01*
X172238044Y-107683709D01*
G75*
G02*
X171928684Y-107683709I-154680J154680D01*
G01*
X171566291Y-107321316D01*
G75*
G02*
X171566291Y-107011956I154680J154680D01*
G01*
X171875650Y-106702597D01*
G75*
G02*
X172185010Y-106702597I154680J-154680D01*
G01*
G37*
%TD*%
%TO.C,R51*%
G36*
G01*
X135650000Y-113243750D02*
X135650000Y-113756250D01*
G75*
G02*
X135431250Y-113975000I-218750J0D01*
G01*
X134993750Y-113975000D01*
G75*
G02*
X134775000Y-113756250I0J218750D01*
G01*
X134775000Y-113243750D01*
G75*
G02*
X134993750Y-113025000I218750J0D01*
G01*
X135431250Y-113025000D01*
G75*
G02*
X135650000Y-113243750I0J-218750D01*
G01*
G37*
G36*
G01*
X137225000Y-113243750D02*
X137225000Y-113756250D01*
G75*
G02*
X137006250Y-113975000I-218750J0D01*
G01*
X136568750Y-113975000D01*
G75*
G02*
X136350000Y-113756250I0J218750D01*
G01*
X136350000Y-113243750D01*
G75*
G02*
X136568750Y-113025000I218750J0D01*
G01*
X137006250Y-113025000D01*
G75*
G02*
X137225000Y-113243750I0J-218750D01*
G01*
G37*
%TD*%
%TO.C,R40*%
G36*
G01*
X154375000Y-131525000D02*
X155625000Y-131525000D01*
G75*
G02*
X155875000Y-131775000I0J-250000D01*
G01*
X155875000Y-132525000D01*
G75*
G02*
X155625000Y-132775000I-250000J0D01*
G01*
X154375000Y-132775000D01*
G75*
G02*
X154125000Y-132525000I0J250000D01*
G01*
X154125000Y-131775000D01*
G75*
G02*
X154375000Y-131525000I250000J0D01*
G01*
G37*
G36*
G01*
X154375000Y-128725000D02*
X155625000Y-128725000D01*
G75*
G02*
X155875000Y-128975000I0J-250000D01*
G01*
X155875000Y-129725000D01*
G75*
G02*
X155625000Y-129975000I-250000J0D01*
G01*
X154375000Y-129975000D01*
G75*
G02*
X154125000Y-129725000I0J250000D01*
G01*
X154125000Y-128975000D01*
G75*
G02*
X154375000Y-128725000I250000J0D01*
G01*
G37*
%TD*%
%TO.C,R39*%
G36*
G01*
X166375000Y-131525000D02*
X167625000Y-131525000D01*
G75*
G02*
X167875000Y-131775000I0J-250000D01*
G01*
X167875000Y-132525000D01*
G75*
G02*
X167625000Y-132775000I-250000J0D01*
G01*
X166375000Y-132775000D01*
G75*
G02*
X166125000Y-132525000I0J250000D01*
G01*
X166125000Y-131775000D01*
G75*
G02*
X166375000Y-131525000I250000J0D01*
G01*
G37*
G36*
G01*
X166375000Y-128725000D02*
X167625000Y-128725000D01*
G75*
G02*
X167875000Y-128975000I0J-250000D01*
G01*
X167875000Y-129725000D01*
G75*
G02*
X167625000Y-129975000I-250000J0D01*
G01*
X166375000Y-129975000D01*
G75*
G02*
X166125000Y-129725000I0J250000D01*
G01*
X166125000Y-128975000D01*
G75*
G02*
X166375000Y-128725000I250000J0D01*
G01*
G37*
%TD*%
%TO.C,R38*%
G36*
G01*
X155625000Y-98225000D02*
X154375000Y-98225000D01*
G75*
G02*
X154125000Y-97975000I0J250000D01*
G01*
X154125000Y-97225000D01*
G75*
G02*
X154375000Y-96975000I250000J0D01*
G01*
X155625000Y-96975000D01*
G75*
G02*
X155875000Y-97225000I0J-250000D01*
G01*
X155875000Y-97975000D01*
G75*
G02*
X155625000Y-98225000I-250000J0D01*
G01*
G37*
G36*
G01*
X155625000Y-101025000D02*
X154375000Y-101025000D01*
G75*
G02*
X154125000Y-100775000I0J250000D01*
G01*
X154125000Y-100025000D01*
G75*
G02*
X154375000Y-99775000I250000J0D01*
G01*
X155625000Y-99775000D01*
G75*
G02*
X155875000Y-100025000I0J-250000D01*
G01*
X155875000Y-100775000D01*
G75*
G02*
X155625000Y-101025000I-250000J0D01*
G01*
G37*
%TD*%
%TO.C,R37*%
G36*
G01*
X167625000Y-98225000D02*
X166375000Y-98225000D01*
G75*
G02*
X166125000Y-97975000I0J250000D01*
G01*
X166125000Y-97225000D01*
G75*
G02*
X166375000Y-96975000I250000J0D01*
G01*
X167625000Y-96975000D01*
G75*
G02*
X167875000Y-97225000I0J-250000D01*
G01*
X167875000Y-97975000D01*
G75*
G02*
X167625000Y-98225000I-250000J0D01*
G01*
G37*
G36*
G01*
X167625000Y-101025000D02*
X166375000Y-101025000D01*
G75*
G02*
X166125000Y-100775000I0J250000D01*
G01*
X166125000Y-100025000D01*
G75*
G02*
X166375000Y-99775000I250000J0D01*
G01*
X167625000Y-99775000D01*
G75*
G02*
X167875000Y-100025000I0J-250000D01*
G01*
X167875000Y-100775000D01*
G75*
G02*
X167625000Y-101025000I-250000J0D01*
G01*
G37*
%TD*%
%TO.C,R13*%
G36*
G01*
X151625000Y-98225000D02*
X150375000Y-98225000D01*
G75*
G02*
X150125000Y-97975000I0J250000D01*
G01*
X150125000Y-97225000D01*
G75*
G02*
X150375000Y-96975000I250000J0D01*
G01*
X151625000Y-96975000D01*
G75*
G02*
X151875000Y-97225000I0J-250000D01*
G01*
X151875000Y-97975000D01*
G75*
G02*
X151625000Y-98225000I-250000J0D01*
G01*
G37*
G36*
G01*
X151625000Y-101025000D02*
X150375000Y-101025000D01*
G75*
G02*
X150125000Y-100775000I0J250000D01*
G01*
X150125000Y-100025000D01*
G75*
G02*
X150375000Y-99775000I250000J0D01*
G01*
X151625000Y-99775000D01*
G75*
G02*
X151875000Y-100025000I0J-250000D01*
G01*
X151875000Y-100775000D01*
G75*
G02*
X151625000Y-101025000I-250000J0D01*
G01*
G37*
%TD*%
%TO.C,R12*%
G36*
G01*
X163625000Y-98225000D02*
X162375000Y-98225000D01*
G75*
G02*
X162125000Y-97975000I0J250000D01*
G01*
X162125000Y-97225000D01*
G75*
G02*
X162375000Y-96975000I250000J0D01*
G01*
X163625000Y-96975000D01*
G75*
G02*
X163875000Y-97225000I0J-250000D01*
G01*
X163875000Y-97975000D01*
G75*
G02*
X163625000Y-98225000I-250000J0D01*
G01*
G37*
G36*
G01*
X163625000Y-101025000D02*
X162375000Y-101025000D01*
G75*
G02*
X162125000Y-100775000I0J250000D01*
G01*
X162125000Y-100025000D01*
G75*
G02*
X162375000Y-99775000I250000J0D01*
G01*
X163625000Y-99775000D01*
G75*
G02*
X163875000Y-100025000I0J-250000D01*
G01*
X163875000Y-100775000D01*
G75*
G02*
X163625000Y-101025000I-250000J0D01*
G01*
G37*
%TD*%
%TO.C,R8*%
G36*
G01*
X150375000Y-131525000D02*
X151625000Y-131525000D01*
G75*
G02*
X151875000Y-131775000I0J-250000D01*
G01*
X151875000Y-132525000D01*
G75*
G02*
X151625000Y-132775000I-250000J0D01*
G01*
X150375000Y-132775000D01*
G75*
G02*
X150125000Y-132525000I0J250000D01*
G01*
X150125000Y-131775000D01*
G75*
G02*
X150375000Y-131525000I250000J0D01*
G01*
G37*
G36*
G01*
X150375000Y-128725000D02*
X151625000Y-128725000D01*
G75*
G02*
X151875000Y-128975000I0J-250000D01*
G01*
X151875000Y-129725000D01*
G75*
G02*
X151625000Y-129975000I-250000J0D01*
G01*
X150375000Y-129975000D01*
G75*
G02*
X150125000Y-129725000I0J250000D01*
G01*
X150125000Y-128975000D01*
G75*
G02*
X150375000Y-128725000I250000J0D01*
G01*
G37*
%TD*%
%TO.C,R7*%
G36*
G01*
X162375000Y-131525000D02*
X163625000Y-131525000D01*
G75*
G02*
X163875000Y-131775000I0J-250000D01*
G01*
X163875000Y-132525000D01*
G75*
G02*
X163625000Y-132775000I-250000J0D01*
G01*
X162375000Y-132775000D01*
G75*
G02*
X162125000Y-132525000I0J250000D01*
G01*
X162125000Y-131775000D01*
G75*
G02*
X162375000Y-131525000I250000J0D01*
G01*
G37*
G36*
G01*
X162375000Y-128725000D02*
X163625000Y-128725000D01*
G75*
G02*
X163875000Y-128975000I0J-250000D01*
G01*
X163875000Y-129725000D01*
G75*
G02*
X163625000Y-129975000I-250000J0D01*
G01*
X162375000Y-129975000D01*
G75*
G02*
X162125000Y-129725000I0J250000D01*
G01*
X162125000Y-128975000D01*
G75*
G02*
X162375000Y-128725000I250000J0D01*
G01*
G37*
%TD*%
%TO.C,R20*%
G36*
G01*
X147256250Y-107900000D02*
X146743750Y-107900000D01*
G75*
G02*
X146525000Y-107681250I0J218750D01*
G01*
X146525000Y-107243750D01*
G75*
G02*
X146743750Y-107025000I218750J0D01*
G01*
X147256250Y-107025000D01*
G75*
G02*
X147475000Y-107243750I0J-218750D01*
G01*
X147475000Y-107681250D01*
G75*
G02*
X147256250Y-107900000I-218750J0D01*
G01*
G37*
G36*
G01*
X147256250Y-109475000D02*
X146743750Y-109475000D01*
G75*
G02*
X146525000Y-109256250I0J218750D01*
G01*
X146525000Y-108818750D01*
G75*
G02*
X146743750Y-108600000I218750J0D01*
G01*
X147256250Y-108600000D01*
G75*
G02*
X147475000Y-108818750I0J-218750D01*
G01*
X147475000Y-109256250D01*
G75*
G02*
X147256250Y-109475000I-218750J0D01*
G01*
G37*
%TD*%
%TO.C,R19*%
G36*
G01*
X174428684Y-107683708D02*
X174066291Y-107321316D01*
G75*
G02*
X174066291Y-107011956I154680J154680D01*
G01*
X174375650Y-106702597D01*
G75*
G02*
X174685010Y-106702597I154680J-154680D01*
G01*
X175047403Y-107064990D01*
G75*
G02*
X175047403Y-107374350I-154680J-154680D01*
G01*
X174738044Y-107683709D01*
G75*
G02*
X174428684Y-107683709I-154680J154680D01*
G01*
G37*
G36*
G01*
X173314990Y-108797402D02*
X172952597Y-108435010D01*
G75*
G02*
X172952597Y-108125650I154680J154680D01*
G01*
X173261956Y-107816291D01*
G75*
G02*
X173571316Y-107816291I154680J-154680D01*
G01*
X173933709Y-108178684D01*
G75*
G02*
X173933709Y-108488044I-154680J-154680D01*
G01*
X173624350Y-108797403D01*
G75*
G02*
X173314990Y-108797403I-154680J154680D01*
G01*
G37*
%TD*%
%TO.C,C2*%
G36*
G01*
X138850000Y-106256250D02*
X138850000Y-105743750D01*
G75*
G02*
X139068750Y-105525000I218750J0D01*
G01*
X139506250Y-105525000D01*
G75*
G02*
X139725000Y-105743750I0J-218750D01*
G01*
X139725000Y-106256250D01*
G75*
G02*
X139506250Y-106475000I-218750J0D01*
G01*
X139068750Y-106475000D01*
G75*
G02*
X138850000Y-106256250I0J218750D01*
G01*
G37*
G36*
G01*
X137275000Y-106256250D02*
X137275000Y-105743750D01*
G75*
G02*
X137493750Y-105525000I218750J0D01*
G01*
X137931250Y-105525000D01*
G75*
G02*
X138150000Y-105743750I0J-218750D01*
G01*
X138150000Y-106256250D01*
G75*
G02*
X137931250Y-106475000I-218750J0D01*
G01*
X137493750Y-106475000D01*
G75*
G02*
X137275000Y-106256250I0J218750D01*
G01*
G37*
%TD*%
%TO.C,R36*%
G36*
G01*
X130506250Y-112150000D02*
X129993750Y-112150000D01*
G75*
G02*
X129775000Y-111931250I0J218750D01*
G01*
X129775000Y-111493750D01*
G75*
G02*
X129993750Y-111275000I218750J0D01*
G01*
X130506250Y-111275000D01*
G75*
G02*
X130725000Y-111493750I0J-218750D01*
G01*
X130725000Y-111931250D01*
G75*
G02*
X130506250Y-112150000I-218750J0D01*
G01*
G37*
G36*
G01*
X130506250Y-113725000D02*
X129993750Y-113725000D01*
G75*
G02*
X129775000Y-113506250I0J218750D01*
G01*
X129775000Y-113068750D01*
G75*
G02*
X129993750Y-112850000I218750J0D01*
G01*
X130506250Y-112850000D01*
G75*
G02*
X130725000Y-113068750I0J-218750D01*
G01*
X130725000Y-113506250D01*
G75*
G02*
X130506250Y-113725000I-218750J0D01*
G01*
G37*
%TD*%
D13*
%TO.C,U3*%
X127250000Y-104500000D03*
X126300000Y-102500000D03*
X128200000Y-102500000D03*
%TD*%
%TO.C,U4*%
G36*
G01*
X124995000Y-112750000D02*
X124695000Y-112750000D01*
G75*
G02*
X124545000Y-112600000I0J150000D01*
G01*
X124545000Y-110950000D01*
G75*
G02*
X124695000Y-110800000I150000J0D01*
G01*
X124995000Y-110800000D01*
G75*
G02*
X125145000Y-110950000I0J-150000D01*
G01*
X125145000Y-112600000D01*
G75*
G02*
X124995000Y-112750000I-150000J0D01*
G01*
G37*
G36*
G01*
X126265000Y-112750000D02*
X125965000Y-112750000D01*
G75*
G02*
X125815000Y-112600000I0J150000D01*
G01*
X125815000Y-110950000D01*
G75*
G02*
X125965000Y-110800000I150000J0D01*
G01*
X126265000Y-110800000D01*
G75*
G02*
X126415000Y-110950000I0J-150000D01*
G01*
X126415000Y-112600000D01*
G75*
G02*
X126265000Y-112750000I-150000J0D01*
G01*
G37*
G36*
G01*
X127535000Y-112750000D02*
X127235000Y-112750000D01*
G75*
G02*
X127085000Y-112600000I0J150000D01*
G01*
X127085000Y-110950000D01*
G75*
G02*
X127235000Y-110800000I150000J0D01*
G01*
X127535000Y-110800000D01*
G75*
G02*
X127685000Y-110950000I0J-150000D01*
G01*
X127685000Y-112600000D01*
G75*
G02*
X127535000Y-112750000I-150000J0D01*
G01*
G37*
G36*
G01*
X128805000Y-112750000D02*
X128505000Y-112750000D01*
G75*
G02*
X128355000Y-112600000I0J150000D01*
G01*
X128355000Y-110950000D01*
G75*
G02*
X128505000Y-110800000I150000J0D01*
G01*
X128805000Y-110800000D01*
G75*
G02*
X128955000Y-110950000I0J-150000D01*
G01*
X128955000Y-112600000D01*
G75*
G02*
X128805000Y-112750000I-150000J0D01*
G01*
G37*
G36*
G01*
X128805000Y-117700000D02*
X128505000Y-117700000D01*
G75*
G02*
X128355000Y-117550000I0J150000D01*
G01*
X128355000Y-115900000D01*
G75*
G02*
X128505000Y-115750000I150000J0D01*
G01*
X128805000Y-115750000D01*
G75*
G02*
X128955000Y-115900000I0J-150000D01*
G01*
X128955000Y-117550000D01*
G75*
G02*
X128805000Y-117700000I-150000J0D01*
G01*
G37*
G36*
G01*
X127535000Y-117700000D02*
X127235000Y-117700000D01*
G75*
G02*
X127085000Y-117550000I0J150000D01*
G01*
X127085000Y-115900000D01*
G75*
G02*
X127235000Y-115750000I150000J0D01*
G01*
X127535000Y-115750000D01*
G75*
G02*
X127685000Y-115900000I0J-150000D01*
G01*
X127685000Y-117550000D01*
G75*
G02*
X127535000Y-117700000I-150000J0D01*
G01*
G37*
G36*
G01*
X126265000Y-117700000D02*
X125965000Y-117700000D01*
G75*
G02*
X125815000Y-117550000I0J150000D01*
G01*
X125815000Y-115900000D01*
G75*
G02*
X125965000Y-115750000I150000J0D01*
G01*
X126265000Y-115750000D01*
G75*
G02*
X126415000Y-115900000I0J-150000D01*
G01*
X126415000Y-117550000D01*
G75*
G02*
X126265000Y-117700000I-150000J0D01*
G01*
G37*
G36*
G01*
X124995000Y-117700000D02*
X124695000Y-117700000D01*
G75*
G02*
X124545000Y-117550000I0J150000D01*
G01*
X124545000Y-115900000D01*
G75*
G02*
X124695000Y-115750000I150000J0D01*
G01*
X124995000Y-115750000D01*
G75*
G02*
X125145000Y-115900000I0J-150000D01*
G01*
X125145000Y-117550000D01*
G75*
G02*
X124995000Y-117700000I-150000J0D01*
G01*
G37*
%TD*%
%TO.C,R10*%
G36*
G01*
X130506250Y-115400000D02*
X129993750Y-115400000D01*
G75*
G02*
X129775000Y-115181250I0J218750D01*
G01*
X129775000Y-114743750D01*
G75*
G02*
X129993750Y-114525000I218750J0D01*
G01*
X130506250Y-114525000D01*
G75*
G02*
X130725000Y-114743750I0J-218750D01*
G01*
X130725000Y-115181250D01*
G75*
G02*
X130506250Y-115400000I-218750J0D01*
G01*
G37*
G36*
G01*
X130506250Y-116975000D02*
X129993750Y-116975000D01*
G75*
G02*
X129775000Y-116756250I0J218750D01*
G01*
X129775000Y-116318750D01*
G75*
G02*
X129993750Y-116100000I218750J0D01*
G01*
X130506250Y-116100000D01*
G75*
G02*
X130725000Y-116318750I0J-218750D01*
G01*
X130725000Y-116756250D01*
G75*
G02*
X130506250Y-116975000I-218750J0D01*
G01*
G37*
%TD*%
%TO.C,C1*%
G36*
G01*
X142600000Y-106256250D02*
X142600000Y-105743750D01*
G75*
G02*
X142818750Y-105525000I218750J0D01*
G01*
X143256250Y-105525000D01*
G75*
G02*
X143475000Y-105743750I0J-218750D01*
G01*
X143475000Y-106256250D01*
G75*
G02*
X143256250Y-106475000I-218750J0D01*
G01*
X142818750Y-106475000D01*
G75*
G02*
X142600000Y-106256250I0J218750D01*
G01*
G37*
G36*
G01*
X141025000Y-106256250D02*
X141025000Y-105743750D01*
G75*
G02*
X141243750Y-105525000I218750J0D01*
G01*
X141681250Y-105525000D01*
G75*
G02*
X141900000Y-105743750I0J-218750D01*
G01*
X141900000Y-106256250D01*
G75*
G02*
X141681250Y-106475000I-218750J0D01*
G01*
X141243750Y-106475000D01*
G75*
G02*
X141025000Y-106256250I0J218750D01*
G01*
G37*
%TD*%
%TO.C,Q8*%
X142500000Y-100250000D03*
X143450000Y-102250000D03*
X141550000Y-102250000D03*
%TD*%
%TO.C,Q3*%
X146000000Y-100250000D03*
X146950000Y-102250000D03*
X145050000Y-102250000D03*
%TD*%
D12*
%TO.C,Q2*%
X146750000Y-123500000D03*
X144750000Y-124450000D03*
X144750000Y-122550000D03*
%TD*%
%TO.C,Q1*%
X120750000Y-103500000D03*
X122750000Y-102550000D03*
X122750000Y-104450000D03*
%TD*%
%TO.C,U2*%
G36*
G01*
X134050000Y-115245000D02*
X134050000Y-114945000D01*
G75*
G02*
X134200000Y-114795000I150000J0D01*
G01*
X135850000Y-114795000D01*
G75*
G02*
X136000000Y-114945000I0J-150000D01*
G01*
X136000000Y-115245000D01*
G75*
G02*
X135850000Y-115395000I-150000J0D01*
G01*
X134200000Y-115395000D01*
G75*
G02*
X134050000Y-115245000I0J150000D01*
G01*
G37*
G36*
G01*
X134050000Y-116515000D02*
X134050000Y-116215000D01*
G75*
G02*
X134200000Y-116065000I150000J0D01*
G01*
X135850000Y-116065000D01*
G75*
G02*
X136000000Y-116215000I0J-150000D01*
G01*
X136000000Y-116515000D01*
G75*
G02*
X135850000Y-116665000I-150000J0D01*
G01*
X134200000Y-116665000D01*
G75*
G02*
X134050000Y-116515000I0J150000D01*
G01*
G37*
G36*
G01*
X134050000Y-117785000D02*
X134050000Y-117485000D01*
G75*
G02*
X134200000Y-117335000I150000J0D01*
G01*
X135850000Y-117335000D01*
G75*
G02*
X136000000Y-117485000I0J-150000D01*
G01*
X136000000Y-117785000D01*
G75*
G02*
X135850000Y-117935000I-150000J0D01*
G01*
X134200000Y-117935000D01*
G75*
G02*
X134050000Y-117785000I0J150000D01*
G01*
G37*
G36*
G01*
X134050000Y-119055000D02*
X134050000Y-118755000D01*
G75*
G02*
X134200000Y-118605000I150000J0D01*
G01*
X135850000Y-118605000D01*
G75*
G02*
X136000000Y-118755000I0J-150000D01*
G01*
X136000000Y-119055000D01*
G75*
G02*
X135850000Y-119205000I-150000J0D01*
G01*
X134200000Y-119205000D01*
G75*
G02*
X134050000Y-119055000I0J150000D01*
G01*
G37*
G36*
G01*
X139000000Y-119055000D02*
X139000000Y-118755000D01*
G75*
G02*
X139150000Y-118605000I150000J0D01*
G01*
X140800000Y-118605000D01*
G75*
G02*
X140950000Y-118755000I0J-150000D01*
G01*
X140950000Y-119055000D01*
G75*
G02*
X140800000Y-119205000I-150000J0D01*
G01*
X139150000Y-119205000D01*
G75*
G02*
X139000000Y-119055000I0J150000D01*
G01*
G37*
G36*
G01*
X139000000Y-117785000D02*
X139000000Y-117485000D01*
G75*
G02*
X139150000Y-117335000I150000J0D01*
G01*
X140800000Y-117335000D01*
G75*
G02*
X140950000Y-117485000I0J-150000D01*
G01*
X140950000Y-117785000D01*
G75*
G02*
X140800000Y-117935000I-150000J0D01*
G01*
X139150000Y-117935000D01*
G75*
G02*
X139000000Y-117785000I0J150000D01*
G01*
G37*
G36*
G01*
X139000000Y-116515000D02*
X139000000Y-116215000D01*
G75*
G02*
X139150000Y-116065000I150000J0D01*
G01*
X140800000Y-116065000D01*
G75*
G02*
X140950000Y-116215000I0J-150000D01*
G01*
X140950000Y-116515000D01*
G75*
G02*
X140800000Y-116665000I-150000J0D01*
G01*
X139150000Y-116665000D01*
G75*
G02*
X139000000Y-116515000I0J150000D01*
G01*
G37*
G36*
G01*
X139000000Y-115245000D02*
X139000000Y-114945000D01*
G75*
G02*
X139150000Y-114795000I150000J0D01*
G01*
X140800000Y-114795000D01*
G75*
G02*
X140950000Y-114945000I0J-150000D01*
G01*
X140950000Y-115245000D01*
G75*
G02*
X140800000Y-115395000I-150000J0D01*
G01*
X139150000Y-115395000D01*
G75*
G02*
X139000000Y-115245000I0J150000D01*
G01*
G37*
%TD*%
%TO.C,R3*%
G36*
G01*
X129493750Y-102525000D02*
X130006250Y-102525000D01*
G75*
G02*
X130225000Y-102743750I0J-218750D01*
G01*
X130225000Y-103181250D01*
G75*
G02*
X130006250Y-103400000I-218750J0D01*
G01*
X129493750Y-103400000D01*
G75*
G02*
X129275000Y-103181250I0J218750D01*
G01*
X129275000Y-102743750D01*
G75*
G02*
X129493750Y-102525000I218750J0D01*
G01*
G37*
G36*
G01*
X129493750Y-104100000D02*
X130006250Y-104100000D01*
G75*
G02*
X130225000Y-104318750I0J-218750D01*
G01*
X130225000Y-104756250D01*
G75*
G02*
X130006250Y-104975000I-218750J0D01*
G01*
X129493750Y-104975000D01*
G75*
G02*
X129275000Y-104756250I0J218750D01*
G01*
X129275000Y-104318750D01*
G75*
G02*
X129493750Y-104100000I218750J0D01*
G01*
G37*
%TD*%
%TO.C,U1*%
G36*
G01*
X137300000Y-107745000D02*
X137300000Y-107445000D01*
G75*
G02*
X137450000Y-107295000I150000J0D01*
G01*
X139100000Y-107295000D01*
G75*
G02*
X139250000Y-107445000I0J-150000D01*
G01*
X139250000Y-107745000D01*
G75*
G02*
X139100000Y-107895000I-150000J0D01*
G01*
X137450000Y-107895000D01*
G75*
G02*
X137300000Y-107745000I0J150000D01*
G01*
G37*
G36*
G01*
X137300000Y-109015000D02*
X137300000Y-108715000D01*
G75*
G02*
X137450000Y-108565000I150000J0D01*
G01*
X139100000Y-108565000D01*
G75*
G02*
X139250000Y-108715000I0J-150000D01*
G01*
X139250000Y-109015000D01*
G75*
G02*
X139100000Y-109165000I-150000J0D01*
G01*
X137450000Y-109165000D01*
G75*
G02*
X137300000Y-109015000I0J150000D01*
G01*
G37*
G36*
G01*
X137300000Y-110285000D02*
X137300000Y-109985000D01*
G75*
G02*
X137450000Y-109835000I150000J0D01*
G01*
X139100000Y-109835000D01*
G75*
G02*
X139250000Y-109985000I0J-150000D01*
G01*
X139250000Y-110285000D01*
G75*
G02*
X139100000Y-110435000I-150000J0D01*
G01*
X137450000Y-110435000D01*
G75*
G02*
X137300000Y-110285000I0J150000D01*
G01*
G37*
G36*
G01*
X137300000Y-111555000D02*
X137300000Y-111255000D01*
G75*
G02*
X137450000Y-111105000I150000J0D01*
G01*
X139100000Y-111105000D01*
G75*
G02*
X139250000Y-111255000I0J-150000D01*
G01*
X139250000Y-111555000D01*
G75*
G02*
X139100000Y-111705000I-150000J0D01*
G01*
X137450000Y-111705000D01*
G75*
G02*
X137300000Y-111555000I0J150000D01*
G01*
G37*
G36*
G01*
X142250000Y-111555000D02*
X142250000Y-111255000D01*
G75*
G02*
X142400000Y-111105000I150000J0D01*
G01*
X144050000Y-111105000D01*
G75*
G02*
X144200000Y-111255000I0J-150000D01*
G01*
X144200000Y-111555000D01*
G75*
G02*
X144050000Y-111705000I-150000J0D01*
G01*
X142400000Y-111705000D01*
G75*
G02*
X142250000Y-111555000I0J150000D01*
G01*
G37*
G36*
G01*
X142250000Y-110285000D02*
X142250000Y-109985000D01*
G75*
G02*
X142400000Y-109835000I150000J0D01*
G01*
X144050000Y-109835000D01*
G75*
G02*
X144200000Y-109985000I0J-150000D01*
G01*
X144200000Y-110285000D01*
G75*
G02*
X144050000Y-110435000I-150000J0D01*
G01*
X142400000Y-110435000D01*
G75*
G02*
X142250000Y-110285000I0J150000D01*
G01*
G37*
G36*
G01*
X142250000Y-109015000D02*
X142250000Y-108715000D01*
G75*
G02*
X142400000Y-108565000I150000J0D01*
G01*
X144050000Y-108565000D01*
G75*
G02*
X144200000Y-108715000I0J-150000D01*
G01*
X144200000Y-109015000D01*
G75*
G02*
X144050000Y-109165000I-150000J0D01*
G01*
X142400000Y-109165000D01*
G75*
G02*
X142250000Y-109015000I0J150000D01*
G01*
G37*
G36*
G01*
X142250000Y-107745000D02*
X142250000Y-107445000D01*
G75*
G02*
X142400000Y-107295000I150000J0D01*
G01*
X144050000Y-107295000D01*
G75*
G02*
X144200000Y-107445000I0J-150000D01*
G01*
X144200000Y-107745000D01*
G75*
G02*
X144050000Y-107895000I-150000J0D01*
G01*
X142400000Y-107895000D01*
G75*
G02*
X142250000Y-107745000I0J150000D01*
G01*
G37*
%TD*%
%TO.C,C7*%
G36*
G01*
X140625000Y-94275000D02*
X139375000Y-94275000D01*
G75*
G02*
X139125000Y-94025000I0J250000D01*
G01*
X139125000Y-93275000D01*
G75*
G02*
X139375000Y-93025000I250000J0D01*
G01*
X140625000Y-93025000D01*
G75*
G02*
X140875000Y-93275000I0J-250000D01*
G01*
X140875000Y-94025000D01*
G75*
G02*
X140625000Y-94275000I-250000J0D01*
G01*
G37*
G36*
G01*
X140625000Y-91475000D02*
X139375000Y-91475000D01*
G75*
G02*
X139125000Y-91225000I0J250000D01*
G01*
X139125000Y-90475000D01*
G75*
G02*
X139375000Y-90225000I250000J0D01*
G01*
X140625000Y-90225000D01*
G75*
G02*
X140875000Y-90475000I0J-250000D01*
G01*
X140875000Y-91225000D01*
G75*
G02*
X140625000Y-91475000I-250000J0D01*
G01*
G37*
%TD*%
%TO.C,C8*%
G36*
G01*
X139375000Y-128525000D02*
X140625000Y-128525000D01*
G75*
G02*
X140875000Y-128775000I0J-250000D01*
G01*
X140875000Y-129525000D01*
G75*
G02*
X140625000Y-129775000I-250000J0D01*
G01*
X139375000Y-129775000D01*
G75*
G02*
X139125000Y-129525000I0J250000D01*
G01*
X139125000Y-128775000D01*
G75*
G02*
X139375000Y-128525000I250000J0D01*
G01*
G37*
G36*
G01*
X139375000Y-125725000D02*
X140625000Y-125725000D01*
G75*
G02*
X140875000Y-125975000I0J-250000D01*
G01*
X140875000Y-126725000D01*
G75*
G02*
X140625000Y-126975000I-250000J0D01*
G01*
X139375000Y-126975000D01*
G75*
G02*
X139125000Y-126725000I0J250000D01*
G01*
X139125000Y-125975000D01*
G75*
G02*
X139375000Y-125725000I250000J0D01*
G01*
G37*
%TD*%
%TO.C,C9*%
G36*
G01*
X142875000Y-91475000D02*
X141625000Y-91475000D01*
G75*
G02*
X141375000Y-91225000I0J250000D01*
G01*
X141375000Y-90475000D01*
G75*
G02*
X141625000Y-90225000I250000J0D01*
G01*
X142875000Y-90225000D01*
G75*
G02*
X143125000Y-90475000I0J-250000D01*
G01*
X143125000Y-91225000D01*
G75*
G02*
X142875000Y-91475000I-250000J0D01*
G01*
G37*
G36*
G01*
X142875000Y-94275000D02*
X141625000Y-94275000D01*
G75*
G02*
X141375000Y-94025000I0J250000D01*
G01*
X141375000Y-93275000D01*
G75*
G02*
X141625000Y-93025000I250000J0D01*
G01*
X142875000Y-93025000D01*
G75*
G02*
X143125000Y-93275000I0J-250000D01*
G01*
X143125000Y-94025000D01*
G75*
G02*
X142875000Y-94275000I-250000J0D01*
G01*
G37*
%TD*%
%TO.C,C10*%
G36*
G01*
X141625000Y-125725000D02*
X142875000Y-125725000D01*
G75*
G02*
X143125000Y-125975000I0J-250000D01*
G01*
X143125000Y-126725000D01*
G75*
G02*
X142875000Y-126975000I-250000J0D01*
G01*
X141625000Y-126975000D01*
G75*
G02*
X141375000Y-126725000I0J250000D01*
G01*
X141375000Y-125975000D01*
G75*
G02*
X141625000Y-125725000I250000J0D01*
G01*
G37*
G36*
G01*
X141625000Y-128525000D02*
X142875000Y-128525000D01*
G75*
G02*
X143125000Y-128775000I0J-250000D01*
G01*
X143125000Y-129525000D01*
G75*
G02*
X142875000Y-129775000I-250000J0D01*
G01*
X141625000Y-129775000D01*
G75*
G02*
X141375000Y-129525000I0J250000D01*
G01*
X141375000Y-128775000D01*
G75*
G02*
X141625000Y-128525000I250000J0D01*
G01*
G37*
%TD*%
%TO.C,C12*%
G36*
G01*
X145125000Y-94275000D02*
X143875000Y-94275000D01*
G75*
G02*
X143625000Y-94025000I0J250000D01*
G01*
X143625000Y-93275000D01*
G75*
G02*
X143875000Y-93025000I250000J0D01*
G01*
X145125000Y-93025000D01*
G75*
G02*
X145375000Y-93275000I0J-250000D01*
G01*
X145375000Y-94025000D01*
G75*
G02*
X145125000Y-94275000I-250000J0D01*
G01*
G37*
G36*
G01*
X145125000Y-91475000D02*
X143875000Y-91475000D01*
G75*
G02*
X143625000Y-91225000I0J250000D01*
G01*
X143625000Y-90475000D01*
G75*
G02*
X143875000Y-90225000I250000J0D01*
G01*
X145125000Y-90225000D01*
G75*
G02*
X145375000Y-90475000I0J-250000D01*
G01*
X145375000Y-91225000D01*
G75*
G02*
X145125000Y-91475000I-250000J0D01*
G01*
G37*
%TD*%
%TO.C,C13*%
G36*
G01*
X143875000Y-125725000D02*
X145125000Y-125725000D01*
G75*
G02*
X145375000Y-125975000I0J-250000D01*
G01*
X145375000Y-126725000D01*
G75*
G02*
X145125000Y-126975000I-250000J0D01*
G01*
X143875000Y-126975000D01*
G75*
G02*
X143625000Y-126725000I0J250000D01*
G01*
X143625000Y-125975000D01*
G75*
G02*
X143875000Y-125725000I250000J0D01*
G01*
G37*
G36*
G01*
X143875000Y-128525000D02*
X145125000Y-128525000D01*
G75*
G02*
X145375000Y-128775000I0J-250000D01*
G01*
X145375000Y-129525000D01*
G75*
G02*
X145125000Y-129775000I-250000J0D01*
G01*
X143875000Y-129775000D01*
G75*
G02*
X143625000Y-129525000I0J250000D01*
G01*
X143625000Y-128775000D01*
G75*
G02*
X143875000Y-128525000I250000J0D01*
G01*
G37*
%TD*%
%TO.C,C20*%
G36*
G01*
X177625000Y-93025000D02*
X178875000Y-93025000D01*
G75*
G02*
X179125000Y-93275000I0J-250000D01*
G01*
X179125000Y-94025000D01*
G75*
G02*
X178875000Y-94275000I-250000J0D01*
G01*
X177625000Y-94275000D01*
G75*
G02*
X177375000Y-94025000I0J250000D01*
G01*
X177375000Y-93275000D01*
G75*
G02*
X177625000Y-93025000I250000J0D01*
G01*
G37*
G36*
G01*
X177625000Y-90225000D02*
X178875000Y-90225000D01*
G75*
G02*
X179125000Y-90475000I0J-250000D01*
G01*
X179125000Y-91225000D01*
G75*
G02*
X178875000Y-91475000I-250000J0D01*
G01*
X177625000Y-91475000D01*
G75*
G02*
X177375000Y-91225000I0J250000D01*
G01*
X177375000Y-90475000D01*
G75*
G02*
X177625000Y-90225000I250000J0D01*
G01*
G37*
%TD*%
%TO.C,C21*%
G36*
G01*
X178875000Y-126975000D02*
X177625000Y-126975000D01*
G75*
G02*
X177375000Y-126725000I0J250000D01*
G01*
X177375000Y-125975000D01*
G75*
G02*
X177625000Y-125725000I250000J0D01*
G01*
X178875000Y-125725000D01*
G75*
G02*
X179125000Y-125975000I0J-250000D01*
G01*
X179125000Y-126725000D01*
G75*
G02*
X178875000Y-126975000I-250000J0D01*
G01*
G37*
G36*
G01*
X178875000Y-129775000D02*
X177625000Y-129775000D01*
G75*
G02*
X177375000Y-129525000I0J250000D01*
G01*
X177375000Y-128775000D01*
G75*
G02*
X177625000Y-128525000I250000J0D01*
G01*
X178875000Y-128525000D01*
G75*
G02*
X179125000Y-128775000I0J-250000D01*
G01*
X179125000Y-129525000D01*
G75*
G02*
X178875000Y-129775000I-250000J0D01*
G01*
G37*
%TD*%
%TO.C,C22*%
G36*
G01*
X175125000Y-90225000D02*
X176375000Y-90225000D01*
G75*
G02*
X176625000Y-90475000I0J-250000D01*
G01*
X176625000Y-91225000D01*
G75*
G02*
X176375000Y-91475000I-250000J0D01*
G01*
X175125000Y-91475000D01*
G75*
G02*
X174875000Y-91225000I0J250000D01*
G01*
X174875000Y-90475000D01*
G75*
G02*
X175125000Y-90225000I250000J0D01*
G01*
G37*
G36*
G01*
X175125000Y-93025000D02*
X176375000Y-93025000D01*
G75*
G02*
X176625000Y-93275000I0J-250000D01*
G01*
X176625000Y-94025000D01*
G75*
G02*
X176375000Y-94275000I-250000J0D01*
G01*
X175125000Y-94275000D01*
G75*
G02*
X174875000Y-94025000I0J250000D01*
G01*
X174875000Y-93275000D01*
G75*
G02*
X175125000Y-93025000I250000J0D01*
G01*
G37*
%TD*%
%TO.C,C23*%
G36*
G01*
X176375000Y-129775000D02*
X175125000Y-129775000D01*
G75*
G02*
X174875000Y-129525000I0J250000D01*
G01*
X174875000Y-128775000D01*
G75*
G02*
X175125000Y-128525000I250000J0D01*
G01*
X176375000Y-128525000D01*
G75*
G02*
X176625000Y-128775000I0J-250000D01*
G01*
X176625000Y-129525000D01*
G75*
G02*
X176375000Y-129775000I-250000J0D01*
G01*
G37*
G36*
G01*
X176375000Y-126975000D02*
X175125000Y-126975000D01*
G75*
G02*
X174875000Y-126725000I0J250000D01*
G01*
X174875000Y-125975000D01*
G75*
G02*
X175125000Y-125725000I250000J0D01*
G01*
X176375000Y-125725000D01*
G75*
G02*
X176625000Y-125975000I0J-250000D01*
G01*
X176625000Y-126725000D01*
G75*
G02*
X176375000Y-126975000I-250000J0D01*
G01*
G37*
%TD*%
%TO.C,C24*%
G36*
G01*
X172625000Y-93025000D02*
X173875000Y-93025000D01*
G75*
G02*
X174125000Y-93275000I0J-250000D01*
G01*
X174125000Y-94025000D01*
G75*
G02*
X173875000Y-94275000I-250000J0D01*
G01*
X172625000Y-94275000D01*
G75*
G02*
X172375000Y-94025000I0J250000D01*
G01*
X172375000Y-93275000D01*
G75*
G02*
X172625000Y-93025000I250000J0D01*
G01*
G37*
G36*
G01*
X172625000Y-90225000D02*
X173875000Y-90225000D01*
G75*
G02*
X174125000Y-90475000I0J-250000D01*
G01*
X174125000Y-91225000D01*
G75*
G02*
X173875000Y-91475000I-250000J0D01*
G01*
X172625000Y-91475000D01*
G75*
G02*
X172375000Y-91225000I0J250000D01*
G01*
X172375000Y-90475000D01*
G75*
G02*
X172625000Y-90225000I250000J0D01*
G01*
G37*
%TD*%
%TO.C,C25*%
G36*
G01*
X173875000Y-126975000D02*
X172625000Y-126975000D01*
G75*
G02*
X172375000Y-126725000I0J250000D01*
G01*
X172375000Y-125975000D01*
G75*
G02*
X172625000Y-125725000I250000J0D01*
G01*
X173875000Y-125725000D01*
G75*
G02*
X174125000Y-125975000I0J-250000D01*
G01*
X174125000Y-126725000D01*
G75*
G02*
X173875000Y-126975000I-250000J0D01*
G01*
G37*
G36*
G01*
X173875000Y-129775000D02*
X172625000Y-129775000D01*
G75*
G02*
X172375000Y-129525000I0J250000D01*
G01*
X172375000Y-128775000D01*
G75*
G02*
X172625000Y-128525000I250000J0D01*
G01*
X173875000Y-128525000D01*
G75*
G02*
X174125000Y-128775000I0J-250000D01*
G01*
X174125000Y-129525000D01*
G75*
G02*
X173875000Y-129775000I-250000J0D01*
G01*
G37*
%TD*%
%TO.C,C3*%
G36*
G01*
X139350000Y-113756250D02*
X139350000Y-113243750D01*
G75*
G02*
X139568750Y-113025000I218750J0D01*
G01*
X140006250Y-113025000D01*
G75*
G02*
X140225000Y-113243750I0J-218750D01*
G01*
X140225000Y-113756250D01*
G75*
G02*
X140006250Y-113975000I-218750J0D01*
G01*
X139568750Y-113975000D01*
G75*
G02*
X139350000Y-113756250I0J218750D01*
G01*
G37*
G36*
G01*
X137775000Y-113756250D02*
X137775000Y-113243750D01*
G75*
G02*
X137993750Y-113025000I218750J0D01*
G01*
X138431250Y-113025000D01*
G75*
G02*
X138650000Y-113243750I0J-218750D01*
G01*
X138650000Y-113756250D01*
G75*
G02*
X138431250Y-113975000I-218750J0D01*
G01*
X137993750Y-113975000D01*
G75*
G02*
X137775000Y-113756250I0J218750D01*
G01*
G37*
%TD*%
%TO.C,C6*%
G36*
G01*
X129493750Y-98275000D02*
X130006250Y-98275000D01*
G75*
G02*
X130225000Y-98493750I0J-218750D01*
G01*
X130225000Y-98931250D01*
G75*
G02*
X130006250Y-99150000I-218750J0D01*
G01*
X129493750Y-99150000D01*
G75*
G02*
X129275000Y-98931250I0J218750D01*
G01*
X129275000Y-98493750D01*
G75*
G02*
X129493750Y-98275000I218750J0D01*
G01*
G37*
G36*
G01*
X129493750Y-99850000D02*
X130006250Y-99850000D01*
G75*
G02*
X130225000Y-100068750I0J-218750D01*
G01*
X130225000Y-100506250D01*
G75*
G02*
X130006250Y-100725000I-218750J0D01*
G01*
X129493750Y-100725000D01*
G75*
G02*
X129275000Y-100506250I0J218750D01*
G01*
X129275000Y-100068750D01*
G75*
G02*
X129493750Y-99850000I218750J0D01*
G01*
G37*
%TD*%
%TO.C,C11*%
G36*
G01*
X123506250Y-112150000D02*
X122993750Y-112150000D01*
G75*
G02*
X122775000Y-111931250I0J218750D01*
G01*
X122775000Y-111493750D01*
G75*
G02*
X122993750Y-111275000I218750J0D01*
G01*
X123506250Y-111275000D01*
G75*
G02*
X123725000Y-111493750I0J-218750D01*
G01*
X123725000Y-111931250D01*
G75*
G02*
X123506250Y-112150000I-218750J0D01*
G01*
G37*
G36*
G01*
X123506250Y-113725000D02*
X122993750Y-113725000D01*
G75*
G02*
X122775000Y-113506250I0J218750D01*
G01*
X122775000Y-113068750D01*
G75*
G02*
X122993750Y-112850000I218750J0D01*
G01*
X123506250Y-112850000D01*
G75*
G02*
X123725000Y-113068750I0J-218750D01*
G01*
X123725000Y-113506250D01*
G75*
G02*
X123506250Y-113725000I-218750J0D01*
G01*
G37*
%TD*%
%TO.C,C14*%
G36*
G01*
X132743750Y-115850000D02*
X133256250Y-115850000D01*
G75*
G02*
X133475000Y-116068750I0J-218750D01*
G01*
X133475000Y-116506250D01*
G75*
G02*
X133256250Y-116725000I-218750J0D01*
G01*
X132743750Y-116725000D01*
G75*
G02*
X132525000Y-116506250I0J218750D01*
G01*
X132525000Y-116068750D01*
G75*
G02*
X132743750Y-115850000I218750J0D01*
G01*
G37*
G36*
G01*
X132743750Y-114275000D02*
X133256250Y-114275000D01*
G75*
G02*
X133475000Y-114493750I0J-218750D01*
G01*
X133475000Y-114931250D01*
G75*
G02*
X133256250Y-115150000I-218750J0D01*
G01*
X132743750Y-115150000D01*
G75*
G02*
X132525000Y-114931250I0J218750D01*
G01*
X132525000Y-114493750D01*
G75*
G02*
X132743750Y-114275000I218750J0D01*
G01*
G37*
%TD*%
%TO.C,C15*%
G36*
G01*
X135993750Y-111350000D02*
X136506250Y-111350000D01*
G75*
G02*
X136725000Y-111568750I0J-218750D01*
G01*
X136725000Y-112006250D01*
G75*
G02*
X136506250Y-112225000I-218750J0D01*
G01*
X135993750Y-112225000D01*
G75*
G02*
X135775000Y-112006250I0J218750D01*
G01*
X135775000Y-111568750D01*
G75*
G02*
X135993750Y-111350000I218750J0D01*
G01*
G37*
G36*
G01*
X135993750Y-109775000D02*
X136506250Y-109775000D01*
G75*
G02*
X136725000Y-109993750I0J-218750D01*
G01*
X136725000Y-110431250D01*
G75*
G02*
X136506250Y-110650000I-218750J0D01*
G01*
X135993750Y-110650000D01*
G75*
G02*
X135775000Y-110431250I0J218750D01*
G01*
X135775000Y-109993750D01*
G75*
G02*
X135993750Y-109775000I218750J0D01*
G01*
G37*
%TD*%
%TO.C,C16*%
G36*
G01*
X135993750Y-106775000D02*
X136506250Y-106775000D01*
G75*
G02*
X136725000Y-106993750I0J-218750D01*
G01*
X136725000Y-107431250D01*
G75*
G02*
X136506250Y-107650000I-218750J0D01*
G01*
X135993750Y-107650000D01*
G75*
G02*
X135775000Y-107431250I0J218750D01*
G01*
X135775000Y-106993750D01*
G75*
G02*
X135993750Y-106775000I218750J0D01*
G01*
G37*
G36*
G01*
X135993750Y-108350000D02*
X136506250Y-108350000D01*
G75*
G02*
X136725000Y-108568750I0J-218750D01*
G01*
X136725000Y-109006250D01*
G75*
G02*
X136506250Y-109225000I-218750J0D01*
G01*
X135993750Y-109225000D01*
G75*
G02*
X135775000Y-109006250I0J218750D01*
G01*
X135775000Y-108568750D01*
G75*
G02*
X135993750Y-108350000I218750J0D01*
G01*
G37*
%TD*%
%TO.C,C17*%
G36*
G01*
X145243750Y-108600000D02*
X145756250Y-108600000D01*
G75*
G02*
X145975000Y-108818750I0J-218750D01*
G01*
X145975000Y-109256250D01*
G75*
G02*
X145756250Y-109475000I-218750J0D01*
G01*
X145243750Y-109475000D01*
G75*
G02*
X145025000Y-109256250I0J218750D01*
G01*
X145025000Y-108818750D01*
G75*
G02*
X145243750Y-108600000I218750J0D01*
G01*
G37*
G36*
G01*
X145243750Y-107025000D02*
X145756250Y-107025000D01*
G75*
G02*
X145975000Y-107243750I0J-218750D01*
G01*
X145975000Y-107681250D01*
G75*
G02*
X145756250Y-107900000I-218750J0D01*
G01*
X145243750Y-107900000D01*
G75*
G02*
X145025000Y-107681250I0J218750D01*
G01*
X145025000Y-107243750D01*
G75*
G02*
X145243750Y-107025000I218750J0D01*
G01*
G37*
%TD*%
%TO.C,C18*%
G36*
G01*
X141743750Y-117275000D02*
X142256250Y-117275000D01*
G75*
G02*
X142475000Y-117493750I0J-218750D01*
G01*
X142475000Y-117931250D01*
G75*
G02*
X142256250Y-118150000I-218750J0D01*
G01*
X141743750Y-118150000D01*
G75*
G02*
X141525000Y-117931250I0J218750D01*
G01*
X141525000Y-117493750D01*
G75*
G02*
X141743750Y-117275000I218750J0D01*
G01*
G37*
G36*
G01*
X141743750Y-118850000D02*
X142256250Y-118850000D01*
G75*
G02*
X142475000Y-119068750I0J-218750D01*
G01*
X142475000Y-119506250D01*
G75*
G02*
X142256250Y-119725000I-218750J0D01*
G01*
X141743750Y-119725000D01*
G75*
G02*
X141525000Y-119506250I0J218750D01*
G01*
X141525000Y-119068750D01*
G75*
G02*
X141743750Y-118850000I218750J0D01*
G01*
G37*
%TD*%
%TO.C,C19*%
G36*
G01*
X141525000Y-116256250D02*
X141525000Y-115743750D01*
G75*
G02*
X141743750Y-115525000I218750J0D01*
G01*
X142181250Y-115525000D01*
G75*
G02*
X142400000Y-115743750I0J-218750D01*
G01*
X142400000Y-116256250D01*
G75*
G02*
X142181250Y-116475000I-218750J0D01*
G01*
X141743750Y-116475000D01*
G75*
G02*
X141525000Y-116256250I0J218750D01*
G01*
G37*
G36*
G01*
X143100000Y-116256250D02*
X143100000Y-115743750D01*
G75*
G02*
X143318750Y-115525000I218750J0D01*
G01*
X143756250Y-115525000D01*
G75*
G02*
X143975000Y-115743750I0J-218750D01*
G01*
X143975000Y-116256250D01*
G75*
G02*
X143756250Y-116475000I-218750J0D01*
G01*
X143318750Y-116475000D01*
G75*
G02*
X143100000Y-116256250I0J218750D01*
G01*
G37*
%TD*%
%TO.C,C26*%
G36*
G01*
X128975000Y-118743750D02*
X128975000Y-119256250D01*
G75*
G02*
X128756250Y-119475000I-218750J0D01*
G01*
X128318750Y-119475000D01*
G75*
G02*
X128100000Y-119256250I0J218750D01*
G01*
X128100000Y-118743750D01*
G75*
G02*
X128318750Y-118525000I218750J0D01*
G01*
X128756250Y-118525000D01*
G75*
G02*
X128975000Y-118743750I0J-218750D01*
G01*
G37*
G36*
G01*
X127400000Y-118743750D02*
X127400000Y-119256250D01*
G75*
G02*
X127181250Y-119475000I-218750J0D01*
G01*
X126743750Y-119475000D01*
G75*
G02*
X126525000Y-119256250I0J218750D01*
G01*
X126525000Y-118743750D01*
G75*
G02*
X126743750Y-118525000I218750J0D01*
G01*
X127181250Y-118525000D01*
G75*
G02*
X127400000Y-118743750I0J-218750D01*
G01*
G37*
%TD*%
%TO.C,C27*%
G36*
G01*
X128100000Y-110006250D02*
X128100000Y-109493750D01*
G75*
G02*
X128318750Y-109275000I218750J0D01*
G01*
X128756250Y-109275000D01*
G75*
G02*
X128975000Y-109493750I0J-218750D01*
G01*
X128975000Y-110006250D01*
G75*
G02*
X128756250Y-110225000I-218750J0D01*
G01*
X128318750Y-110225000D01*
G75*
G02*
X128100000Y-110006250I0J218750D01*
G01*
G37*
G36*
G01*
X126525000Y-110006250D02*
X126525000Y-109493750D01*
G75*
G02*
X126743750Y-109275000I218750J0D01*
G01*
X127181250Y-109275000D01*
G75*
G02*
X127400000Y-109493750I0J-218750D01*
G01*
X127400000Y-110006250D01*
G75*
G02*
X127181250Y-110225000I-218750J0D01*
G01*
X126743750Y-110225000D01*
G75*
G02*
X126525000Y-110006250I0J218750D01*
G01*
G37*
%TD*%
%TO.C,R1*%
G36*
G01*
X123993750Y-98275000D02*
X124506250Y-98275000D01*
G75*
G02*
X124725000Y-98493750I0J-218750D01*
G01*
X124725000Y-98931250D01*
G75*
G02*
X124506250Y-99150000I-218750J0D01*
G01*
X123993750Y-99150000D01*
G75*
G02*
X123775000Y-98931250I0J218750D01*
G01*
X123775000Y-98493750D01*
G75*
G02*
X123993750Y-98275000I218750J0D01*
G01*
G37*
G36*
G01*
X123993750Y-99850000D02*
X124506250Y-99850000D01*
G75*
G02*
X124725000Y-100068750I0J-218750D01*
G01*
X124725000Y-100506250D01*
G75*
G02*
X124506250Y-100725000I-218750J0D01*
G01*
X123993750Y-100725000D01*
G75*
G02*
X123775000Y-100506250I0J218750D01*
G01*
X123775000Y-100068750D01*
G75*
G02*
X123993750Y-99850000I218750J0D01*
G01*
G37*
%TD*%
%TO.C,R2*%
G36*
G01*
X127993750Y-99850000D02*
X128506250Y-99850000D01*
G75*
G02*
X128725000Y-100068750I0J-218750D01*
G01*
X128725000Y-100506250D01*
G75*
G02*
X128506250Y-100725000I-218750J0D01*
G01*
X127993750Y-100725000D01*
G75*
G02*
X127775000Y-100506250I0J218750D01*
G01*
X127775000Y-100068750D01*
G75*
G02*
X127993750Y-99850000I218750J0D01*
G01*
G37*
G36*
G01*
X127993750Y-98275000D02*
X128506250Y-98275000D01*
G75*
G02*
X128725000Y-98493750I0J-218750D01*
G01*
X128725000Y-98931250D01*
G75*
G02*
X128506250Y-99150000I-218750J0D01*
G01*
X127993750Y-99150000D01*
G75*
G02*
X127775000Y-98931250I0J218750D01*
G01*
X127775000Y-98493750D01*
G75*
G02*
X127993750Y-98275000I218750J0D01*
G01*
G37*
%TD*%
%TO.C,R9*%
G36*
G01*
X145756250Y-106225000D02*
X145243750Y-106225000D01*
G75*
G02*
X145025000Y-106006250I0J218750D01*
G01*
X145025000Y-105568750D01*
G75*
G02*
X145243750Y-105350000I218750J0D01*
G01*
X145756250Y-105350000D01*
G75*
G02*
X145975000Y-105568750I0J-218750D01*
G01*
X145975000Y-106006250D01*
G75*
G02*
X145756250Y-106225000I-218750J0D01*
G01*
G37*
G36*
G01*
X145756250Y-104650000D02*
X145243750Y-104650000D01*
G75*
G02*
X145025000Y-104431250I0J218750D01*
G01*
X145025000Y-103993750D01*
G75*
G02*
X145243750Y-103775000I218750J0D01*
G01*
X145756250Y-103775000D01*
G75*
G02*
X145975000Y-103993750I0J-218750D01*
G01*
X145975000Y-104431250D01*
G75*
G02*
X145756250Y-104650000I-218750J0D01*
G01*
G37*
%TD*%
%TO.C,R11*%
G36*
G01*
X132743750Y-117275000D02*
X133256250Y-117275000D01*
G75*
G02*
X133475000Y-117493750I0J-218750D01*
G01*
X133475000Y-117931250D01*
G75*
G02*
X133256250Y-118150000I-218750J0D01*
G01*
X132743750Y-118150000D01*
G75*
G02*
X132525000Y-117931250I0J218750D01*
G01*
X132525000Y-117493750D01*
G75*
G02*
X132743750Y-117275000I218750J0D01*
G01*
G37*
G36*
G01*
X132743750Y-118850000D02*
X133256250Y-118850000D01*
G75*
G02*
X133475000Y-119068750I0J-218750D01*
G01*
X133475000Y-119506250D01*
G75*
G02*
X133256250Y-119725000I-218750J0D01*
G01*
X132743750Y-119725000D01*
G75*
G02*
X132525000Y-119506250I0J218750D01*
G01*
X132525000Y-119068750D01*
G75*
G02*
X132743750Y-118850000I218750J0D01*
G01*
G37*
%TD*%
%TO.C,R15*%
G36*
G01*
X134243750Y-109775000D02*
X134756250Y-109775000D01*
G75*
G02*
X134975000Y-109993750I0J-218750D01*
G01*
X134975000Y-110431250D01*
G75*
G02*
X134756250Y-110650000I-218750J0D01*
G01*
X134243750Y-110650000D01*
G75*
G02*
X134025000Y-110431250I0J218750D01*
G01*
X134025000Y-109993750D01*
G75*
G02*
X134243750Y-109775000I218750J0D01*
G01*
G37*
G36*
G01*
X134243750Y-111350000D02*
X134756250Y-111350000D01*
G75*
G02*
X134975000Y-111568750I0J-218750D01*
G01*
X134975000Y-112006250D01*
G75*
G02*
X134756250Y-112225000I-218750J0D01*
G01*
X134243750Y-112225000D01*
G75*
G02*
X134025000Y-112006250I0J218750D01*
G01*
X134025000Y-111568750D01*
G75*
G02*
X134243750Y-111350000I218750J0D01*
G01*
G37*
%TD*%
%TO.C,R16*%
G36*
G01*
X134756250Y-107650000D02*
X134243750Y-107650000D01*
G75*
G02*
X134025000Y-107431250I0J218750D01*
G01*
X134025000Y-106993750D01*
G75*
G02*
X134243750Y-106775000I218750J0D01*
G01*
X134756250Y-106775000D01*
G75*
G02*
X134975000Y-106993750I0J-218750D01*
G01*
X134975000Y-107431250D01*
G75*
G02*
X134756250Y-107650000I-218750J0D01*
G01*
G37*
G36*
G01*
X134756250Y-109225000D02*
X134243750Y-109225000D01*
G75*
G02*
X134025000Y-109006250I0J218750D01*
G01*
X134025000Y-108568750D01*
G75*
G02*
X134243750Y-108350000I218750J0D01*
G01*
X134756250Y-108350000D01*
G75*
G02*
X134975000Y-108568750I0J-218750D01*
G01*
X134975000Y-109006250D01*
G75*
G02*
X134756250Y-109225000I-218750J0D01*
G01*
G37*
%TD*%
%TO.C,R17*%
G36*
G01*
X143243750Y-117275000D02*
X143756250Y-117275000D01*
G75*
G02*
X143975000Y-117493750I0J-218750D01*
G01*
X143975000Y-117931250D01*
G75*
G02*
X143756250Y-118150000I-218750J0D01*
G01*
X143243750Y-118150000D01*
G75*
G02*
X143025000Y-117931250I0J218750D01*
G01*
X143025000Y-117493750D01*
G75*
G02*
X143243750Y-117275000I218750J0D01*
G01*
G37*
G36*
G01*
X143243750Y-118850000D02*
X143756250Y-118850000D01*
G75*
G02*
X143975000Y-119068750I0J-218750D01*
G01*
X143975000Y-119506250D01*
G75*
G02*
X143756250Y-119725000I-218750J0D01*
G01*
X143243750Y-119725000D01*
G75*
G02*
X143025000Y-119506250I0J218750D01*
G01*
X143025000Y-119068750D01*
G75*
G02*
X143243750Y-118850000I218750J0D01*
G01*
G37*
%TD*%
%TO.C,R18*%
G36*
G01*
X142400000Y-113993750D02*
X142400000Y-114506250D01*
G75*
G02*
X142181250Y-114725000I-218750J0D01*
G01*
X141743750Y-114725000D01*
G75*
G02*
X141525000Y-114506250I0J218750D01*
G01*
X141525000Y-113993750D01*
G75*
G02*
X141743750Y-113775000I218750J0D01*
G01*
X142181250Y-113775000D01*
G75*
G02*
X142400000Y-113993750I0J-218750D01*
G01*
G37*
G36*
G01*
X143975000Y-113993750D02*
X143975000Y-114506250D01*
G75*
G02*
X143756250Y-114725000I-218750J0D01*
G01*
X143318750Y-114725000D01*
G75*
G02*
X143100000Y-114506250I0J218750D01*
G01*
X143100000Y-113993750D01*
G75*
G02*
X143318750Y-113775000I218750J0D01*
G01*
X143756250Y-113775000D01*
G75*
G02*
X143975000Y-113993750I0J-218750D01*
G01*
G37*
%TD*%
%TO.C,R23*%
G36*
G01*
X132743750Y-111350000D02*
X133256250Y-111350000D01*
G75*
G02*
X133475000Y-111568750I0J-218750D01*
G01*
X133475000Y-112006250D01*
G75*
G02*
X133256250Y-112225000I-218750J0D01*
G01*
X132743750Y-112225000D01*
G75*
G02*
X132525000Y-112006250I0J218750D01*
G01*
X132525000Y-111568750D01*
G75*
G02*
X132743750Y-111350000I218750J0D01*
G01*
G37*
G36*
G01*
X132743750Y-109775000D02*
X133256250Y-109775000D01*
G75*
G02*
X133475000Y-109993750I0J-218750D01*
G01*
X133475000Y-110431250D01*
G75*
G02*
X133256250Y-110650000I-218750J0D01*
G01*
X132743750Y-110650000D01*
G75*
G02*
X132525000Y-110431250I0J218750D01*
G01*
X132525000Y-109993750D01*
G75*
G02*
X132743750Y-109775000I218750J0D01*
G01*
G37*
%TD*%
%TO.C,R24*%
G36*
G01*
X144743750Y-114275000D02*
X145256250Y-114275000D01*
G75*
G02*
X145475000Y-114493750I0J-218750D01*
G01*
X145475000Y-114931250D01*
G75*
G02*
X145256250Y-115150000I-218750J0D01*
G01*
X144743750Y-115150000D01*
G75*
G02*
X144525000Y-114931250I0J218750D01*
G01*
X144525000Y-114493750D01*
G75*
G02*
X144743750Y-114275000I218750J0D01*
G01*
G37*
G36*
G01*
X144743750Y-115850000D02*
X145256250Y-115850000D01*
G75*
G02*
X145475000Y-116068750I0J-218750D01*
G01*
X145475000Y-116506250D01*
G75*
G02*
X145256250Y-116725000I-218750J0D01*
G01*
X144743750Y-116725000D01*
G75*
G02*
X144525000Y-116506250I0J218750D01*
G01*
X144525000Y-116068750D01*
G75*
G02*
X144743750Y-115850000I218750J0D01*
G01*
G37*
%TD*%
%TO.C,R25*%
G36*
G01*
X178566292Y-111928684D02*
X178928684Y-111566291D01*
G75*
G02*
X179238044Y-111566291I154680J-154680D01*
G01*
X179547403Y-111875650D01*
G75*
G02*
X179547403Y-112185010I-154680J-154680D01*
G01*
X179185010Y-112547403D01*
G75*
G02*
X178875650Y-112547403I-154680J154680D01*
G01*
X178566291Y-112238044D01*
G75*
G02*
X178566291Y-111928684I154680J154680D01*
G01*
G37*
G36*
G01*
X177452598Y-110814990D02*
X177814990Y-110452597D01*
G75*
G02*
X178124350Y-110452597I154680J-154680D01*
G01*
X178433709Y-110761956D01*
G75*
G02*
X178433709Y-111071316I-154680J-154680D01*
G01*
X178071316Y-111433709D01*
G75*
G02*
X177761956Y-111433709I-154680J154680D01*
G01*
X177452597Y-111124350D01*
G75*
G02*
X177452597Y-110814990I154680J154680D01*
G01*
G37*
%TD*%
%TO.C,R30*%
G36*
G01*
X133256250Y-109225000D02*
X132743750Y-109225000D01*
G75*
G02*
X132525000Y-109006250I0J218750D01*
G01*
X132525000Y-108568750D01*
G75*
G02*
X132743750Y-108350000I218750J0D01*
G01*
X133256250Y-108350000D01*
G75*
G02*
X133475000Y-108568750I0J-218750D01*
G01*
X133475000Y-109006250D01*
G75*
G02*
X133256250Y-109225000I-218750J0D01*
G01*
G37*
G36*
G01*
X133256250Y-107650000D02*
X132743750Y-107650000D01*
G75*
G02*
X132525000Y-107431250I0J218750D01*
G01*
X132525000Y-106993750D01*
G75*
G02*
X132743750Y-106775000I218750J0D01*
G01*
X133256250Y-106775000D01*
G75*
G02*
X133475000Y-106993750I0J-218750D01*
G01*
X133475000Y-107431250D01*
G75*
G02*
X133256250Y-107650000I-218750J0D01*
G01*
G37*
%TD*%
%TO.C,R31*%
G36*
G01*
X146243750Y-114275000D02*
X146756250Y-114275000D01*
G75*
G02*
X146975000Y-114493750I0J-218750D01*
G01*
X146975000Y-114931250D01*
G75*
G02*
X146756250Y-115150000I-218750J0D01*
G01*
X146243750Y-115150000D01*
G75*
G02*
X146025000Y-114931250I0J218750D01*
G01*
X146025000Y-114493750D01*
G75*
G02*
X146243750Y-114275000I218750J0D01*
G01*
G37*
G36*
G01*
X146243750Y-115850000D02*
X146756250Y-115850000D01*
G75*
G02*
X146975000Y-116068750I0J-218750D01*
G01*
X146975000Y-116506250D01*
G75*
G02*
X146756250Y-116725000I-218750J0D01*
G01*
X146243750Y-116725000D01*
G75*
G02*
X146025000Y-116506250I0J218750D01*
G01*
X146025000Y-116068750D01*
G75*
G02*
X146243750Y-115850000I218750J0D01*
G01*
G37*
%TD*%
%TO.C,R32*%
G36*
G01*
X176316292Y-112178684D02*
X176678684Y-111816291D01*
G75*
G02*
X176988044Y-111816291I154680J-154680D01*
G01*
X177297403Y-112125650D01*
G75*
G02*
X177297403Y-112435010I-154680J-154680D01*
G01*
X176935010Y-112797403D01*
G75*
G02*
X176625650Y-112797403I-154680J154680D01*
G01*
X176316291Y-112488044D01*
G75*
G02*
X176316291Y-112178684I154680J154680D01*
G01*
G37*
G36*
G01*
X175202598Y-111064990D02*
X175564990Y-110702597D01*
G75*
G02*
X175874350Y-110702597I154680J-154680D01*
G01*
X176183709Y-111011956D01*
G75*
G02*
X176183709Y-111321316I-154680J-154680D01*
G01*
X175821316Y-111683709D01*
G75*
G02*
X175511956Y-111683709I-154680J154680D01*
G01*
X175202597Y-111374350D01*
G75*
G02*
X175202597Y-111064990I154680J154680D01*
G01*
G37*
%TD*%
%TO.C,R35*%
G36*
G01*
X172952598Y-111564990D02*
X173314990Y-111202597D01*
G75*
G02*
X173624350Y-111202597I154680J-154680D01*
G01*
X173933709Y-111511956D01*
G75*
G02*
X173933709Y-111821316I-154680J-154680D01*
G01*
X173571316Y-112183709D01*
G75*
G02*
X173261956Y-112183709I-154680J154680D01*
G01*
X172952597Y-111874350D01*
G75*
G02*
X172952597Y-111564990I154680J154680D01*
G01*
G37*
G36*
G01*
X174066292Y-112678684D02*
X174428684Y-112316291D01*
G75*
G02*
X174738044Y-112316291I154680J-154680D01*
G01*
X175047403Y-112625650D01*
G75*
G02*
X175047403Y-112935010I-154680J-154680D01*
G01*
X174685010Y-113297403D01*
G75*
G02*
X174375650Y-113297403I-154680J154680D01*
G01*
X174066291Y-112988044D01*
G75*
G02*
X174066291Y-112678684I154680J154680D01*
G01*
G37*
%TD*%
M02*
