M48
; DRILL file {KiCad (5.1.6)-1} date 05/08/21 17:44:31
; FORMAT={-:-/ absolute / inch / decimal}
; #@! TF.CreationDate,2021-05-08T17:44:31+05:30
; #@! TF.GenerationSoftware,Kicad,Pcbnew,(5.1.6)-1
; #@! TF.FileFunction,Plated,1,2,PTH
FMAT,2
INCH
T1C0.0120
T2C0.0197
T3C0.0315
T4C0.0394
T5C0.0433
T6C0.0551
T7C0.0787
T8C0.1260
%
G90
G05
T1
X4.8524Y-4.5079
X4.8917Y-4.1535
X5.0098Y-4.1535
X5.0689Y-4.5276
X5.0984Y-4.3209
X5.1083Y-3.9961
X5.1083Y-4.1535
X5.1083Y-4.685
X5.1809Y-4.0491
X5.187Y-4.2224
X5.2362Y-4.7441
X5.315Y-4.7146
X5.3809Y-4.0482
X5.4429Y-4.5177
X5.4724Y-4.7244
X5.502Y-4.4193
X5.5118Y-5.0197
X5.5268Y-4.1732
X5.5807Y-3.7402
X5.6004Y-5.0197
X5.6201Y-3.7402
X5.6693Y-3.7402
X5.689Y-5.0197
X5.6988Y-4.6752
X5.7087Y-3.7402
X5.748Y-4.9705
X5.8268Y-4.2028
X6.8012Y-3.5236
X6.8012Y-5.1378
X6.8406Y-3.5236
X6.8406Y-5.1378
X6.8996Y-3.5236
X6.8996Y-5.1378
X6.939Y-3.5236
X6.939Y-5.1378
X6.998Y-3.5236
X6.998Y-5.1378
X7.0374Y-3.5236
X7.0374Y-5.1378
T2
X4.3937Y-3.563
X4.4214Y-3.4962
X4.4214Y-3.6298
X4.4882Y-3.4685
X4.4882Y-3.6575
X4.555Y-3.4962
X4.555Y-3.6298
X4.5827Y-3.563
X4.3937Y-5.0984
X4.4214Y-5.0316
X4.4214Y-5.1652
X4.4882Y-5.0039
X4.4882Y-5.1929
X4.555Y-5.0316
X4.555Y-5.1652
X4.5827Y-5.0984
X7.2283Y-5.0984
X7.256Y-5.0316
X7.256Y-5.1652
X7.3228Y-5.0039
X7.3228Y-5.1929
X7.3896Y-5.0316
X7.3896Y-5.1652
X7.4173Y-5.0984
X7.2283Y-3.563
X7.256Y-3.4962
X7.256Y-3.6298
X7.3228Y-3.4685
X7.3228Y-3.6575
X7.3896Y-3.4962
X7.3896Y-3.6298
X7.4173Y-3.563
T3
X5.2559Y-3.563
X5.2559Y-3.7008
X5.2559Y-4.9606
X5.2559Y-5.0984
X4.8819Y-3.563
X4.8819Y-3.7008
X4.8819Y-4.9606
X4.8819Y-5.0984
T4
X4.8311Y-4.7736
X4.9311Y-4.7736
X5.0311Y-4.7736
X4.8311Y-4.2323
X4.9311Y-4.2323
X5.0311Y-4.2323
T5
X7.1457Y-3.852
X7.1457Y-4.252
X4.6654Y-4.4094
X4.6654Y-4.8094
X7.1457Y-4.4094
X7.1457Y-4.8094
X5.9236Y-5.0
X6.0236Y-5.0
X6.1236Y-5.0
X4.6654Y-3.852
X4.6654Y-4.252
X6.3961Y-3.6614
X6.4961Y-3.6614
X6.5961Y-3.6614
X6.3961Y-5.0
X6.4961Y-5.0
X6.5961Y-5.0
X5.9236Y-3.6614
X6.0236Y-3.6614
X6.1236Y-3.6614
T6
X5.9193Y-4.5374
X6.9193Y-4.5374
X5.9193Y-4.124
X6.9193Y-4.124
T7
X7.3228Y-3.8583
X4.4882Y-4.8031
X7.3228Y-4.8031
X4.4882Y-4.3307
X4.4882Y-3.8583
X7.3228Y-4.3307
T8
X7.3228Y-3.563
X4.4882Y-3.563
X4.4882Y-5.0984
X7.3228Y-5.0984
T0
M30
